<?xml version="1.0" encoding="UTF-8"?><svg id="a" xmlns="http://www.w3.org/2000/svg" viewBox="0 0 190 345"><path id="b" d="M190,0H0V345H190V0Z" fill="#e1ffec"/><path id="c" d="M190,265H0v80H190v-80Z" fill="#ce0d0d"/><path id="d" d="M190,265.27H0v-13H190v13Z" fill="#0c3081"/><g><path d="M157.09,205.84v-8.47h3.37v17.5h-3.37v-7l-6.67,7h-4.32l7.7-8.05-8.2-9.45h4.27l7.22,8.47Z" fill="#071b3f"/><path d="M140.09,211.86v-3.62h-5.62v-3h5.62v-4.87h-7.37v-3h10.75v17.5h-10.5v-3h7.12Z" fill="#071b3f"/><path d="M114.12,197.37h2.5l9.3,11.35v-11.35h3.32v17.5h-2.5l-9.3-11.35v11.35h-3.32v-17.5Z" fill="#071b3f"/><path d="M98.57,214.86v-3h4.62v-14.5h3.38v14.5h4.62v3h-12.62Z" fill="#071b3f"/><path d="M85.27,201.44c-.6,.65-.95,1.5-.95,3v10.42h-3.37v-10.17c0-2.27,.58-3.87,1.62-5.07,1.37-1.57,3.5-2.5,5.82-2.5s4.45,.92,5.82,2.5c1.05,1.2,1.62,2.8,1.62,5.07v10.17h-3.37v-10.42c0-1.5-.35-2.35-.95-3-.75-.83-1.87-1.33-3.12-1.33s-2.37,.5-3.12,1.33Z" fill="#071b3f"/><path d="M63.92,210.06c1.22,1.17,2.7,2.05,4.65,2.05,3.5,0,5.8-2.7,5.8-6s-2.22-6-5.82-6c-2.08,0-3.5,.78-5,2.38l-2.17-1.9c1.6-2.08,4.15-3.47,7.17-3.47,5.4,0,9.2,3.8,9.2,9s-3.87,9-9.15,9c-2.77,0-5.15-1.28-6.72-3l2.05-2.05Z" fill="#071b3f"/><path d="M55.29,205.84v-8.47h3.37v17.5h-3.37v-7l-6.67,7h-4.32l7.7-8.05-8.2-9.45h4.27l7.22,8.47Z" fill="#071b3f"/><path d="M33.92,205.29v-7.92h3.37v7.92l6,9.57h-3.85l-3.87-6.22-3.87,6.22h-3.77l6-9.57Z" fill="#071b3f"/><path d="M144.71,167.37l-7.25,17.5h-2.5l-7.25-17.5h3.57l1.6,3.87h6.75l1.6-3.87h3.47Zm-6.32,6.87h-4.27l2.1,5.37,2.17-5.37Z" fill="#071b3f"/><path d="M128.61,184.86h-3.5l-4.7-11.92-4.6,11.92h-3.45l6.87-17.5h2.5l6.87,17.5Z" fill="#071b3f"/><path d="M106.39,181.86v-3.62h-5.62v-3h5.62v-4.87h-7.37v-3h10.75v17.5h-10.5v-3h7.12Z" fill="#071b3f"/><path d="M80.42,167.37h2.5l9.3,11.35v-11.35h3.32v17.5h-2.5l-9.3-11.35v11.35h-3.32v-17.5Z" fill="#071b3f"/><path d="M65.59,171.44c-.6,.65-.95,1.5-.95,3v10.42h-3.37v-10.17c0-2.27,.58-3.87,1.62-5.07,1.37-1.57,3.5-2.5,5.82-2.5s4.45,.92,5.82,2.5c1.05,1.2,1.62,2.8,1.62,5.07v10.17h-3.37v-10.42c0-1.5-.35-2.35-.95-3-.75-.83-1.87-1.33-3.12-1.33s-2.37,.5-3.12,1.33Z" fill="#071b3f"/><path d="M53.64,181.86v-3.62h-5.62v-3h5.62v-4.87h-7.37v-3h10.75v17.5h-10.5v-3h7.12Z" fill="#071b3f"/></g></svg>