<?xml version="1.0" encoding="UTF-8"?><svg id="a" xmlns="http://www.w3.org/2000/svg" viewBox="0 0 342.89 342.89"><rect width="342.41" height="342.89" fill="#156cd3"/><g><path d="M128.44,78.29l-21.19,37.09,43.96-17.35-17.51,43.81,37.41-20.87,11.63,14.83-80.32,40.79,21.5-51.1-52.13,20.47,42.13-78.98,14.52,11.31Zm59.36,62.22l14.74,11.88-58.2,58.2-14.74-11.88,58.2-58.2Zm27.65,19.91l1.07,69.8,30.57-30.57,14.6,11.23-62.33,62.33-.66-70.06-31.25,31.25-14.34-11.64,62.33-62.33Zm21.67,110.61l-.52,17.84-17.84,.52,.52-17.84,17.84-.52Zm34.19-48.68l15.8,11.76-41.46,39.57-13.09-10.22,38.74-41.1Z" fill="#0e4072"/><g><path d="M129.44,63.29l-21.19,37.09,43.96-17.35-17.51,43.81,37.41-20.87,11.63,14.83-80.32,40.79,21.5-51.1-52.13,20.47L114.93,51.97l14.52,11.31Z" fill="#fff"/><path d="M188.8,125.51l14.74,11.88-58.2,58.2-14.74-11.88,58.2-58.2Z" fill="#fff"/><path d="M216.46,145.41l1.07,69.8,30.57-30.57,14.6,11.23-62.32,62.33-.66-70.06-31.25,31.25-14.34-11.64,62.32-62.33Z" fill="#fff"/><path d="M238.13,256.03l-.52,17.84-17.84,.52,.52-17.84,17.84-.52Zm34.19-48.68l15.8,11.76-41.46,39.57-13.09-10.22,38.74-41.1Z" fill="#fff"/></g></g></svg>