<?xml version="1.0" encoding="UTF-8"?><svg id="a" xmlns="http://www.w3.org/2000/svg" viewBox="0 0 345 190"><path id="b" d="M345,0V190H0V0H345Z" fill="#e1ffec"/><path id="c" d="M80,0V190H0V0H80Z" fill="#008558"/><path id="d" d="M79.8,190V0h13V190h-13Z" fill="#0c3081"/><g><path d="M157.01,137.38h7.12v3.37h-17.5v-6.55c0-2.45,.8-3.95,2.05-4.9,.88-.67,1.95-1.05,3.12-1.05s2.27,.38,3.15,1.05c1.25,.95,2.05,2.45,2.05,4.9v3.17Zm-2.95-2.75c0-1.42-.3-2.05-.78-2.45-.4-.35-.9-.55-1.47-.55s-1.05,.2-1.45,.55c-.47,.4-.78,1.03-.78,2.45v2.75h4.47v-2.75Z" fill="#071b3f"/><path d="M164.14,128.85l-17.5-7.25v-2.5l17.5-7.25v3.57l-3.87,1.6v6.75l3.87,1.6v3.47Zm-6.87-6.32v-4.27l-5.37,2.1,5.37,2.17Z" fill="#071b3f"/><path d="M151.44,97.38c-1.17,1.22-2.05,2.7-2.05,4.65,0,3.5,2.7,5.8,6,5.8s6-2.22,6-5.82c0-2.08-.78-3.5-2.38-5l1.9-2.17c2.08,1.6,3.47,4.15,3.47,7.17,0,5.4-3.8,9.2-9,9.2s-9-3.87-9-9.15c0-2.77,1.28-5.15,3-6.72l2.05,2.05Z" fill="#071b3f"/><path d="M146.64,92.13v-3.37h17.5v3.37h-17.5Z" fill="#071b3f"/><path d="M149.64,80.93h3.62v-5.62h3v5.62h7.87v3.37h-17.5v-10.5h3v7.12Z" fill="#071b3f"/><path d="M146.64,70.65v-3.37h17.5v3.37h-17.5Z" fill="#071b3f"/><path d="M151.44,50.05c-1.17,1.22-2.05,2.7-2.05,4.65,0,3.5,2.7,5.8,6,5.8s6-2.22,6-5.82c0-2.08-.78-3.5-2.38-5l1.9-2.17c2.08,1.6,3.47,4.15,3.47,7.17,0,5.4-3.8,9.2-9,9.2s-9-3.87-9-9.15c0-2.77,1.28-5.15,3-6.72l2.05,2.05Z" fill="#071b3f"/><path d="M194.14,144.71l-17.5-7.25v-2.5l17.5-7.25v3.57l-3.87,1.6v6.75l3.87,1.6v3.47Zm-6.87-6.32v-4.27l-5.37,2.1,5.37,2.17Z" fill="#071b3f"/><path d="M176.64,128.61v-3.5l11.92-4.7-11.92-4.6v-3.45l17.5,6.87v2.5l-17.5,6.87Z" fill="#071b3f"/><path d="M179.64,106.39h3.62v-5.62h3v5.62h4.87v-7.37h3v10.75h-17.5v-10.5h3v7.12Z" fill="#071b3f"/><path d="M194.14,80.42v2.5l-11.35,9.3h11.35v3.32h-17.5v-2.5l11.35-9.3h-11.35v-3.32h17.5Z" fill="#071b3f"/><path d="M190.06,65.59c-.65-.6-1.5-.95-3-.95h-10.42v-3.37h10.17c2.27,0,3.87,.58,5.07,1.62,1.57,1.37,2.5,3.5,2.5,5.82s-.92,4.45-2.5,5.82c-1.2,1.05-2.8,1.62-5.07,1.62h-10.17v-3.37h10.42c1.5,0,2.35-.35,3-.95,.83-.75,1.33-1.87,1.33-3.12s-.5-2.37-1.33-3.12Z" fill="#071b3f"/><path d="M179.64,53.64h3.62v-5.62h3v5.62h4.87v-7.37h3v10.75h-17.5v-10.5h3v7.12Z" fill="#071b3f"/></g></svg>