<?xml version="1.0" encoding="UTF-8"?><svg id="a" xmlns="http://www.w3.org/2000/svg" viewBox="0 0 345 190"><path id="b" d="M345,0V190H0V0H345Z" fill="#e1ffec"/><path id="c" d="M80,0V190H0V0H80Z" fill="#1f69ff"/><path id="d" d="M79.8,190.46V.46h13V190.46h-13Z" fill="#0c3081"/><g><path d="M146.64,165.44c0-1.97,.47-3.07,1.22-3.92,.85-.98,2.1-1.62,3.52-1.62,1.15,0,2.32,.55,2.93,1.12,.77-1.55,2.52-2.62,4.47-2.62,1.47,0,2.82,.62,3.78,1.6,.97,.98,1.57,2.33,1.57,4.57v6.82h-17.5v-5.95Zm3.57-1.67c-.4,.35-.62,.85-.62,1.92v2.32h3.82v-2.32c0-1.08-.22-1.58-.62-1.92-.35-.33-.82-.5-1.3-.5s-.93,.17-1.28,.5Zm10.97,.97c0-1.2-.3-1.87-.8-2.32-.45-.42-1.05-.65-1.7-.65s-1.22,.22-1.67,.65c-.5,.45-.8,1.12-.8,2.32v3.27h4.97v-3.27Z" fill="#071b3f"/><path d="M164.39,147.64c0,5.02-3.8,8.9-9,8.9s-9-3.87-9-8.9,3.8-8.9,9-8.9,9,3.87,9,8.9Zm-3,0c0-3.22-2.7-5.52-6-5.52s-6,2.3-6,5.52,2.7,5.52,6,5.52,6-2.3,6-5.52Z" fill="#071b3f"/><path d="M164.14,138.46l-17.5-7.25v-2.5l17.5-7.25v3.57l-3.88,1.6v6.75l3.88,1.6v3.47Zm-6.87-6.32v-4.27l-5.38,2.1,5.38,2.17Z" fill="#071b3f"/><path d="M156.19,110.86l7.95-6.02v4.05l-7.75,5.8v1.27h7.75v3.37h-17.5v-6.67c0-2.1,.78-3.5,1.95-4.37,.8-.6,1.8-.95,2.88-.95,2.25,0,4.05,1.3,4.72,3.52Zm-2.67,2.32c0-1.12-.28-1.67-.7-2.02-.35-.28-.8-.45-1.28-.45s-.9,.17-1.25,.45c-.42,.35-.7,.9-.7,2.02v2.77h3.92v-2.77Z" fill="#071b3f"/><path d="M146.64,97.16c0-2.77,.6-4.6,1.65-6.02,1.6-2.15,4.2-3.47,7.1-3.47s5.5,1.32,7.1,3.47c1.05,1.42,1.65,3.25,1.65,6.02v6h-17.5v-6Zm4.95-4.85c-1.22,.98-1.95,2.4-1.95,4.47v3h11.5v-3c0-2.08-.72-3.5-1.95-4.47-1-.8-2.35-1.27-3.8-1.27s-2.8,.47-3.8,1.27Z" fill="#071b3f"/><path d="M146.64,87.11v-3.47l11.05-3.6-11.05-3.75v-2.47l11.1-3.77-11.1-3.67v-3.37l17.5,5.75v2.47l-11.32,3.82,11.32,3.85v2.47l-17.5,5.75Z" fill="#071b3f"/><path d="M164.14,63.81l-17.5-7.25v-2.5l17.5-7.25v3.57l-3.88,1.6v6.75l3.88,1.6v3.47Zm-6.87-6.32v-4.27l-5.38,2.1,5.38,2.17Z" fill="#071b3f"/><path d="M146.64,44.68v-3.37h14.5v-7.37h3v10.75h-17.5Z" fill="#071b3f"/><path d="M155.66,27.99h8.47v3.37h-17.5v-3.37h7l-7-6.67v-4.32l8.05,7.7,9.45-8.2v4.27l-8.47,7.22Z" fill="#071b3f"/></g></svg>