<?xml version="1.0" encoding="UTF-8"?><svg id="a" xmlns="http://www.w3.org/2000/svg" viewBox="0 0 190 345"><path id="b" d="M190,345H0V0H190V345Z" fill="#e1ffec"/><path id="c" d="M189.61,93.27H-.39v-13H189.61v13Z" fill="#0c3081"/><path id="d" d="M190,80H0V0H190V80Z" fill="#1d49aa"/><g><path d="M23.84,143.38c-1.22-1.17-2.7-2.05-4.65-2.05-3.5,0-5.8,2.7-5.8,6s2.22,6,5.82,6c2.07,0,3.5-.78,5-2.38l2.18,1.9c-1.6,2.08-4.15,3.47-7.17,3.47-5.4,0-9.2-3.8-9.2-9s3.87-9,9.15-9c2.78,0,5.15,1.28,6.72,3l-2.05,2.05Z" fill="#071b3f"/><path d="M35.77,156.33c-5.02,0-8.9-3.8-8.9-9s3.88-9,8.9-9,8.9,3.8,8.9,9-3.88,9-8.9,9Zm0-3c3.22,0,5.52-2.7,5.52-6s-2.3-6-5.52-6-5.52,2.7-5.52,6,2.3,6,5.52,6Z" fill="#071b3f"/><path d="M62.31,156.08h-2.5l-9.3-11.35v11.35h-3.32v-17.5h2.5l9.3,11.35v-11.35h3.32v17.5Z" fill="#071b3f"/><path d="M81.01,156.08h-2.5l-9.3-11.35v11.35h-3.32v-17.5h2.5l9.3,11.35v-11.35h3.32v17.5Z" fill="#071b3f"/><path d="M87.96,141.58v3.62h5.62v3h-5.62v4.87h7.37v3h-10.75v-17.5h10.5v3h-7.12Z" fill="#071b3f"/><path d="M110.24,143.38c-1.22-1.17-2.7-2.05-4.65-2.05-3.5,0-5.8,2.7-5.8,6s2.22,6,5.82,6c2.08,0,3.5-.78,5-2.38l2.17,1.9c-1.6,2.08-4.15,3.47-7.17,3.47-5.4,0-9.2-3.8-9.2-9s3.88-9,9.15-9c2.77,0,5.15,1.28,6.72,3l-2.05,2.05Z" fill="#071b3f"/><path d="M125.71,138.58v3h-4.62v14.5h-3.37v-14.5h-4.62v-3h12.62Z" fill="#071b3f"/><path d="M127.77,138.58h3.38v17.5h-3.38v-17.5Z" fill="#071b3f"/><path d="M147.49,143.38c-1.22-1.17-2.7-2.05-4.65-2.05-3.5,0-5.8,2.7-5.8,6s2.22,6,5.82,6c2.08,0,3.5-.78,5-2.38l2.17,1.9c-1.6,2.08-4.15,3.47-7.17,3.47-5.4,0-9.2-3.8-9.2-9s3.88-9,9.15-9c2.77,0,5.15,1.28,6.72,3l-2.05,2.05Z" fill="#071b3f"/><path d="M162.24,152c.6-.65,.95-1.5,.95-3v-10.42h3.38v10.17c0,2.27-.58,3.87-1.62,5.07-1.38,1.57-3.5,2.5-5.82,2.5s-4.45-.92-5.82-2.5c-1.05-1.2-1.62-2.8-1.62-5.07v-10.17h3.37v10.42c0,1.5,.35,2.35,.95,3,.75,.83,1.87,1.33,3.12,1.33s2.38-.5,3.12-1.33Z" fill="#071b3f"/><path d="M181.04,138.58v3h-4.62v14.5h-3.37v-14.5h-4.62v-3h12.62Z" fill="#071b3f"/><path d="M47.38,186.08l7.25-17.5h2.5l7.25,17.5h-3.57l-1.6-3.87h-6.75l-1.6,3.87h-3.47Zm6.32-6.87h4.27l-2.1-5.37-2.17,5.37Z" fill="#071b3f"/><path d="M62.6,168.58h3.5l4.7,11.92,4.6-11.92h3.45l-6.87,17.5h-2.5l-6.87-17.5Z" fill="#071b3f"/><path d="M83.95,171.58v3.62h5.62v3h-5.62v4.87h7.37v3h-10.75v-17.5h10.5v3h-7.12Z" fill="#071b3f"/><path d="M109.05,186.08h-2.5l-9.3-11.35v11.35h-3.32v-17.5h2.5l9.3,11.35v-11.35h3.32v17.5Z" fill="#071b3f"/><path d="M123,182c.6-.65,.95-1.5,.95-3v-10.42h3.37v10.17c0,2.27-.57,3.87-1.62,5.07-1.37,1.57-3.5,2.5-5.82,2.5s-4.45-.92-5.82-2.5c-1.05-1.2-1.62-2.8-1.62-5.07v-10.17h3.38v10.42c0,1.5,.35,2.35,.95,3,.75,.83,1.88,1.33,3.12,1.33s2.37-.5,3.12-1.33Z" fill="#071b3f"/><path d="M134.08,171.58v3.62h5.62v3h-5.62v4.87h7.37v3h-10.75v-17.5h10.5v3h-7.12Z" fill="#071b3f"/></g></svg>