<?xml version="1.0" encoding="UTF-8"?><svg id="a" xmlns="http://www.w3.org/2000/svg" viewBox="0 0 342.89 342.89"><rect x="1.33" y=".76" width="341.19" height="340.98" transform="translate(.67 343.17) rotate(-90)" fill="#156cd3"/><g><path d="M214.45,264.61l21.19-37.09-43.96,17.35,17.51-43.81-37.41,20.87-11.63-14.83,80.32-40.79-21.5,51.1,52.13-20.47-42.13,78.98-14.52-11.31Zm-59.36-62.22l-14.74-11.88,58.2-58.2,14.74,11.88-58.2,58.2Zm-27.65-19.91l-1.07-69.8-30.57,30.57-14.6-11.23,62.33-62.33,.66,70.06,31.25-31.25,14.34,11.64-62.33,62.33Zm-21.67-110.61l.52-17.84,17.84-.52-.52,17.84-17.84,.52Zm-34.19,48.68l-15.8-11.76,41.46-39.57,13.09,10.22-38.74,41.1Z" fill="#0e4072"/><g><path d="M213.45,279.61l21.19-37.09-43.96,17.35,17.51-43.81-37.41,20.87-11.63-14.83,80.32-40.79-21.5,51.1,52.13-20.47-42.13,78.98-14.52-11.31Z" fill="#fff"/><path d="M154.09,217.38l-14.74-11.88,58.2-58.2,14.74,11.88-58.2,58.2Z" fill="#fff"/><path d="M126.44,197.48l-1.07-69.8-30.57,30.57-14.6-11.23,62.33-62.33,.66,70.06,31.25-31.25,14.34,11.64-62.33,62.33Z" fill="#fff"/><path d="M70.57,135.55l-15.8-11.76,41.46-39.57,13.09,10.22-38.74,41.1Zm34.19-48.68l.52-17.84,17.84-.52-.52,17.84-17.84,.52Z" fill="#fff"/></g></g></svg>