<?xml version="1.0" encoding="UTF-8"?><svg id="a" xmlns="http://www.w3.org/2000/svg" viewBox="0 0 345 190"><path id="b" d="M345,0V190H0V0H345Z" fill="#e1ffec"/><g><path d="M75.16,91.92c.36-10.79,8.8-24.38,19.74-27.5,27.5-9.16,50.95,35.44,70.36,50.98,18.04,17.89,46.94-7.32,34.84-29.77-5.2-9.71-19.06-16.73-27.31-10.21-8.52,11.11-19.77-6-19.88-14.05,2.63-18.33,40.1-16.41,50.57-8.13,59.49,40.33-5.66,128.82-57.69,78.02-12.37-12.9-22.27-26.9-34.73-39.66-4.81-5.76-12.25,.7-11.54,4.18,.42,3.51-.2,7.69-2.8,9.39-6.8,3.92-22.07-3.79-21.56-13.23Z" fill="#0c3081"/><path d="M198.66,117.71c23.76-18.9-3.56-63.52-29.35-45.78-3.37,3.7-5.19,2.03-7.36-1.25-6.74-10.17-5.84-12.9,5.68-16.55,24.46-7.74,47.58,6.46,53.61,32.92,10.46,41.13-44.69,73.16-72.03,40.65-12.17-12.68-22.53-27.23-34.85-39.78-6.78-7.88-20.73-1.76-19.61,8.93,.37,4.76-1.02,5.26-5.01,3.77-10.48-3.91-11.72-6.48-7.52-17.4,4.97-12.92,19.91-19.42,31.34-12.17,26.05,13.7,53.41,79.05,85.1,46.67Z" fill="#e64f00"/><path d="M31,94.94c.21-25.31,37.2-24.97,37.04,.39-1.38,24.7-36.34,25.14-37.04-.39Z" fill="#0c3081"/><path d="M49.58,80.76c18.24,.46,17.42,28.34-.57,28.51-17.35-.65-17.3-28.49,.57-28.51Z" fill="#e64f00"/></g><g><path d="M276.74,57.07c1.16-1.21,2.02-2.66,2.02-4.58,0-3.45-2.66-5.72-5.91-5.72s-5.91,2.19-5.91,5.74c0,2.05,.76,3.45,2.34,4.93l-1.87,2.14c-2.04-1.58-3.43-4.09-3.43-7.07,0-5.32,3.75-9.07,8.87-9.07s8.87,3.82,8.87,9.02c0,2.74-1.26,5.08-2.96,6.63l-2.02-2.02Z" fill="#071b3f"/><path d="M271.98,73.58v-8.26h-7.76v-3.33h17.25v3.33h-6.53v8.26h6.53v3.33h-17.25v-3.33h7.76Z" fill="#071b3f"/><path d="M264.22,79.13l17.25,7.15v2.46l-17.25,7.15v-3.52l3.82-1.58v-6.65l-3.82-1.58v-3.43Zm6.78,6.24v4.21l5.3-2.07-5.3-2.14Z" fill="#071b3f"/><path d="M264.22,113.02v-2.46l11.19-9.17h-11.19v-3.28h17.25v2.46l-11.19,9.17h11.19v3.28h-17.25Z" fill="#071b3f"/><path d="M276.74,129.76c1.16-1.21,2.02-2.66,2.02-4.58,0-3.45-2.66-5.72-5.91-5.72s-5.91,2.19-5.91,5.74c0,2.05,.76,3.45,2.34,4.93l-1.87,2.14c-2.04-1.58-3.43-4.09-3.43-7.07,0-5.32,3.75-9.07,8.87-9.07s8.87,3.82,8.87,9.02c0,2.74-1.26,5.08-2.96,6.63l-2.02-2.02Z" fill="#071b3f"/><path d="M278.51,138.02h-3.57v5.54h-2.96v-5.54h-4.81v7.27h-2.96v-10.6h17.25v10.35h-2.96v-7.02Z" fill="#071b3f"/></g></svg>