<?xml version="1.0" encoding="UTF-8"?><svg id="a" xmlns="http://www.w3.org/2000/svg" viewBox="0 0 190 345"><path id="b" d="M190,0H0V345H190V0Z" fill="#e1ffec"/><path id="c" d="M190,265H0v80H190v-80Z" fill="#fa0"/><path id="d" d="M190,265.27H0v-13H190v13Z" fill="#0c3081"/><g><path d="M145.52,214.86h-3.5l-4.7-11.92-4.6,11.92h-3.45l6.87-17.5h2.5l6.87,17.5Z" fill="#071b3f"/><path d="M123.3,211.86v-3.62h-5.62v-3h5.62v-4.87h-7.37v-3h10.75v17.5h-10.5v-3h7.12Z" fill="#071b3f"/><path d="M101.35,214.86v-3h4.62v-14.5h3.38v14.5h4.62v3h-12.62Z" fill="#071b3f"/><path d="M83.3,197.37h2.5l9.3,11.35v-11.35h3.32v17.5h-2.5l-9.3-11.35v11.35h-3.32v-17.5Z" fill="#071b3f"/><path d="M71,197.12c5.02,0,8.9,3.8,8.9,9s-3.87,9-8.9,9-8.9-3.8-8.9-9,3.87-9,8.9-9Zm0,3c-3.22,0-5.52,2.7-5.52,6s2.3,6,5.52,6,5.52-2.7,5.52-6-2.3-6-5.52-6Z" fill="#071b3f"/><path d="M50.23,205.31l-6.02-7.95h4.05l5.8,7.75h1.27v-7.75h3.37v17.5h-6.67c-2.1,0-3.5-.78-4.37-1.95-.6-.8-.95-1.8-.95-2.87,0-2.25,1.3-4.05,3.52-4.72Zm2.32,2.67c-1.12,0-1.67,.28-2.02,.7-.28,.35-.45,.8-.45,1.27s.17,.9,.45,1.25c.35,.42,.9,.7,2.02,.7h2.77v-3.92h-2.77Z" fill="#071b3f"/><path d="M145.06,167.37l-7.25,17.5h-2.5l-7.25-17.5h3.57l1.6,3.87h6.75l1.6-3.87h3.47Zm-6.32,6.87h-4.27l2.1,5.37,2.17-5.37Z" fill="#071b3f"/><path d="M128.96,184.86h-3.5l-4.7-11.92-4.6,11.92h-3.45l6.87-17.5h2.5l6.87,17.5Z" fill="#071b3f"/><path d="M106.74,181.86v-3.62h-5.62v-3h5.62v-4.87h-7.37v-3h10.75v17.5h-10.5v-3h7.12Z" fill="#071b3f"/><path d="M80.77,167.37h2.5l9.3,11.35v-11.35h3.32v17.5h-2.5l-9.3-11.35v11.35h-3.32v-17.5Z" fill="#071b3f"/><path d="M65.94,171.44c-.6,.65-.95,1.5-.95,3v10.42h-3.37v-10.17c0-2.27,.58-3.87,1.62-5.07,1.37-1.57,3.5-2.5,5.82-2.5s4.45,.92,5.82,2.5c1.05,1.2,1.62,2.8,1.62,5.07v10.17h-3.37v-10.42c0-1.5-.35-2.35-.95-3-.75-.83-1.87-1.33-3.12-1.33s-2.37,.5-3.12,1.33Z" fill="#071b3f"/><path d="M53.99,181.86v-3.62h-5.62v-3h5.62v-4.87h-7.37v-3h10.75v17.5h-10.5v-3h7.12Z" fill="#071b3f"/></g></svg>