<?xml version="1.0" encoding="UTF-8"?><svg id="a" xmlns="http://www.w3.org/2000/svg" viewBox="0 0 345 190"><path id="b" d="M345,0V190H0V0H345Z" fill="#fff"/><path id="c" d="M80,0V190H0V0H80Z" fill="#008558"/><path id="d" d="M79.8,190V0h13V190h-13Z" fill="#6138f5"/><g><path d="M164.14,122.61v2.5l-11.35,9.3h11.35v3.32h-17.5v-2.5l11.35-9.3h-11.35v-3.32h17.5Z" fill="#071b3f"/><path d="M164.39,110.31c0,5.02-3.8,8.9-9,8.9s-9-3.87-9-8.9,3.8-8.9,9-8.9,9,3.87,9,8.9Zm-3,0c0-3.22-2.7-5.52-6-5.52s-6,2.3-6,5.52,2.7,5.52,6,5.52,6-2.3,6-5.52Z" fill="#071b3f"/><path d="M156.19,89.53l7.95-6.02v4.05l-7.75,5.8v1.27h7.75v3.37h-17.5v-6.67c0-2.1,.78-3.5,1.95-4.37,.8-.6,1.8-.95,2.88-.95,2.25,0,4.05,1.3,4.72,3.52Zm-2.67,2.32c0-1.12-.28-1.67-.7-2.02-.35-.28-.8-.45-1.28-.45s-.9,.17-1.25,.45c-.42,.35-.7,.9-.7,2.02v2.77h3.92v-2.77Z" fill="#071b3f"/><path d="M146.64,70.76h3v4.62h14.5v3.38h-14.5v4.62h-3v-12.62Z" fill="#071b3f"/><path d="M156.26,56.08v8.37h7.87v3.37h-17.5v-3.37h6.62v-8.37h-6.62v-3.37h17.5v3.37h-7.87Z" fill="#071b3f"/><path d="M181.44,144.94c-1.18,1.22-2.05,2.7-2.05,4.65,0,3.5,2.7,5.8,6,5.8s6-2.22,6-5.82c0-2.08-.78-3.5-2.38-5l1.9-2.17c2.07,1.6,3.47,4.15,3.47,7.17,0,5.4-3.8,9.2-9,9.2s-9-3.87-9-9.15c0-2.77,1.28-5.15,3-6.72l2.05,2.05Z" fill="#071b3f"/><path d="M194.14,142.04l-17.5-7.25v-2.5l17.5-7.25v3.57l-3.88,1.6v6.75l3.88,1.6v3.47Zm-6.87-6.32v-4.27l-5.38,2.1,5.38,2.17Z" fill="#071b3f"/><path d="M186.19,114.07l7.95-6.02v4.05l-7.75,5.8v1.27h7.75v3.37h-17.5v-6.67c0-2.1,.78-3.5,1.95-4.37,.8-.6,1.8-.95,2.88-.95,2.25,0,4.05,1.3,4.72,3.52Zm-2.67,2.32c0-1.12-.28-1.67-.7-2.02-.35-.28-.8-.45-1.28-.45s-.9,.17-1.25,.45c-.42,.35-.7,.9-.7,2.02v2.77h3.92v-2.77Z" fill="#071b3f"/><path d="M194.39,98.62c0,5.02-3.8,8.9-9,8.9s-9-3.87-9-8.9,3.8-8.9,9-8.9,9,3.87,9,8.9Zm-3,0c0-3.22-2.7-5.52-6-5.52s-6,2.3-6,5.52,2.7,5.52,6,5.52,6-2.3,6-5.52Z" fill="#071b3f"/><path d="M176.64,86.32v-3.37h14.5v-7.37h3v10.75h-17.5Z" fill="#071b3f"/><path d="M176.64,72.62v-3.37h17.5v3.37h-17.5Z" fill="#071b3f"/><path d="M194.14,49.67v2.5l-11.35,9.3h11.35v3.32h-17.5v-2.5l11.35-9.3h-11.35v-3.32h17.5Z" fill="#071b3f"/><path d="M194.14,47.17l-17.5-7.25v-2.5l17.5-7.25v3.57l-3.88,1.6v6.75l3.88,1.6v3.47Zm-6.87-6.32v-4.27l-5.38,2.1,5.38,2.17Z" fill="#071b3f"/><path d="M224.14,144.93l-17.5-7.25v-2.5l17.5-7.25v3.57l-3.88,1.6v6.75l3.88,1.6v3.47Zm-6.87-6.32v-4.27l-5.38,2.1,5.38,2.17Z" fill="#071b3f"/><path d="M206.64,128.83v-3.5l11.92-4.7-11.92-4.6v-3.45l17.5,6.87v2.5l-17.5,6.87Z" fill="#071b3f"/><path d="M209.64,106.6h3.62v-5.62h3v5.62h4.87v-7.37h3v10.75h-17.5v-10.5h3v7.12Z" fill="#071b3f"/><path d="M224.14,80.63v2.5l-11.35,9.3h11.35v3.32h-17.5v-2.5l11.35-9.3h-11.35v-3.32h17.5Z" fill="#071b3f"/><path d="M220.06,65.81c-.65-.6-1.5-.95-3-.95h-10.42v-3.37h10.17c2.28,0,3.88,.58,5.07,1.62,1.57,1.37,2.5,3.5,2.5,5.82s-.93,4.45-2.5,5.82c-1.2,1.05-2.8,1.62-5.07,1.62h-10.17v-3.37h10.42c1.5,0,2.35-.35,3-.95,.82-.75,1.32-1.87,1.32-3.12s-.5-2.37-1.32-3.12Z" fill="#071b3f"/><path d="M209.64,53.86h3.62v-5.62h3v5.62h4.87v-7.37h3v10.75h-17.5v-10.5h3v7.12Z" fill="#071b3f"/></g></svg>