<?xml version="1.0" encoding="UTF-8"?><svg id="a" xmlns="http://www.w3.org/2000/svg" viewBox="0 0 345 190"><path id="b" d="M345,0V190H0V0H345Z" fill="#fff"/><path id="c" d="M80,0V190H0V0H80Z" fill="#008558"/><path id="d" d="M79.8,190V0h13V190h-13Z" fill="#6138f5"/><g><path d="M157.01,129.67h7.12v3.37h-17.5v-6.55c0-2.45,.8-3.95,2.05-4.9,.88-.67,1.95-1.05,3.12-1.05s2.27,.38,3.15,1.05c1.25,.95,2.05,2.45,2.05,4.9v3.17Zm-2.95-2.75c0-1.42-.3-2.05-.78-2.45-.4-.35-.9-.55-1.47-.55s-1.05,.2-1.45,.55c-.47,.4-.78,1.03-.78,2.45v2.75h4.47v-2.75Z" fill="#071b3f"/><path d="M149.64,114.19h3.62v-5.62h3v5.62h4.87v-7.37h3v10.75h-17.5v-10.5h3v7.12Z" fill="#071b3f"/><path d="M164.14,88.22v2.5l-11.35,9.3h11.35v3.32h-17.5v-2.5l11.35-9.3h-11.35v-3.32h17.5Z" fill="#071b3f"/><path d="M164.14,68.65v2.5l-11.35,9.3h11.35v3.32h-17.5v-2.5l11.35-9.3h-11.35v-3.32h17.5Z" fill="#071b3f"/><path d="M156.26,56.92h2.75v7.75h-2.75v-7.75Z" fill="#071b3f"/><path d="M189.69,152c.97-1.1,1.7-2.65,1.7-4.25,0-1.35-.75-2.7-2.27-2.7-2.08,0-2.33,3.25-3.68,5.57-.8,1.35-2.1,2.42-4.05,2.42-3.17,0-5-2.7-5-5.77,0-1.8,.6-3.57,1.75-5.05l2.37,1.67c-.65,.92-1.12,2.05-1.12,3.27,0,1.65,.9,2.5,1.87,2.5,1.78,0,2.1-3.07,3.47-5.42,.82-1.42,2.15-2.57,4.35-2.57,3.1,0,5.3,2.57,5.3,6.02,0,2.42-.85,4.47-2.57,6.22l-2.12-1.92Z" fill="#071b3f"/><path d="M186.21,131.25h7.92v3.37h-7.92l-9.57,6v-3.85l6.22-3.87-6.22-3.87v-3.77l9.57,6Z" fill="#071b3f"/><path d="M176.64,122.43v-3.37h14.5v-7.37h3v10.75h-17.5Z" fill="#071b3f"/><path d="M176.64,112.68v-3.5l11.92-4.7-11.92-4.6v-3.45l17.5,6.87v2.5l-17.5,6.87Z" fill="#071b3f"/><path d="M194.14,97.33l-17.5-7.25v-2.5l17.5-7.25v3.57l-3.88,1.6v6.75l3.88,1.6v3.47Zm-6.87-6.32v-4.27l-5.38,2.1,5.38,2.17Z" fill="#071b3f"/><path d="M194.14,62.71v2.5l-11.35,9.3h11.35v3.32h-17.5v-2.5l11.35-9.3h-11.35v-3.32h17.5Z" fill="#071b3f"/><path d="M176.64,58.25v-3.37h17.5v3.37h-17.5Z" fill="#071b3f"/><path d="M194.14,52.38l-17.5-7.25v-2.5l17.5-7.25v3.57l-3.88,1.6v6.75l3.88,1.6v3.47Zm-6.87-6.32v-4.27l-5.38,2.1,5.38,2.17Z" fill="#071b3f"/><path d="M224.14,144.93l-17.5-7.25v-2.5l17.5-7.25v3.57l-3.88,1.6v6.75l3.88,1.6v3.47Zm-6.87-6.32v-4.27l-5.38,2.1,5.38,2.17Z" fill="#071b3f"/><path d="M206.64,128.83v-3.5l11.92-4.7-11.92-4.6v-3.45l17.5,6.87v2.5l-17.5,6.87Z" fill="#071b3f"/><path d="M209.64,106.6h3.62v-5.62h3v5.62h4.87v-7.37h3v10.75h-17.5v-10.5h3v7.12Z" fill="#071b3f"/><path d="M224.14,80.63v2.5l-11.35,9.3h11.35v3.32h-17.5v-2.5l11.35-9.3h-11.35v-3.32h17.5Z" fill="#071b3f"/><path d="M220.06,65.81c-.65-.6-1.5-.95-3-.95h-10.42v-3.37h10.17c2.28,0,3.88,.58,5.07,1.62,1.57,1.37,2.5,3.5,2.5,5.82s-.93,4.45-2.5,5.82c-1.2,1.05-2.8,1.62-5.07,1.62h-10.17v-3.37h10.42c1.5,0,2.35-.35,3-.95,.82-.75,1.32-1.87,1.32-3.12s-.5-2.37-1.32-3.12Z" fill="#071b3f"/><path d="M209.64,53.86h3.62v-5.62h3v5.62h4.87v-7.37h3v10.75h-17.5v-10.5h3v7.12Z" fill="#071b3f"/></g></svg>