<?xml version="1.0" encoding="UTF-8"?><svg id="a" xmlns="http://www.w3.org/2000/svg" viewBox="0 0 345 190"><path id="b" d="M345,0V190H0V0H345Z" fill="#fff"/><g><g><path d="M220.82,122.26s9.84,49.9,10.55,49.9,1.79-.36,1.79-.36l18.42-73.69-14.85-48.11s-1.25-.89-1.79-.54-2.5,1.79-2.5,1.79l-11.63,71.01Z" fill="#fff"/><path d="M252.25,98.11c0,.05,0,.11-.02,.16l-18.42,73.69c-.06,.22-.22,.4-.44,.47-.12,.04-1.2,.39-2,.39-.63,0-.77-.46-1.31-2.65-.32-1.3-.76-3.21-1.3-5.67-.91-4.14-2.12-9.92-3.6-17.16-2.52-12.33-4.98-24.83-5.01-24.95-.02-.08-.02-.16,0-.24l11.63-71.01c.03-.17,.12-.33,.27-.43,.08-.06,1.98-1.44,2.53-1.8,.83-.55,2.06,.2,2.55,.55,.12,.09,.21,.21,.25,.35l14.85,48.11c.02,.06,.03,.13,.03,.2Zm-19.65,73.16l18.28-73.14-14.72-47.71c-.34-.21-.72-.38-.89-.38-.45,.31-1.71,1.21-2.22,1.58l-11.56,70.61c3.61,18.33,9.15,45.62,10.28,49.2,.28-.04,.58-.12,.82-.18Z" fill="#071b3f"/></g><g><polygon points="240.32 44.99 194.71 15.84 183.08 21.74 231.91 52.33 240.32 44.99" fill="#009dcd"/><path d="M240.99,44.99c0,.19-.08,.38-.23,.51l-8.41,7.33c-.22,.19-.55,.22-.8,.06l-48.83-30.58c-.2-.13-.32-.35-.31-.6,.01-.24,.15-.46,.37-.57l11.63-5.9c.21-.11,.46-.09,.66,.03l45.61,29.15c.18,.11,.29,.3,.31,.52,0,.02,0,.03,0,.05Zm-9.14,6.5l7.36-6.42-44.53-28.47-10.23,5.19,47.4,29.69Z" fill="#071b3f"/></g><g><polygon points="218.85 124.76 175.39 99.54 183.08 21.74 231.91 52.33 218.85 124.76" fill="#fff"/><path d="M232.58,52.33s0,.08-.01,.12l-13.06,72.44c-.04,.22-.18,.4-.38,.49-.2,.09-.43,.08-.62-.03l-43.46-25.22c-.23-.13-.36-.38-.33-.65l7.69-77.8c.02-.23,.16-.43,.37-.54,.21-.1,.45-.09,.65,.03l48.83,30.58c.2,.12,.31,.34,.31,.57Zm-14.22,71.38l12.81-71.05-47.53-29.77-7.54,76.3,42.26,24.52Z" fill="#071b3f"/></g><g><polygon points="216.35 119.76 178.79 97.58 185.94 27.64 227.8 53.76 216.35 119.76" fill="#fff"/><path d="M228.47,53.76s0,.08,0,.11l-11.45,66c-.04,.22-.18,.4-.38,.49-.2,.09-.43,.08-.62-.03l-37.56-22.18c-.23-.13-.35-.39-.33-.65l7.15-69.93c.02-.23,.16-.43,.37-.53,.21-.1,.45-.09,.65,.03l41.85,26.11c.2,.12,.32,.34,.32,.57Zm-12.61,64.93l11.2-64.6-40.56-25.3-7,68.44,36.35,21.47Z" fill="#071b3f"/></g><g><polygon points="217.24 112.42 185.59 94.72 192.74 31.76 227.8 53.76 217.24 112.42" fill="#009dcd"/><path d="M228.47,53.76s0,.08-.01,.12l-10.55,58.66c-.04,.21-.18,.4-.37,.49-.2,.09-.42,.08-.61-.02l-31.66-17.71c-.24-.13-.37-.39-.34-.66l7.15-62.96c.03-.23,.17-.43,.38-.53,.21-.1,.45-.09,.65,.04l35.06,22c.2,.12,.31,.34,.31,.57Zm-11.72,57.62l10.31-57.29-33.77-21.19-6.98,61.46,30.45,17.03Z" fill="#071b3f"/></g><g><polygon points="192.29 27.47 201.59 20.67 194.44 16.38 184.24 22.28 192.29 27.47" fill="#fff"/><path d="M202,20.67c0,.13-.06,.25-.16,.32l-9.3,6.8c-.13,.1-.32,.1-.46,.01l-8.05-5.19c-.12-.08-.19-.21-.18-.35,0-.14,.08-.27,.2-.34l10.19-5.9c.13-.07,.28-.07,.41,0l7.15,4.29c.12,.07,.19,.19,.19,.33v.02Zm-9.72,6.31l8.59-6.28-6.43-3.86-9.42,5.45,7.26,4.68Z" fill="#071b3f"/></g><circle cx="193.37" cy="21.12" r=".8" fill="#071b3f"/><g><polygon points="231.19 51.61 240.49 44.81 233.34 40.52 223.15 46.42 231.19 51.61" fill="#fff"/><path d="M240.9,44.81c0,.13-.06,.25-.16,.32l-9.3,6.8c-.13,.1-.32,.1-.46,.01l-8.05-5.19c-.12-.08-.19-.2-.18-.35,0-.14,.08-.27,.2-.34l10.19-5.9c.13-.07,.28-.07,.41,0l7.15,4.29c.12,.07,.19,.19,.19,.33v.02Zm-9.72,6.31l8.59-6.28-6.43-3.86-9.42,5.45,7.26,4.68Z" fill="#071b3f"/></g><circle cx="232" cy="45.53" r=".8" fill="#071b3f"/><g><polygon points="210.27 38.47 219.57 31.67 212.41 27.38 202.22 33.28 210.27 38.47" fill="#fff"/><path d="M219.97,31.67c0,.13-.06,.25-.16,.32l-9.3,6.8c-.13,.1-.32,.1-.46,.01l-8.05-5.19c-.12-.08-.19-.2-.18-.35,0-.14,.08-.27,.2-.34l10.19-5.9c.13-.07,.28-.07,.41,0l7.15,4.29c.12,.07,.19,.19,.19,.33v.02Zm-9.72,6.31l8.59-6.28-6.43-3.86-9.42,5.45,7.26,4.68Z" fill="#071b3f"/></g><circle cx="211.07" cy="32.12" r=".8" fill="#071b3f"/><path d="M248.14,98.83s0,.1-.02,.15c-.04,.16-3.66,16.37-7.31,32.42-2.14,9.43-3.87,16.95-5.14,22.37-2.45,10.46-2.54,10.52-2.85,10.73-.19,.13-.44,.15-.65,.06-.43-.18-.55-.23-2.06-7.73-.77-3.8-1.79-9.07-3.04-15.67-2.13-11.24-4.21-22.59-4.23-22.71-.01-.08-.01-.15,0-.23l10.37-64.92c.05-.31,.31-.54,.62-.56,.31-.02,.6,.18,.69,.48l13.59,45.43c.02,.06,.03,.13,.03,.19Zm-15.69,62.63c2.38-9.48,10.83-46.99,14.33-62.61l-12.7-42.45-9.89,61.91c2.73,14.91,6.74,36.31,8.27,43.14Z" fill="#071b3f"/><g><g><path d="M248.01,107.41c-2.5,2.5-4.29,4.29-8.23,3.76-3.93-.54-11.09-4.83-13.77-7.33-2.68-2.5-5.54-6.08-6.98-6.08s-2.68,1.25-3.22,2.15-1.61,2.68-3.04,2.5c-1.43-.18-5.72-3.22-5.72-6.08s.36-3.93,0-5.01c-.36-1.07-2.33-2.86-2.33-4.11s1.61-3.22,1.61-4.65-.36-4.65,.36-5.72c.72-1.07,2.68-3.93,4.29-3.4,1.61,.54,5.19,5.01,6.44,5.01s4.11-1.25,4.83-2.5c.72-1.25,4.29-6.44,5.9-7.33,1.61-.89,5.37-3.22,6.98-3.04s6.98,.72,8.41,2.32c1.43,1.61,9.48,15.74,9.48,20.39s-.72,11.63-1.61,13.24c-.89,1.61-3.4,5.9-3.4,5.9Z" fill="#fff"/><path d="M253.69,88.28c0,4.29-.66,11.7-1.69,13.56-.89,1.6-3.38,5.87-3.41,5.91-.03,.05-.06,.1-.11,.14-2.53,2.53-4.53,4.53-8.79,3.95-4.07-.56-11.39-4.94-14.14-7.51-.81-.76-1.63-1.6-2.42-2.42-1.42-1.47-3.37-3.48-4.1-3.48-1.14,0-2.21,1.09-2.64,1.82-.6,.99-1.83,3.06-3.7,2.82-1.73-.22-6.31-3.5-6.31-6.75,0-1.17,.06-2.04,.1-2.73,.06-.96,.1-1.54-.07-2.06-.11-.34-.51-.87-.9-1.4-.72-.97-1.46-1.97-1.46-2.93,0-.76,.4-1.59,.83-2.47,.38-.78,.78-1.6,.78-2.18,0-.3-.02-.69-.04-1.15-.09-2.15-.12-4.01,.51-4.95,.72-1.08,2.92-4.38,5.06-3.66,.91,.3,2.13,1.46,3.43,2.69,.88,.83,2.35,2.23,2.8,2.28,1.04,0,3.66-1.15,4.24-2.17,.69-1.21,4.35-6.58,6.16-7.59,.22-.12,.48-.27,.76-.43,2.64-1.51,5.13-2.85,6.61-2.69l.18,.02c3.31,.36,7.28,.98,8.65,2.53,.78,.87,3.17,4.86,5.37,9.2,1.95,3.84,4.28,8.98,4.28,11.64Zm-6.21,18.72c.34-.58,2.53-4.35,3.35-5.82,.76-1.36,1.53-7.88,1.53-12.91,0-1.84-1.51-5.86-4.13-11.03-2.23-4.39-4.56-8.21-5.18-8.91-.8-.9-3.43-1.6-7.8-2.08l-.18-.02c-1.17-.13-4.3,1.66-5.8,2.52-.29,.17-.55,.32-.78,.44-1.37,.76-4.85,5.68-5.65,7.08-.86,1.51-3.98,2.84-5.41,2.84-.88,0-1.98-1.01-3.72-2.65-1.03-.97-2.31-2.18-2.93-2.39-.35-.12-1.4-.05-3.52,3.13-.43,.65-.34,2.84-.28,4.15,.02,.47,.04,.87,.04,1.2,0,.89-.46,1.85-.91,2.77-.34,.7-.7,1.43-.7,1.88,0,.52,.66,1.41,1.2,2.13,.47,.63,.91,1.23,1.09,1.77,.26,.77,.21,1.49,.14,2.57-.05,.68-.1,1.52-.1,2.65,0,2.46,3.99,5.27,5.14,5.42,1,.12,1.93-1.43,2.38-2.18,.55-.92,1.97-2.47,3.79-2.47,1.23,0,2.72,1.48,5.06,3.89,.78,.81,1.59,1.64,2.37,2.37,2.64,2.47,9.7,6.65,13.4,7.16,3.57,.49,5.19-1.1,7.6-3.5Z" fill="#071b3f"/></g><g><path d="M241.03,136.39c-2.5-.89-3.76-2.5-4.65-3.4s-2.5-1.25-3.58-.18-1.97,2.5-2.5,1.43c-.54-1.07-1.61-3.22-1.43-4.29,.18-1.07-.89-2.68-.89-3.93s.36-2.5,.18-3.76c-.18-1.25-1.79-2.5-1.25-4.11,.54-1.61,0-3.4,1.43-3.76,1.43-.36,3.22-.36,4.47,.54,1.25,.89,3.04,2.33,3.93,1.07,.89-1.25,1.61-1.97,3.04-2.15s1.79-.36,3.04,0,6.26,2.5,6.44,5.01c.18,2.5-2.15,10.19-3.4,12.52-1.25,2.33-4.83,5.01-4.83,5.01Z" fill="#fff"/><path d="M249.94,119.13c0,2.88-2.22,10.22-3.49,12.57-1.31,2.43-4.87,5.11-5.02,5.23-.18,.14-.42,.17-.63,.1-2.3-.82-3.63-2.22-4.5-3.15-.14-.15-.27-.29-.39-.41-.35-.35-.84-.59-1.32-.63-.35-.04-.87,.01-1.31,.46-.21,.21-.42,.44-.62,.67-.69,.77-1.29,1.43-2.03,1.33-.27-.04-.65-.2-.92-.74-.83-1.65-1.69-3.51-1.49-4.7,.07-.4-.17-1.05-.39-1.68-.25-.71-.51-1.43-.51-2.14,0-.54,.06-1.07,.12-1.58,.08-.73,.16-1.42,.07-2.08-.05-.35-.29-.76-.54-1.2-.5-.86-1.11-1.93-.68-3.22,.16-.48,.21-1,.26-1.5,.11-1.04,.24-2.35,1.64-2.7,.92-.23,3.25-.63,5.02,.64l.27,.19c.74,.53,1.85,1.34,2.44,1.24,.08-.01,.18-.05,.29-.2,1.01-1.41,1.87-2.22,3.5-2.42,.27-.03,.49-.07,.7-.1,.91-.13,1.46-.21,2.61,.12,1.1,.31,6.71,2.55,6.92,5.61,0,.1,.01,.2,.01,.32Zm-9.02,16.5c.86-.68,3.39-2.77,4.35-4.57,1.19-2.21,3.49-9.83,3.32-12.15-.14-1.93-4.57-4.01-5.95-4.41-.88-.25-1.19-.2-2.05-.08-.21,.03-.45,.07-.73,.1-1.17,.15-1.74,.7-2.58,1.87-.29,.41-.7,.67-1.17,.75-1.14,.19-2.42-.74-3.44-1.48l-.26-.19c-.92-.65-2.38-.82-3.92-.43-.43,.11-.52,.42-.63,1.53-.06,.55-.12,1.17-.33,1.79-.24,.72,.14,1.37,.57,2.13,.3,.53,.62,1.08,.71,1.68,.12,.84,.03,1.64-.06,2.42-.06,.5-.11,.96-.11,1.43s.22,1.09,.43,1.69c.28,.79,.58,1.61,.45,2.36-.14,.84,.89,2.93,1.33,3.81,.22-.17,.56-.55,.8-.81,.21-.24,.43-.48,.67-.72,1.07-1.07,3.05-1.29,4.53,.18,.13,.13,.27,.28,.42,.43,.79,.83,1.85,1.95,3.64,2.68Z" fill="#071b3f"/></g></g><g><polygon points="233.88 53.4 247.47 97.76 232.45 163.93 232.09 169.48 231.37 172.16 276.8 172.16 302.02 99.9 280.2 50.36 238.89 48.57 239.78 45.89 232.8 51.97 233.88 53.4" fill="#fff"/><path d="M302.69,99.9c0,.07-.01,.15-.04,.22l-25.22,72.26c-.09,.27-.35,.45-.63,.45h-45.43c-.21,0-.4-.1-.53-.26-.13-.17-.17-.38-.12-.58l.7-2.62,.35-5.48s0-.07,.02-.11l14.98-66-13.51-44.07-1-1.34c-.21-.28-.17-.68,.1-.91l6.98-6.08c.23-.2,.56-.22,.81-.05,.25,.17,.36,.48,.26,.77l-.61,1.84,40.43,1.75c.26,.01,.48,.17,.58,.4l21.82,49.54c.04,.09,.06,.18,.06,.27Zm-26.37,71.59l24.97-71.56-21.55-48.92-40.9-1.77c-.21,0-.4-.12-.52-.29-.12-.17-.15-.39-.08-.59l.12-.35-4.65,4.05,.7,.93c.05,.06,.08,.13,.1,.21l13.59,44.36c.03,.11,.04,.23,.01,.35l-15.01,66.12-.35,5.49s0,.09-.02,.13l-.49,1.84h44.08Z" fill="#071b3f"/></g><g><polyline points="249.08 90.42 289.14 90.96 274.84 56.8 239.06 56.08" fill="#009dcd"/><path d="M289.81,90.96c0,.13-.04,.26-.11,.38-.13,.19-.34,.3-.56,.3l-40.06-.54,.02-1.34,39.04,.52-13.74-32.82-35.33-.71,.03-1.34,35.77,.72c.27,0,.5,.17,.61,.41l14.31,34.16c.03,.08,.05,.17,.05,.26Z" fill="#071b3f"/></g><g><polyline points="249.8 105.8 261.42 106.34 256.06 126.91 244.61 126.55" fill="#009dcd"/><path d="M262.09,106.34c0,.06,0,.11-.02,.17l-5.37,20.57c-.08,.3-.36,.51-.67,.5l-11.45-.36,.04-1.34,10.91,.34,5.02-19.25-10.8-.5,.06-1.34,11.63,.54c.2,0,.39,.11,.51,.27,.09,.12,.13,.26,.13,.4Z" fill="#071b3f"/></g><g><polyline points="240.67 142.47 251.23 142.47 251.58 143.54 245.68 164.47 235.13 164.47" fill="#009dcd"/><path d="M252.25,143.54c0,.06,0,.12-.03,.18l-5.9,20.93c-.08,.29-.35,.49-.65,.49h-10.55v-1.34h10.04l5.71-20.24-.14-.42h-10.07v-1.34h10.55c.29,0,.55,.18,.64,.46l.36,1.07c.02,.07,.03,.14,.03,.21Z" fill="#071b3f"/></g><g><polygon points="253.91 164.29 271.44 164.83 290.93 107.06 269.29 106.34 253.91 164.29" fill="#009dcd"/><path d="M291.6,107.06c0,.07-.01,.14-.04,.21l-19.5,57.77c-.09,.28-.36,.46-.66,.46l-17.53-.54c-.2,0-.39-.11-.52-.27-.12-.16-.16-.38-.11-.57l15.38-57.95c.08-.3,.36-.51,.67-.5l21.64,.72c.21,0,.41,.11,.53,.29,.08,.11,.12,.25,.12,.38Zm-20.64,57.09l19.05-56.44-20.21-.67-15.03,56.62,16.19,.5Z" fill="#071b3f"/></g><path d="M252.25,98.11c0,.05,0,.11-.02,.16l-18.42,73.69-1.3-.33,18.38-73.51-14.79-47.93,1.28-.4,14.85,48.11c.02,.06,.03,.13,.03,.2Z" fill="#071b3f"/><g><path d="M249.62,139.61s1.43,1.07,1.97,.72c.54-.36-.36,2.15-.36,2.15,0,0,1.43,2.86,3.04,3.4s6.26,1.43,8.23,.54,4.29-3.04,4.29-5.37,.36-5.72-1.79-7.69c-2.15-1.97-4.29-2.15-6.26-2.15h-1.97" fill="#fff"/><path d="M267.48,139.16c0,.35,0,.69-.01,1.01,0,.3-.01,.59-.01,.87,0,2.53-2.36,4.92-4.69,5.98-2.29,1.04-7.26-.03-8.72-.51-1.82-.61-3.27-3.42-3.43-3.73-.08-.16-.09-.35-.03-.53,.15-.42,.29-.87,.38-1.21-.64-.12-1.32-.56-1.76-.89l.8-1.07c.44,.33,1.03,.64,1.26,.65,.34-.19,.65-.1,.85,.05,.34,.27,.53,.62-.17,2.64,.56,1.02,1.62,2.51,2.52,2.81,1.76,.59,6.08,1.32,7.74,.56,1.89-.86,3.9-2.82,3.9-4.75,0-.28,0-.58,.01-.89,.04-2.13,.08-4.78-1.58-6.3-1.98-1.82-3.96-1.97-5.81-1.97h-1.97v-1.34h1.97c2.02,0,4.38,.18,6.71,2.32,1.81,1.66,2.03,4.19,2.03,6.3Z" fill="#071b3f"/></g><g><path d="M244.79,134.06c.36,1.61,2.15,4.65,3.76,4.65s3.4,.36,3.76-.89c.36-1.25,.18-3.76,.18-3.76l-1.61-.18-1.07,1.43-1.07,.36-1.25-1.07,.18-1.79-1.61-.18-1.25,1.43Z" fill="#fff"/><path d="M253.19,135.45c0,.83-.05,1.85-.25,2.55-.44,1.53-2.15,1.46-3.53,1.4-.29-.01-.59-.02-.87-.02-1.2,0-2.23-1.09-2.89-2-.71-.99-1.31-2.24-1.52-3.18-.05-.21,0-.43,.15-.59l1.25-1.43c.14-.17,.36-.25,.58-.22l1.61,.18c.37,.04,.63,.37,.59,.73l-.14,1.44,.7,.6,.51-.17,.95-1.26c.14-.19,.37-.29,.61-.26l1.61,.18c.32,.04,.57,.3,.59,.62,0,.05,.05,.67,.05,1.44Zm-7.67-1.22c.47,1.53,1.99,3.81,3.02,3.81,.31,0,.62,.01,.92,.02,1.27,.05,2.05,.05,2.19-.43,.21-.74,.21-2.1,.18-2.97l-.66-.07-.84,1.12c-.08,.11-.2,.19-.32,.23l-1.07,.36c-.22,.07-.47,.03-.65-.13l-1.25-1.07c-.17-.14-.25-.36-.23-.58l.11-1.13-.6-.07-.79,.9Z" fill="#071b3f"/></g><g><path d="M255.16,135.14l1.61-.54v-1.79s-.54-1.79-2.15-2.15c-1.61-.36-3.4-.89-4.47-.36s-2.5,2.5-2.5,2.5l-.18,1.79,1.25,1.07,2.15-1.79,1.61,.18-.18,1.25v2.5l.89,.72,1.25-.54,.54-1.79,.18-1.07Z" fill="#fff"/><path d="M257.44,132.81v1.79c0,.29-.18,.54-.46,.64l-1.23,.41-.11,.67s-.01,.06-.02,.08l-.54,1.79c-.06,.19-.2,.35-.38,.42l-1.25,.54c-.23,.1-.49,.06-.68-.09l-.89-.72c-.16-.13-.25-.32-.25-.52v-2.5s0-.06,0-.09l.08-.57-.64-.07-1.93,1.61c-.25,.21-.62,.21-.87,0l-1.25-1.07c-.17-.14-.25-.36-.23-.58l.18-1.79c.01-.12,.06-.23,.12-.33,.16-.21,1.56-2.12,2.75-2.71,1.15-.57,2.74-.2,4.28,.16,.21,.05,.43,.1,.64,.15,1.97,.44,2.62,2.52,2.64,2.61,.02,.06,.03,.13,.03,.19Zm-1.34,1.31v-1.19c-.12-.3-.59-1.38-1.62-1.6-.21-.05-.43-.1-.65-.15-1.25-.29-2.66-.62-3.38-.26-.7,.35-1.71,1.56-2.15,2.16l-.13,1.26,.56,.48,1.71-1.43c.14-.12,.32-.17,.5-.15l1.61,.18c.18,.02,.34,.11,.46,.26,.11,.14,.16,.32,.13,.51l-.17,1.2v2.13l.33,.26,.59-.25,.43-1.45,.17-1.03c.04-.24,.21-.45,.45-.53l1.15-.38Z" fill="#071b3f"/></g><path d="M264.1,137.8l-.7,.4c-1.09-1.91-2.28-2.9-3.62-3.02-1.92-.18-2.99-.18-3-.18v-.8s1.11,0,3.08,.18c1.63,.15,3.02,1.27,4.25,3.42Z" fill="#071b3f"/><path d="M269.16,138.64c0,.46-.03,.91-.11,1.34-.4,2.4-2.52,5.02-2.76,5.31-.43,.51-1.19,.59-1.7,.16-.51-.42-.59-1.19-.16-1.7,.54-.65,1.99-2.68,2.24-4.17,.32-1.92-.38-4.36-1.67-5.79-1.28-1.42-3.69-1.93-5.48-2.11-1.53-.15-2.29-.02-3.26,.14l-.18,.03c-.66,.11-1.28-.33-1.39-.99-.11-.66,.33-1.28,.99-1.39l.18-.03c1.05-.18,2.05-.34,3.9-.16,2.22,.22,5.24,.9,7.04,2.9,1.48,1.64,2.37,4.15,2.37,6.46Z" fill="#071b3f"/><path d="M262.81,142.65c0,.16-.04,.31-.12,.46-.25,.45-.83,.61-1.28,.36l-4.47-2.5c-.45-.25-.61-.83-.36-1.28,.25-.45,.83-.61,1.28-.36l4.47,2.5c.31,.17,.48,.49,.48,.82Z" fill="#071b3f"/><rect x="251.35" y="138.67" width="2.43" height="1.34" transform="translate(-33.65 175.18) rotate(-36.02)" fill="#071b3f"/><g><polyline points="254.27 65.56 250.33 65.56 256.06 82.2 260.35 81.84 262.85 78.26 263.92 76.29 262.49 68.78 259.81 65.56 254.27 65.56" fill="#fff"/><path d="M264.73,76.29c0,.13-.03,.27-.1,.39l-1.07,1.97s-.03,.05-.05,.08l-2.5,3.58c-.14,.2-.35,.32-.59,.34l-4.29,.36c-.37,.03-.71-.19-.83-.54l-5.72-16.63c-.08-.25-.05-.52,.11-.73,.15-.21,.4-.34,.66-.34h9.48c.24,0,.47,.11,.62,.29l2.68,3.22c.09,.11,.15,.23,.17,.36l1.43,7.51c0,.05,.01,.1,.01,.15Zm-2.56,1.54l.91-1.68-1.34-7.02-2.31-2.77h-7.97l5.15,14.97,3.29-.27,2.26-3.23Z" fill="#071b3f"/></g><g><path d="M254.62,69.14c-.54-1.97-.72-5.54,.18-6.26s3.22-1.61,5.01-1.07c1.79,.54,3.04,1.79,4.29,3.58s3.04,9.3,3.58,11.63,1.07,5.19-1.25,5.54-4.83-.89-5.54-1.43-1.97-1.79-2.33-2.5-1.61-2.5-1.61-3.4,.36-1.43,1.25-1.61,1.43,.54,1.79,1.25,.54,3.22,1.79,3.4,2.32-1.07,2.15-1.97-1.07-4.83-1.43-5.72-1.07-2.68-1.61-3.04-1.61-1.43-2.33-1.61-.89-.18-.89,.54,0,1.61,.18,2.15,0,2.15-.89,1.97-2.32-1.43-2.32-1.43Z" fill="#fff"/><path d="M268.82,80.09c0,.79-.14,1.51-.53,2.08-.39,.58-.98,.93-1.76,1.05-2.49,.38-5.15-.88-6.05-1.56-.77-.58-2.1-1.9-2.52-2.74-.08-.17-.23-.42-.4-.71-.7-1.17-1.28-2.21-1.28-2.99,0-1.58,.97-2.1,1.79-2.27,1.04-.21,1.88,.33,2.52,1.61,.13,.26,.22,.63,.33,1.05,.17,.67,.49,1.92,.95,1.99,.37,.05,.77-.1,1.07-.42,.27-.28,.36-.59,.32-.75-.2-1.02-1.07-4.8-1.4-5.61-.81-2.03-1.19-2.6-1.36-2.73-.19-.13-.42-.32-.69-.54-.43-.36-1.08-.89-1.43-.98h-.06c0,.61,0,1.41,.14,1.82,.19,.58,.12,1.78-.44,2.42-.32,.36-.76,.51-1.22,.42-1.04-.21-2.48-1.44-2.64-1.58-.1-.09-.17-.2-.21-.33-.44-1.6-.94-5.88,.41-6.96,1.1-.88,3.66-1.78,5.62-1.19,2.19,.66,3.58,2.31,4.65,3.83,1.23,1.75,2.83,8.18,3.68,11.86,.25,1.1,.48,2.23,.48,3.23Zm-11.2-4.87c0,.48,.71,1.67,1.09,2.31,.19,.31,.35,.58,.45,.79,.28,.57,1.43,1.74,2.13,2.27,.61,.46,2.95,1.63,5.04,1.3,.53-.08,.74-.31,.85-.48,.62-.92,.12-3.09-.15-4.25-1.39-6.01-2.68-10.27-3.47-11.39-1.35-1.92-2.49-2.88-3.94-3.32-1.55-.47-3.65,.36-4.4,.95-.46,.37-.53,3.25,0,5.36,.54,.45,1.37,1.03,1.83,1.14,.15-.18,.24-.85,.16-1.09-.21-.64-.21-1.59-.21-2.36,0-.28,0-.8,.4-1.11,.4-.31,.89-.19,1.33-.08,.64,.16,1.34,.74,1.96,1.25,.23,.19,.44,.36,.58,.46,.59,.39,1.15,1.57,1.86,3.35,.4,.99,1.32,5.11,1.47,5.84,.13,.64-.12,1.36-.66,1.94-.6,.63-1.43,.94-2.23,.83-1.35-.19-1.76-1.81-2.06-2.98-.08-.32-.16-.65-.23-.78-.5-1.01-.88-.93-1.06-.89-.47,.09-.71,.27-.71,.95Z" fill="#071b3f"/></g><path d="M259.72,69.14c0,.36-.24,.69-.61,.78-.43,.11-.87-.15-.98-.59l-.54-2.15c-.11-.43,.15-.87,.59-.98,.43-.11,.87,.15,.98,.59l.54,2.15c.02,.07,.02,.13,.02,.2Z" fill="#071b3f"/><path d="M257.49,67.35s0,.03,0,.05c-.03,.3-.29,.51-.58,.49l-1.97-.18c-.3-.03-.51-.29-.49-.58,.03-.3,.29-.51,.58-.49l1.97,.18c.28,.03,.49,.26,.49,.53Z" fill="#071b3f"/><path d="M259.99,75.94c0,.25-.17,.47-.42,.52l-1.61,.36c-.29,.06-.58-.12-.64-.41-.06-.29,.12-.58,.41-.64l1.61-.36c.29-.06,.58,.12,.64,.41,0,.04,.01,.08,.01,.12Z" fill="#071b3f"/><rect x="275.64" y="73.42" width="1.61" height="50.63" transform="translate(170.9 372.66) rotate(-88.58)" fill="#071b3f"/><path d="M239.87,167.42c.64,0,1.16,.44,1.16,.98s-.52,.98-1.16,.98-1.16-.44-1.16-.98,.52-.98,1.16-.98Z" fill="#071b3f"/><path d="M250.33,167.33c.49,0,.89,.4,.89,.89s-.4,.89-.89,.89-.89-.4-.89-.89,.4-.89,.89-.89Z" fill="#071b3f"/><path d="M261.87,167.51c.54,0,.98,.44,.98,.98s-.44,.98-.98,.98-.98-.44-.98-.98,.44-.98,.98-.98Z" fill="#071b3f"/><path d="M274.39,166.79c.54,0,.98,.52,.98,1.16s-.44,1.16-.98,1.16-.98-.52-.98-1.16,.44-1.16,.98-1.16Z" fill="#071b3f"/><path d="M278.23,156.78c.49,0,.89,.52,.89,1.16s-.4,1.16-.89,1.16-.89-.52-.89-1.16,.4-1.16,.89-1.16Z" fill="#071b3f"/><ellipse cx="281.45" cy="146.67" rx="1.07" ry="1.34" fill="#071b3f"/><path d="M285.66,132.99c.64,0,1.16,.56,1.16,1.25s-.52,1.25-1.16,1.25-1.16-.56-1.16-1.25,.52-1.25,1.16-1.25Z" fill="#071b3f"/><path d="M288.88,122.8c.54,0,.98,.48,.98,1.07s-.44,1.07-.98,1.07-.98-.48-.98-1.07,.44-1.07,.98-1.07Z" fill="#071b3f"/><circle cx="292.18" cy="114.03" r="1.07" fill="#071b3f"/><circle cx="295.94" cy="103.84" r="1.07" fill="#071b3f"/><path d="M280.38,101.87c.4,0,.72,.36,.72,.8s-.32,.8-.72,.8-.72-.36-.72-.8,.32-.8,.72-.8Z" fill="#071b3f"/><ellipse cx="266.25" cy="102.59" rx=".89" ry="1.07" fill="#071b3f"/><path d="M256.23,100.8c.4,0,.72,.32,.72,.72s-.32,.72-.72,.72-.72-.32-.72-.72,.32-.72,.72-.72Z" fill="#071b3f"/><circle cx="263.3" cy="115.37" r=".8" fill="#071b3f"/><path d="M260.17,124.58c.49,0,.89,.48,.89,1.07s-.4,1.07-.89,1.07-.89-.48-.89-1.07,.4-1.07,.89-1.07Z" fill="#071b3f"/><path d="M254.18,148.37c.35,0,.63,.32,.63,.72s-.28,.72-.63,.72-.63-.32-.63-.72,.28-.72,.63-.72Z" fill="#071b3f"/><circle cx="251.76" cy="158.57" r=".89" fill="#071b3f"/><path d="M243.71,138.89c.4,0,.72,.32,.72,.72s-.32,.72-.72,.72-.72-.32-.72-.72,.32-.72,.72-.72Z" fill="#071b3f"/><ellipse cx="246.13" cy="129.06" rx=".63" ry=".54" fill="#071b3f"/><path d="M256.14,93.46c.44,0,.8,.4,.8,.89s-.36,.89-.8,.89-.8-.4-.8-.89,.36-.89,.8-.89Z" fill="#071b3f"/><ellipse cx="266.43" cy="94.8" rx="1.07" ry=".8" fill="#071b3f"/><path d="M280.2,95.79c.59,0,1.07-.44,1.07-.98s-.48-.98-1.07-.98-1.07,.44-1.07,.98,.48,.98,1.07,.98Z" fill="#071b3f"/><path d="M294.42,93.64c.54,0,.98,.52,.98,1.16s-.44,1.16-.98,1.16-.98-.52-.98-1.16,.44-1.16,.98-1.16Z" fill="#071b3f"/><path d="M289.95,82.02c.44,0,.8,.52,.8,1.16s-.36,1.16-.8,1.16-.8-.52-.8-1.16,.36-1.16,.8-1.16Z" fill="#071b3f"/><ellipse cx="285.48" cy="72.89" rx=".8" ry="1.07" fill="#071b3f"/><ellipse cx="281.27" cy="62.52" rx=".72" ry="1.07" fill="#071b3f"/><path d="M277.97,53.58c.44,0,.8,.4,.8,.89s-.36,.89-.8,.89-.8-.4-.8-.89,.36-.89,.8-.89Z" fill="#071b3f"/><path d="M265.45,52.68c.54,0,.98,.44,.98,.98s-.44,.98-.98,.98-.98-.44-.98-.98,.44-.98,.98-.98Z" fill="#071b3f"/><path d="M253.01,52.51c.49,0,.89,.4,.89,.89s-.4,.89-.89,.89-.89-.4-.89-.89,.4-.89,.89-.89Z" fill="#071b3f"/><circle cx="242.73" cy="52.77" r=".8" fill="#071b3f"/><path d="M240,117.97c0,.15-.08,.29-.22,.36-.45,.23-.94,.58-1.41,.92-1.03,.74-2.09,1.51-2.81,.8-.68-.68-3.31-2.44-3.34-2.45-.19-.12-.23-.37-.11-.56,.12-.18,.37-.24,.56-.11,.11,.07,2.72,1.82,3.46,2.55,.23,.23,1.12-.41,1.77-.88,.5-.36,1.01-.73,1.52-.99,.2-.1,.44-.02,.54,.18,.03,.06,.04,.12,.04,.18Z" fill="#071b3f"/><path d="M237.19,125.19c0,2.1-.1,4.43-.5,5.33-.12,.27-.44,.39-.71,.28-.27-.12-.39-.44-.27-.71,.49-1.11,.45-5.81,.31-8.7-.01-.29,.21-.55,.51-.56,.3-.01,.55,.21,.56,.51,.02,.36,.09,2.01,.09,3.85Z" fill="#071b3f"/><path d="M231.91,128.88c0,.77-.34,1.98-.38,2.11-.08,.28-.38,.45-.66,.37-.28-.08-.45-.38-.37-.66,.09-.33,.34-1.3,.34-1.82,0-.12-.13-.32-.27-.54-.34-.52-.8-1.24-.8-2.5,0-.98,.24-1.83,.45-2.58,.18-.65,.34-1.21,.27-1.62-.07-.44-.35-.92-.65-1.43-.33-.57-.68-1.16-.78-1.79l-.18-1.07c-.05-.29,.15-.57,.44-.62,.29-.05,.57,.15,.62,.44l.18,1.07c.07,.44,.35,.92,.65,1.43,.33,.57,.68,1.16,.78,1.79,.11,.65-.09,1.35-.3,2.09-.19,.69-.41,1.46-.41,2.29,0,.94,.33,1.46,.63,1.92,.23,.35,.44,.69,.44,1.12Z" fill="#071b3f"/><path d="M246.4,104.02s0,.05,0,.08c-.04,.29-.32,.49-.61,.45-.29-.04-7.18-1.08-8.07-1.26-.29-.06-.48-.34-.42-.63,.06-.29,.34-.48,.63-.42,.87,.17,7.95,1.24,8.02,1.25,.27,.04,.46,.27,.46,.53Z" fill="#071b3f"/><path d="M246.89,94.36s0,.07,0,.1c-.06,.37-.4,.62-.76,.56l-8.23-1.25,.1-1.33h7.69c.37,0,.67,.3,.67,.67,0,.23-.11,.43-.29,.55l.25,.04c.33,.05,.57,.34,.57,.66Z" fill="#071b3f"/><path d="M241.52,76.65c0,.37-.3,.67-.67,.67-.19,0-.41,0-.65-.01-1.53-.04-4.09-.11-5.29,1.22-.25,.28-.67,.3-.95,.05-.28-.25-.3-.67-.05-.95,1.61-1.79,4.56-1.71,6.32-1.66,.23,0,.44,.01,.61,.01,.37,0,.67,.3,.67,.67Z" fill="#071b3f"/><path d="M223.83,89.37c0,1.09-.13,2.08-.43,2.76-.91,2.01-3.71,5.86-3.82,6.02-.19,.26-.53,.35-.81,.22l-1.61-.72c-.24-.11-.4-.35-.4-.61,0-.12,0-2.86,.79-4.41,.63-1.26,1.17-8.05,.85-9.17-.35-1.22-1.59-4.76-1.6-4.79-.1-.28,0-.6,.25-.77,.24-.17,.57-.16,.81,.02l.88,.71c.22,.17,2.82,2.1,3.75,3.78,.65,1.16,1.35,4.37,1.35,6.96Zm-5.03,7.55c.76-1.07,2.69-3.84,3.37-5.34,.76-1.68-.03-7.01-.87-8.52-.5-.91-1.68-1.98-2.5-2.66,.34,1,.7,2.09,.87,2.69,.41,1.43-.14,8.55-.94,10.14-.44,.89-.6,2.48-.63,3.38l.7,.31Z" fill="#071b3f"/><path d="M218.63,90.07c0,.37-.3,.67-.67,.67h-1.43s-1.15,.03-1.99,1.02c-.24,.28-.66,.31-.95,.07-.28-.24-.31-.66-.07-.95,1.26-1.47,2.94-1.49,3.01-1.49h1.43c.37,0,.67,.3,.67,.67Z" fill="#071b3f"/><path d="M219.7,83.27c0,.32-.23,.61-.56,.66-.3,.05-1.58,.07-5.25-1.86-.33-.17-.46-.58-.28-.91,.17-.33,.58-.45,.91-.28,1.72,.9,3.9,1.81,4.41,1.72,.37-.06,.71,.19,.77,.55,0,.04,0,.07,0,.11Z" fill="#071b3f"/><path d="M213.16,95.85c0,.12-.02,.22-.04,.3-.18,.61-.84,.93-1.48,1.24-.21,.1-.55,.26-.69,.38,.1,.24,.54,.73,.98,1.06,.3,.22,.36,.64,.13,.94-.22,.3-.64,.36-.94,.13-.54-.4-1.76-1.45-1.5-2.49,.15-.61,.8-.92,1.43-1.23,.2-.1,.51-.24,.68-.36-.19-.18-.5-.32-.81-.46-.59-.27-1.33-.6-1.49-1.41-.15-.75,.43-1.37,.93-1.93,.29-.31,.77-.83,.7-1.03-.08-.25-.75-.78-1.19-1.14-1.11-.89-2.36-1.9-2.04-3.17,.21-.85,.92-1.83,1.6-2.78,.41-.57,1.03-1.44,1.06-1.71,0-.37-.28-1.03-.53-1.61-.23-.53-.44-1.03-.53-1.47-.19-.95-.19-2.4-.19-2.46,0-.37,.3-.67,.67-.67s.67,.3,.67,.67c0,.01,0,1.38,.17,2.19,.06,.31,.26,.77,.45,1.21,.31,.73,.64,1.49,.64,2.14s-.5,1.35-1.31,2.49c-.58,.81-1.24,1.73-1.39,2.32-.11,.44,.95,1.29,1.58,1.8,.76,.61,1.42,1.14,1.62,1.76,.32,.95-.4,1.74-.98,2.37-.21,.23-.56,.61-.6,.77,.05,.13,.46,.31,.72,.44,.51,.23,1.15,.52,1.51,1.12,.13,.21,.17,.42,.17,.59Z" fill="#071b3f"/><path d="M235.53,81.84c0,.34-.25,.63-.59,.67-.26,.03-6.31,.72-7.59,.72-.82,0-3.24,.85-4.58,1.38-.34,.14-.73-.03-.87-.37-.14-.34,.03-.73,.37-.87,.38-.15,3.74-1.48,5.08-1.48,.96,0,5.28-.47,7.44-.71,.37-.04,.7,.22,.74,.59,0,.03,0,.05,0,.08Z" fill="#071b3f"/><path d="M262.14,77.55c0,.3-.24,.54-.54,.54-.01,0-1.16,0-1.95,.32-.36,.15-.25,.68,.13,1.84,.09,.28-.06,.59-.34,.68s-.58-.06-.68-.34c-.37-1.11-.88-2.63,.49-3.17,.98-.39,2.29-.4,2.35-.4,.3,0,.54,.24,.54,.54h0Z" fill="#071b3f"/><path d="M222.61,109.38s0,.05,0,.08l-2.15,14.67c-.04,.29-.32,.5-.61,.45-.29-.04-.5-.31-.45-.61l2.15-14.67c.04-.29,.32-.5,.61-.45,.27,.04,.46,.27,.46,.53Z" fill="#071b3f"/><path d="M233.52,53.22s0,.06,0,.09l-2.33,13.59c-.05,.29-.33,.49-.62,.44-.29-.05-.49-.33-.44-.62l2.33-13.59c.05-.29,.33-.49,.62-.44,.26,.04,.45,.27,.45,.53Z" fill="#071b3f"/><path d="M238.71,48.39c0,.13-.04,.25-.14,.36l-1.43,1.61c-.2,.22-.54,.24-.76,.04-.22-.2-.24-.54-.04-.76l1.43-1.61c.2-.22,.54-.24,.76-.04,.12,.11,.18,.25,.18,.4Z" fill="#071b3f"/><path d="M237.28,50c0,.12-.04,.24-.13,.35l-2.86,3.4c-.19,.23-.53,.26-.76,.06-.23-.19-.26-.53-.06-.76l2.86-3.4c.19-.23,.53-.26,.76-.06,.13,.11,.19,.26,.19,.41Z" fill="#071b3f"/><path d="M236.56,50.72c0,.21-.13,.42-.34,.5l-3.22,1.25c-.28,.11-.59-.03-.69-.31-.11-.28,.03-.59,.31-.69l3.22-1.25c.28-.11,.59,.03,.69,.31,.02,.06,.04,.13,.04,.19Z" fill="#071b3f"/><path d="M234.77,51.61c0,.06,0,.11-.03,.17l-.36,1.07c-.09,.28-.4,.43-.68,.34-.28-.09-.43-.4-.34-.68l.36-1.07c.09-.28,.4-.43,.68-.34,.22,.07,.37,.28,.37,.51Z" fill="#071b3f"/><polygon points="232.27 162.5 223.5 118.32 226.01 103.84 229.05 105.98 233.16 108.49 237.99 110.81 241.75 111.17 243.36 110.99 244.07 110.63 244.43 112.06 243.71 114.21 242.82 113.85 239.78 113.85 237.45 115.28 235.67 116.89 232.8 114.93 229.76 114.39 228.33 114.39 227.26 116 226.9 118.15 227.08 119.58 227.97 121.19 227.97 123.51 228.15 127.09 228.87 129.95 229.05 132.63 230.3 134.24 231.55 134.24 232.8 132.81 234.41 132.1 236.38 132.99 237.81 134.42 238.89 135.32 232.27 162.5" fill="#071b3f"/><polygon points="232.09 66.46 234.23 65.56 236.2 65.56 237.28 65.74 237.45 64.49 233.88 54.29 231.37 65.92 232.09 66.46" fill="#071b3f"/></g><path d="M80.53,161.02c0,5.4-3.8,9.2-9,9.2s-9-3.87-9-9.15c0-2.77,1.28-5.15,3-6.72l2.05,2.05c-1.17,1.22-2.05,2.7-2.05,4.65,0,3.5,2.7,5.8,6,5.8s6-2.22,6-5.82c0-2.08-.78-3.5-2.38-5l1.9-2.17c2.08,1.6,3.47,4.15,3.47,7.17Zm0-16.93c0,5.02-3.8,8.9-9,8.9s-9-3.87-9-8.9,3.8-8.9,9-8.9,9,3.87,9,8.9Zm-3,0c0-3.22-2.7-5.52-6-5.52s-6,2.3-6,5.52,2.7,5.52,6,5.52,6-2.3,6-5.52Zm2.75-15.13h-10.75l7.37-4.97v-.65l-7.37-4.97h10.75v-3.32h-17.5v2.5l8.97,6.1-8.97,6.15v2.5h17.5v-3.32Zm0-21.2h-10.75l7.37-4.97v-.65l-7.37-4.97h10.75v-3.32h-17.5v2.5l8.97,6.1-8.97,6.15v2.5h17.5v-3.32Zm-2.25-30.95c-1.2-1.05-2.8-1.62-5.07-1.62h-10.17v3.37h10.42c1.5,0,2.35,.35,3,.95,.83,.75,1.33,1.87,1.33,3.12s-.5,2.37-1.33,3.12c-.65,.6-1.5,.95-3,.95h-10.42v3.37h10.17c2.27,0,3.87-.58,5.07-1.62,1.57-1.37,2.5-3.5,2.5-5.82s-.92-4.45-2.5-5.82Zm2.25-8.7h-11.35l11.35-9.3v-2.5h-17.5v3.32h11.35l-11.35,9.3v2.5h17.5v-3.32Zm0-19.12h-17.5v3.37h17.5v-3.37Zm-14.5-7.05h14.5v-3.38h-14.5v-4.62h-3v12.62h3v-4.62Zm14.5-14.8v-3.37h-7.92l-9.57-6v3.77l6.22,3.87-6.22,3.87v3.85l9.57-6h7.92Zm26.78,89.13l-1.9,2.17c1.6,1.5,2.38,2.92,2.38,5,0,3.6-2.7,5.82-6,5.82s-6-2.3-6-5.8c0-1.95,.87-3.42,2.05-4.65l-2.05-2.05c-1.72,1.57-3,3.95-3,6.72,0,5.27,3.8,9.15,9,9.15s9-3.8,9-9.2c0-3.02-1.4-5.57-3.47-7.17Zm3.22-14.45v-3.37h-17.5v3.37h6.62v8.37h-6.62v3.37h17.5v-3.37h-7.87v-8.37h7.87Zm0-18.57h-3v7.37h-4.87v-5.62h-3v5.62h-3.62v-7.12h-3v10.5h17.5v-10.75Zm-12.75-2.93c1.95,0,3.25-1.07,4.05-2.42,1.35-2.33,1.6-5.57,3.67-5.57,1.52,0,2.27,1.35,2.27,2.7,0,1.6-.73,3.15-1.7,4.25l2.12,1.92c1.72-1.75,2.57-3.8,2.57-6.22,0-3.45-2.2-6.02-5.3-6.02-2.2,0-3.52,1.15-4.35,2.57-1.38,2.35-1.7,5.42-3.47,5.42-.97,0-1.87-.85-1.87-2.5,0-1.22,.47-2.35,1.12-3.27l-2.37-1.67c-1.15,1.47-1.75,3.25-1.75,5.05,0,3.07,1.83,5.77,5,5.77Zm-1.75-17.65h14.5v-3.37h-14.5v-4.62h-3v12.62h3v-4.62Z" fill="#071b3f"/></svg>