<svg xmlns="http://www.w3.org/2000/svg" viewBox="0 0 342.89 342.89"><rect width="342.89" height="342.89" style="fill:none"/><path d="M58.67,257.56l-32-7.33,5-4.27a8.64,8.64,0,0,1,5.81-2.4,10.36,10.36,0,0,1,2.26.27l18.68,4.49L57,228.94a8.48,8.48,0,0,1,3.32-7.65l5-4.26,2.28,32.85,64.46,14.95-5.15,4.43a8.71,8.71,0,0,1-5.81,2.43,9.49,9.49,0,0,1-2.23-.29L67.79,259.2l1.43,22.55a8.47,8.47,0,0,1-3.32,7.66l-4.62,4ZM85,211.07l-9.43,8.11-1-10.16,5-4.27L76,200.59c-10.17-11.83-6.63-24.08,1.39-31a20.84,20.84,0,0,1,5.06-3.33l4,7.58a15.13,15.13,0,0,0-2.64,1.82,12.49,12.49,0,0,0-4.5,8c-.39,3.57,1,7.22,4.11,10.84l3.44,4,11.24-9.66,5.43,6.31-11.24,9.67,30.6,35.6-7.26,6.23Zm21.57-29.52,7.26-6.24,36,41.92-7.25,6.24ZM125.85,165l7.25-6.24,4.5,5.24.26-2.28a24.94,24.94,0,0,1,8.82-16.26A21.49,21.49,0,0,1,160.75,140c6.72,0,13.27,3.33,18.46,9.37l21.09,24.53-3.92,3.38a4.41,4.41,0,0,1-2.88,1.14,4.5,4.5,0,0,1-3.39-1.69l-16.83-19.59c-3.95-4.59-8.43-7-13-7a15.24,15.24,0,0,0-9.89,4c-4.88,4.2-7.13,10.06-6.49,17l0,.32,25.17,29.29-7.25,6.23Zm50.33-43.27,7.26-6.23,36,41.91-7.25,6.24Zm96.51-22.62L226.52,78.47l3.41-2.92c2.09-1.8,3.95-2.67,5.69-2.67a5.37,5.37,0,0,1,2.19.47l32.61,14.77-7.9-36c-.58-2.66.48-5,3.35-7.5l3.49-3,18.39,84.43c.57,2.78-.62,5.46-3.54,8l-3.49,3Zm-32.9,36.13c-5.54,0-10.77-2.69-15.14-7.77l-18-20.94-9.28,8-5.43-6.32,9.28-8L189.28,86.33l4.53-9.4L208.47,94l9-7.7,8.32,3.84L213.9,100.3l17.86,20.78c2.65,3.08,5.62,4.64,8.82,4.64a11.9,11.9,0,0,0,7.7-3.16,26.07,26.07,0,0,0,3.17-3.24l6.82,5a29.3,29.3,0,0,1-4.94,5.34c-4.26,3.66-8.94,5.6-13.54,5.6Z" style="fill:#fff"/></svg>