<?xml version="1.0" encoding="UTF-8"?><svg id="a" xmlns="http://www.w3.org/2000/svg" viewBox="0 0 190 345"><path id="b" d="M190,345H0V0H190V345Z" fill="#fff"/><path id="c" d="M190,93.27H0v-13H190v13Z" fill="#6138f5"/><path id="d" d="M190,80H0V0H190V80Z" fill="#5632d8"/><g><path d="M47.06,147.55l6.1-8.97h2.5v17.5h-3.32v-10.75l-4.97,7.37h-.65l-4.97-7.37v10.75h-3.32v-17.5h2.5l6.15,8.97Z" fill="#071b3f"/><path d="M63.49,141.58v3.62h5.62v3h-5.62v4.87h7.37v3h-10.75v-17.5h10.5v3h-7.12Z" fill="#071b3f"/><path d="M80.34,138.58c2.77,0,4.6,.6,6.02,1.65,2.15,1.6,3.47,4.2,3.47,7.1s-1.32,5.5-3.47,7.1c-1.42,1.05-3.25,1.65-6.02,1.65h-6v-17.5h6Zm4.85,4.95c-.98-1.22-2.4-1.95-4.47-1.95h-3v11.5h3c2.08,0,3.5-.72,4.47-1.95,.8-1,1.27-2.35,1.27-3.8s-.47-2.8-1.27-3.8Z" fill="#071b3f"/><path d="M93.24,138.58h3.37v17.5h-3.37v-17.5Z" fill="#071b3f"/><path d="M112.16,138.58v3h-4.62v14.5h-3.37v-14.5h-4.62v-3h12.62Z" fill="#071b3f"/><path d="M118.46,141.58v3.62h5.62v3h-5.62v4.87h7.37v3h-10.75v-17.5h10.5v3h-7.12Z" fill="#071b3f"/><path d="M137.78,148.13l6.02,7.95h-4.05l-5.8-7.75h-1.27v7.75h-3.37v-17.5h6.67c2.1,0,3.5,.78,4.37,1.95,.6,.8,.95,1.8,.95,2.87,0,2.25-1.3,4.05-3.52,4.72Zm-2.32-2.67c1.12,0,1.67-.28,2.02-.7,.28-.35,.45-.8,.45-1.27s-.17-.9-.45-1.25c-.35-.42-.9-.7-2.02-.7h-2.77v3.92h2.77Z" fill="#071b3f"/><path d="M152.06,148.2v2.75h-7.75v-2.75h7.75Z" fill="#071b3f"/><path d="M51.04,186.08l7.25-17.5h2.5l7.25,17.5h-3.57l-1.6-3.87h-6.75l-1.6,3.87h-3.47Zm6.32-6.87h4.27l-2.1-5.37-2.17,5.37Z" fill="#071b3f"/><path d="M85.66,186.08h-2.5l-9.3-11.35v11.35h-3.32v-17.5h2.5l9.3,11.35v-11.35h3.32v17.5Z" fill="#071b3f"/><path d="M93.49,171.58v3.62h5.62v3h-5.62v4.87h7.37v3h-10.75v-17.5h10.5v3h-7.12Z" fill="#071b3f"/><path d="M102.39,186.08l7.25-17.5h2.5l7.25,17.5h-3.57l-1.6-3.87h-6.75l-1.6,3.87h-3.47Zm6.32-6.87h4.27l-2.1-5.37-2.17,5.37Z" fill="#071b3f"/><path d="M137.01,186.08h-2.5l-9.3-11.35v11.35h-3.32v-17.5h2.5l9.3,11.35v-11.35h3.32v17.5Z" fill="#071b3f"/><path d="M45.29,216.08l7.25-17.5h2.5l7.25,17.5h-3.57l-1.6-3.87h-6.75l-1.6,3.87h-3.47Zm6.32-6.87h4.27l-2.1-5.37-2.17,5.37Z" fill="#071b3f"/><path d="M61.39,198.58h3.5l4.7,11.92,4.6-11.92h3.45l-6.87,17.5h-2.5l-6.87-17.5Z" fill="#071b3f"/><path d="M83.61,201.58v3.62h5.62v3h-5.62v4.87h7.37v3h-10.75v-17.5h10.5v3h-7.12Z" fill="#071b3f"/><path d="M109.58,216.08h-2.5l-9.3-11.35v11.35h-3.32v-17.5h2.5l9.3,11.35v-11.35h3.32v17.5Z" fill="#071b3f"/><path d="M124.41,212c.6-.65,.95-1.5,.95-3v-10.42h3.37v10.17c0,2.27-.58,3.87-1.62,5.07-1.37,1.57-3.5,2.5-5.82,2.5s-4.45-.92-5.82-2.5c-1.05-1.2-1.62-2.8-1.62-5.07v-10.17h3.37v10.42c0,1.5,.35,2.35,.95,3,.75,.83,1.87,1.33,3.12,1.33s2.37-.5,3.12-1.33Z" fill="#071b3f"/><path d="M136.36,201.58v3.62h5.62v3h-5.62v4.87h7.37v3h-10.75v-17.5h10.5v3h-7.12Z" fill="#071b3f"/></g></svg>