<?xml version="1.0" encoding="UTF-8"?><svg id="a" xmlns="http://www.w3.org/2000/svg" viewBox="0 0 190 345"><path id="b" d="M190,345H0V0H190V345Z" fill="#fff"/><g><path d="M91.92,267.83c-10.79-.36-24.38-8.8-27.5-19.74-9.16-27.5,35.44-50.95,50.98-70.36,17.89-18.04-7.32-46.94-29.77-34.84-9.71,5.2-16.73,19.06-10.21,27.31,11.11,8.52-6,19.77-14.05,19.88-18.33-2.63-16.41-40.1-8.13-50.57,40.33-59.49,128.82,5.66,78.02,57.69-12.9,12.37-26.9,22.27-39.66,34.73-5.76,4.81,.7,12.25,4.18,11.54,3.51-.42,7.69,.2,9.39,2.8,3.92,6.8-3.79,22.07-13.23,21.56Z" fill="#0c3081"/><path d="M117.71,144.33c-18.9-23.76-63.52,3.56-45.78,29.35,3.7,3.37,2.03,5.19-1.25,7.36-10.17,6.74-12.9,5.84-16.55-5.68-7.74-24.46,6.46-47.58,32.92-53.61,41.13-10.46,73.16,44.69,40.65,72.03-12.68,12.17-27.23,22.53-39.78,34.85-7.88,6.78-1.76,20.73,8.93,19.61,4.76-.37,5.26,1.02,3.77,5.01-3.91,10.48-6.48,11.72-17.4,7.52-12.92-4.97-19.42-19.91-12.17-31.34,13.7-26.05,79.05-53.41,46.67-85.1Z" fill="#1d49aa"/><path d="M94.94,311.99c-25.31-.21-24.97-37.2,.39-37.04,24.7,1.38,25.14,36.34-.39,37.04Z" fill="#0c3081"/><path d="M80.76,293.4c.46-18.24,28.34-17.42,28.51,.57-.65,17.35-28.49,17.3-28.51-.57Z" fill="#1d49aa"/></g><g><path d="M57.07,66.25c-1.21-1.16-2.66-2.02-4.58-2.02-3.45,0-5.72,2.66-5.72,5.91s2.19,5.91,5.74,5.91c2.05,0,3.45-.76,4.93-2.34l2.14,1.87c-1.58,2.04-4.09,3.43-7.07,3.43-5.32,0-9.07-3.75-9.07-8.87s3.82-8.87,9.02-8.87c2.74,0,5.08,1.26,6.63,2.96l-2.02,2.02Z" fill="#071b3f"/><path d="M73.58,71h-8.26v7.76h-3.33v-17.25h3.33v6.53h8.26v-6.53h3.33v17.25h-3.33v-7.76Z" fill="#071b3f"/><path d="M79.13,78.76l7.15-17.25h2.46l7.15,17.25h-3.52l-1.58-3.82h-6.65l-1.58,3.82h-3.43Zm6.24-6.78h4.21l-2.07-5.3-2.14,5.3Z" fill="#071b3f"/><path d="M113.02,78.76h-2.46l-9.17-11.19v11.19h-3.28v-17.25h2.46l9.17,11.19v-11.19h3.28v17.25Z" fill="#071b3f"/><path d="M129.76,66.25c-1.21-1.16-2.66-2.02-4.58-2.02-3.45,0-5.72,2.66-5.72,5.91s2.19,5.91,5.74,5.91c2.05,0,3.45-.76,4.93-2.34l2.14,1.87c-1.58,2.04-4.09,3.43-7.07,3.43-5.32,0-9.07-3.75-9.07-8.87s3.82-8.87,9.02-8.87c2.74,0,5.08,1.26,6.63,2.96l-2.02,2.02Z" fill="#071b3f"/><path d="M138.02,64.47v3.57h5.54v2.96h-5.54v4.81h7.27v2.96h-10.6v-17.25h10.35v2.96h-7.02Z" fill="#071b3f"/></g></svg>