<?xml version="1.0" encoding="UTF-8"?><svg id="a" xmlns="http://www.w3.org/2000/svg" viewBox="0 0 345 190"><path id="b" d="M0,0V190H345V0H0Z" fill="#fff"/><path id="c" d="M265,0V190h80V0h-80Z" fill="#e6004d"/><path id="d" d="M252.29,190V0h13V190h-13Z" fill="#6138f5"/><g><path d="M204.43,39.13v3.5l-11.92,4.7,11.92,4.6v3.45l-17.5-6.87v-2.5l17.5-6.87Z" fill="#071b3f"/><path d="M204.43,57.98v3.37h-17.5v-3.37h17.5Z" fill="#071b3f"/><path d="M194.88,74.28l-7.95,6.02v-4.05l7.75-5.8v-1.27h-7.75v-3.37h17.5v6.67c0,2.1-.78,3.5-1.95,4.37-.8,.6-1.8,.95-2.87,.95-2.25,0-4.05-1.3-4.72-3.52Zm2.67-2.32c0,1.12,.28,1.67,.7,2.02,.35,.28,.8,.45,1.27,.45s.9-.17,1.25-.45c.42-.35,.7-.9,.7-2.02v-2.77h-3.92v2.77Z" fill="#071b3f"/><path d="M199.63,94.65c1.17-1.22,2.05-2.7,2.05-4.65,0-3.5-2.7-5.8-6-5.8s-6,2.22-6,5.82c0,1.58,.4,2.77,1.3,3.92h3.82v-4.62h2.87v7.87h-7.62c-2.02-1.6-3.37-4.15-3.37-7.17,0-5.4,3.8-9.2,9-9.2s9,3.87,9,9.15c0,2.77-1.28,5.15-3,6.72l-2.05-2.05Z" fill="#071b3f"/><path d="M204.43,100.86v3.37h-17.5v-3.37h17.5Z" fill="#071b3f"/><path d="M186.94,123.8v-2.5l11.35-9.3h-11.35v-3.32h17.5v2.5l-11.35,9.3h11.35v3.32h-17.5Z" fill="#071b3f"/><path d="M204.43,128.26v3.37h-17.5v-3.37h17.5Z" fill="#071b3f"/><path d="M186.94,134.13l17.5,7.25v2.5l-17.5,7.25v-3.57l3.87-1.6v-6.75l-3.87-1.6v-3.47Zm6.87,6.32v4.27l5.37-2.1-5.37-2.17Z" fill="#071b3f"/><path d="M156.94,45.07l17.5,7.25v2.5l-17.5,7.25v-3.57l3.87-1.6v-6.75l-3.87-1.6v-3.47Zm6.87,6.32v4.27l5.37-2.1-5.37-2.17Z" fill="#071b3f"/><path d="M174.43,61.17v3.5l-11.92,4.7,11.92,4.6v3.45l-17.5-6.87v-2.5l17.5-6.87Z" fill="#071b3f"/><path d="M171.43,83.4h-3.62v5.62h-3v-5.62h-4.87v7.37h-3v-10.75h17.5v10.5h-3v-7.12Z" fill="#071b3f"/><path d="M156.94,109.37v-2.5l11.35-9.3h-11.35v-3.32h17.5v2.5l-11.35,9.3h11.35v3.32h-17.5Z" fill="#071b3f"/><path d="M161.01,124.19c.65,.6,1.5,.95,3,.95h10.42v3.37h-10.17c-2.27,0-3.87-.58-5.07-1.62-1.57-1.37-2.5-3.5-2.5-5.82s.92-4.45,2.5-5.82c1.2-1.05,2.8-1.62,5.07-1.62h10.17v3.37h-10.42c-1.5,0-2.35,.35-3,.95-.83,.75-1.33,1.87-1.33,3.12s.5,2.37,1.33,3.12Z" fill="#071b3f"/><path d="M171.43,136.14h-3.62v5.62h-3v-5.62h-4.87v7.37h-3v-10.75h17.5v10.5h-3v-7.12Z" fill="#071b3f"/></g></svg>