<?xml version="1.0" encoding="UTF-8"?><svg id="a" xmlns="http://www.w3.org/2000/svg" viewBox="0 0 345 190"><path id="b" d="M0,0V190H345V0H0Z" fill="#fff"/><path id="c" d="M265,0V190h80V0h-80Z" fill="#e64f00"/><path id="d" d="M252.29,190V0h13V190h-13Z" fill="#6138f5"/><g><path d="M204.43,39.11h-3v-4.62h-14.5v-3.38h14.5v-4.62h3v12.62Z" fill="#071b3f"/><path d="M201.43,45.41h-3.62v5.62h-3v-5.62h-4.87v7.37h-3v-10.75h17.5v10.5h-3v-7.12Z" fill="#071b3f"/><path d="M186.94,71.38v-2.5l11.35-9.3h-11.35v-3.32h17.5v2.5l-11.35,9.3h11.35v3.32h-17.5Z" fill="#071b3f"/><path d="M186.94,90.96v-2.5l11.35-9.3h-11.35v-3.32h17.5v2.5l-11.35,9.3h11.35v3.32h-17.5Z" fill="#071b3f"/><path d="M201.43,98.79h-3.62v5.62h-3v-5.62h-4.87v7.37h-3v-10.75h17.5v10.5h-3v-7.12Z" fill="#071b3f"/><path d="M191.39,110.14c-.97,1.1-1.7,2.65-1.7,4.25,0,1.35,.75,2.7,2.27,2.7,2.08,0,2.33-3.25,3.67-5.57,.8-1.35,2.1-2.42,4.05-2.42,3.17,0,5,2.7,5,5.77,0,1.8-.6,3.57-1.75,5.05l-2.37-1.67c.65-.92,1.12-2.05,1.12-3.27,0-1.65-.9-2.5-1.87-2.5-1.77,0-2.1,3.07-3.47,5.42-.82,1.42-2.15,2.57-4.35,2.57-3.1,0-5.3-2.57-5.3-6.02,0-2.42,.85-4.47,2.57-6.22l2.12,1.92Z" fill="#071b3f"/><path d="M191.39,124.31c-.97,1.1-1.7,2.65-1.7,4.25,0,1.35,.75,2.7,2.27,2.7,2.08,0,2.33-3.25,3.67-5.57,.8-1.35,2.1-2.42,4.05-2.42,3.17,0,5,2.7,5,5.77,0,1.8-.6,3.57-1.75,5.05l-2.37-1.67c.65-.92,1.12-2.05,1.12-3.27,0-1.65-.9-2.5-1.87-2.5-1.77,0-2.1,3.07-3.47,5.42-.82,1.42-2.15,2.57-4.35,2.57-3.1,0-5.3-2.57-5.3-6.02,0-2.42,.85-4.47,2.57-6.22l2.12,1.92Z" fill="#071b3f"/><path d="M201.43,141.36h-3.62v5.62h-3v-5.62h-4.87v7.37h-3v-10.75h17.5v10.5h-3v-7.12Z" fill="#071b3f"/><path d="M201.43,155.58h-3.62v5.62h-3v-5.62h-4.87v7.37h-3v-10.75h17.5v10.5h-3v-7.12Z" fill="#071b3f"/><path d="M156.94,45.29l17.5,7.25v2.5l-17.5,7.25v-3.57l3.87-1.6v-6.75l-3.87-1.6v-3.47Zm6.87,6.32v4.27l5.37-2.1-5.37-2.17Z" fill="#071b3f"/><path d="M174.43,61.39v3.5l-11.92,4.7,11.92,4.6v3.45l-17.5-6.87v-2.5l17.5-6.87Z" fill="#071b3f"/><path d="M171.43,83.61h-3.62v5.62h-3v-5.62h-4.87v7.37h-3v-10.75h17.5v10.5h-3v-7.12Z" fill="#071b3f"/><path d="M156.94,109.58v-2.5l11.35-9.3h-11.35v-3.32h17.5v2.5l-11.35,9.3h11.35v3.32h-17.5Z" fill="#071b3f"/><path d="M161.01,124.41c.65,.6,1.5,.95,3,.95h10.42v3.37h-10.17c-2.27,0-3.87-.58-5.07-1.62-1.57-1.37-2.5-3.5-2.5-5.82s.92-4.45,2.5-5.82c1.2-1.05,2.8-1.62,5.07-1.62h10.17v3.37h-10.42c-1.5,0-2.35,.35-3,.95-.83,.75-1.33,1.87-1.33,3.12s.5,2.37,1.33,3.12Z" fill="#071b3f"/><path d="M171.43,136.36h-3.62v5.62h-3v-5.62h-4.87v7.37h-3v-10.75h17.5v10.5h-3v-7.12Z" fill="#071b3f"/></g></svg>