<?xml version="1.0" encoding="UTF-8"?><svg id="a" xmlns="http://www.w3.org/2000/svg" viewBox="0 0 573 573"><path id="b" d="M286.5,.5h0C128.5,.5,.5,128.5,.5,286.5H.5c0,158,128,286,286,286h0c158,0,286-128,286-286h0C572.5,128.55,444.5,.5,286.5,.5Z" fill="#cc002c"/><g><g><path d="M132.47,282.69c-5.98,2.17-11.96,3.25-17.94,3.25-12.91,0-23.37-3.36-32.07-10.18-9.38-7.26-14.27-17.01-14.27-29.03s5.16-21.66,14.81-28.92c8.83-6.72,20.25-10.29,33.16-10.29,5.3,0,10.46,.76,15.49,2.27l3.13,20.26c-5.98-3.57-11.55-5.42-17.26-5.42-14.95,0-25.95,8.77-25.95,21.88s10.87,21.88,26.23,21.88c6.52,0,11.82-1.84,17.8-5.63l-3.13,19.93Zm22.97-64.56c7.5-6.82,16.98-10.51,27.67-10.51s20.17,3.68,27.67,10.51c8.16,7.47,12.24,17.01,12.24,28.6s-4.19,21.34-12.24,28.7c-7.5,6.82-17.09,10.51-27.67,10.51s-20.17-3.68-27.67-10.51c-8.16-7.37-12.23-17.01-12.23-28.7s4.08-21.23,12.23-28.6Zm48.72,28.38c0-13.11-8.93-21.88-21.05-21.88s-21.05,8.77-21.05,21.88,8.93,21.77,21.05,21.77,21.05-8.66,21.05-21.77Zm30.09-36.18l18.63-1.84v58.38h22.05l-4.85,17.33h-35.83v-73.87Zm49.49,0l18.63-1.84v58.38h22.05l-4.85,17.33h-35.83v-73.87Zm49.16-1.08h42.88l3.42,15.49h-27.67v13.54h19.62v15.6h-19.62v14.41h29.32l-4.41,15.92h-43.54v-74.96Zm104.82,73.44c-4.85,2.17-9.7,3.25-14.55,3.25-10.47,0-18.96-3.36-26.01-10.18-7.61-7.26-11.57-17.01-11.57-29.03s4.19-21.66,12.01-28.92c7.17-6.72,16.42-10.29,26.9-10.29,4.3,0,8.49,.76,12.57,2.27l2.53,20.26c-4.85-3.57-9.37-5.42-14-5.42-12.13,0-21.05,8.77-21.05,21.88s8.82,21.88,21.27,21.88c5.29,0,9.59-1.84,14.44-5.63l-2.54,19.93Zm42.99,.65l-18.63,1.84v-58.71h-19.84l5.07-17.22h51.37v17.22h-17.97v56.87Z" fill="#8a0008"/><path d="M210.46,315.26l11.44,39.6,19.14-41.66,18.92,41.66,11.89-39.6,19.03,2.17-28.43,82.28-21.29-49.32-22.77,49.32-26.5-82.28,18.58-2.17Zm87.44,1.95l19.14-1.95v79.08l-19.14,1.95v-79.08Zm34.2-5.26l50.97,46.69v-41.54l18.58-2.29v84.69l-50.86-47.15v42.46l-18.69,1.83v-84.69Zm95.14,60.43l12.46,12.47-12.46,12.47-12.46-12.47,12.46-12.47Zm-10.42-56.31l19.82-2.75-1.36,55.05-16.76,1.95-1.7-54.24Z" fill="#8a0008"/><path d="M159.55,353.33c1.16-.48,2.24-.82,3.24-1.03,1-.21,2.02-.31,3.06-.31,1.46,0,2.65,.21,3.56,.63,.91,.42,1.63,1,2.15,1.75,.52,.75,.87,1.63,1.05,2.65,.18,1.02,.27,2.12,.27,3.32,0,4.84-1.25,9.45-3.74,13.82l7.03,6.64c-.12,2.27-.91,4.13-2.37,5.56-1.46,1.44-3.2,2.15-5.2,2.15-2.43,0-4.81-1.14-7.12-3.41l-1.73-1.61c-2.25,1.61-4.82,2.89-7.71,3.81-2.89,.93-6.1,1.39-9.63,1.39s-6.76-.46-9.5-1.39c-2.74-.93-5.05-2.2-6.94-3.81-1.89-1.61-3.32-3.51-4.29-5.7-.97-2.18-1.46-4.56-1.46-7.13,0-2.21,.33-4.19,1-5.92,.67-1.73,1.55-3.26,2.65-4.58,1.1-1.32,2.31-2.44,3.65-3.36,1.34-.93,2.71-1.69,4.11-2.29-1.22-1.44-2.09-2.96-2.6-4.58-.52-1.61-.78-3.14-.78-4.57,0-1.85,.4-3.59,1.19-5.2,.79-1.61,1.92-3.02,3.38-4.22,1.46-1.2,3.24-2.12,5.34-2.78,2.1-.66,4.49-.99,7.17-.99,3.83,0,6.54,.67,8.13,2.02,1.58,1.35,2.37,3.07,2.37,5.16,0,1.02-.2,2-.59,2.96-.4,.96-.99,1.83-1.78,2.6-.67-.3-1.45-.54-2.33-.72-.88-.18-1.81-.27-2.79-.27-1.58,0-2.89,.24-3.93,.72-1.04,.48-1.55,1.35-1.55,2.6,0,.9,.4,1.81,1.19,2.74,.79,.93,1.76,1.96,2.92,3.09l11.69,11.13c.3-1.32,.53-2.87,.68-4.67,.15-1.79,.23-3.86,.23-6.19Zm-24.74,16.33c0,2.09,.71,3.84,2.15,5.25,1.43,1.41,3.55,2.11,6.35,2.11,1.22,0,2.49-.16,3.83-.49,1.34-.33,2.62-.88,3.83-1.66l-11.69-11.57c-1.46,.66-2.57,1.56-3.33,2.69-.76,1.14-1.14,2.36-1.14,3.68Z" fill="#8a0008"/></g><g><path d="M140.6,268.46c-5.98,2.17-11.96,3.25-17.94,3.25-12.91,0-23.37-3.36-32.07-10.18-9.38-7.26-14.27-17.01-14.27-29.03s5.16-21.66,14.81-28.92c8.83-6.72,20.25-10.29,33.16-10.29,5.3,0,10.46,.76,15.49,2.27l3.13,20.26c-5.98-3.57-11.55-5.42-17.26-5.42-14.95,0-25.95,8.77-25.95,21.88s10.87,21.88,26.23,21.88c6.52,0,11.82-1.84,17.8-5.63l-3.13,19.93Zm22.97-64.56c7.5-6.82,16.98-10.51,27.67-10.51s20.17,3.68,27.67,10.51c8.16,7.47,12.24,17.01,12.24,28.6s-4.19,21.34-12.24,28.7c-7.5,6.82-17.09,10.51-27.67,10.51s-20.17-3.68-27.67-10.51c-8.16-7.37-12.23-17.01-12.23-28.7s4.08-21.23,12.23-28.6Zm48.72,28.38c0-13.11-8.93-21.88-21.05-21.88s-21.05,8.77-21.05,21.88,8.93,21.77,21.05,21.77,21.05-8.66,21.05-21.77Zm30.09-36.18l18.63-1.84v58.38h22.05l-4.85,17.33h-35.83v-73.87Zm49.49,0l18.63-1.84v58.38h22.05l-4.85,17.33h-35.83v-73.87Zm49.16-1.08h42.88l3.42,15.49h-27.67v13.54h19.62v15.6h-19.62v14.41h29.32l-4.41,15.92h-43.54v-74.96Zm104.82,73.44c-4.85,2.17-9.7,3.25-14.55,3.25-10.47,0-18.96-3.36-26.01-10.18-7.61-7.26-11.57-17.01-11.57-29.03s4.19-21.66,12.01-28.92c7.17-6.72,16.42-10.29,26.9-10.29,4.3,0,8.49,.76,12.57,2.27l2.53,20.26c-4.85-3.57-9.37-5.42-14-5.42-12.13,0-21.05,8.77-21.05,21.88s8.82,21.88,21.27,21.88c5.29,0,9.59-1.84,14.44-5.63l-2.54,19.93Zm42.99,.65l-18.63,1.84v-58.71h-19.84l5.07-17.22h51.37v17.22h-17.97v56.87Z" fill="#fff"/><path d="M218.6,301.02l11.44,39.6,19.14-41.66,18.92,41.66,11.89-39.6,19.03,2.17-28.43,82.28-21.29-49.32-22.77,49.32-26.5-82.28,18.58-2.17Zm87.44,1.95l19.14-1.95v79.08l-19.14,1.95v-79.08Zm34.2-5.26l50.97,46.69v-41.54l18.58-2.29v84.69l-50.86-47.15v42.46l-18.69,1.83v-84.69Zm95.14,60.43l12.46,12.47-12.46,12.47-12.46-12.47,12.46-12.47Zm-10.42-56.31l19.82-2.75-1.36,55.05-16.76,1.95-1.7-54.24Z" fill="#fff"/><path d="M167.69,339.09c1.16-.48,2.24-.82,3.24-1.03,1-.21,2.02-.31,3.06-.31,1.46,0,2.65,.21,3.56,.63,.91,.42,1.63,1,2.15,1.75,.52,.75,.87,1.63,1.05,2.65,.18,1.02,.27,2.12,.27,3.32,0,4.84-1.25,9.45-3.74,13.82l7.03,6.64c-.12,2.27-.91,4.13-2.37,5.56-1.46,1.44-3.2,2.15-5.2,2.15-2.43,0-4.81-1.14-7.12-3.41l-1.73-1.61c-2.25,1.61-4.82,2.89-7.71,3.81-2.89,.93-6.1,1.39-9.63,1.39s-6.76-.46-9.5-1.39c-2.74-.93-5.05-2.2-6.94-3.81-1.89-1.61-3.32-3.51-4.29-5.7-.97-2.18-1.46-4.56-1.46-7.13,0-2.21,.33-4.19,1-5.92,.67-1.73,1.55-3.26,2.65-4.58,1.1-1.32,2.31-2.44,3.65-3.36,1.34-.93,2.71-1.69,4.11-2.29-1.22-1.44-2.09-2.96-2.6-4.58-.52-1.61-.78-3.14-.78-4.57,0-1.85,.4-3.59,1.19-5.2,.79-1.61,1.92-3.02,3.38-4.22,1.46-1.2,3.24-2.12,5.34-2.78,2.1-.66,4.49-.99,7.17-.99,3.83,0,6.54,.67,8.13,2.02,1.58,1.35,2.37,3.07,2.37,5.16,0,1.02-.2,2-.59,2.96-.4,.96-.99,1.83-1.78,2.6-.67-.3-1.45-.54-2.33-.72-.88-.18-1.81-.27-2.79-.27-1.58,0-2.89,.24-3.93,.72-1.04,.48-1.55,1.35-1.55,2.6,0,.9,.4,1.81,1.19,2.74,.79,.93,1.76,1.96,2.92,3.09l11.69,11.13c.3-1.32,.53-2.87,.68-4.67,.15-1.79,.23-3.86,.23-6.19Zm-24.74,16.33c0,2.09,.71,3.84,2.15,5.25,1.43,1.41,3.55,2.11,6.35,2.11,1.22,0,2.49-.16,3.83-.49,1.34-.33,2.62-.88,3.83-1.66l-11.69-11.57c-1.46,.66-2.57,1.56-3.33,2.69-.76,1.14-1.14,2.36-1.14,3.68Z" fill="#fff"/></g></g></svg>