<?xml version="1.0" encoding="UTF-8"?><svg id="a" xmlns="http://www.w3.org/2000/svg" viewBox="0 0 190 345"><path id="b" d="M190,0H0V345H190V0Z" fill="#fa0"/><path id="c" d="M190,265H0v80H190v-80Z" fill="#fa0"/><path d="M126.42,124.67c1.66,1.25,2.25,2.9,1.84,5.19-.61,3.47-1.19,6.94-1.78,10.4-.82,4.89-1.68,9.95-2.59,14.91-.45,2.46,.13,4.25,1.94,5.98,3.26,3.12,6.54,6.32,9.71,9.43,2.81,2.74,5.62,5.49,8.45,8.21,1.85,1.78,2.41,3.56,1.78,5.61-.58,1.9-2.01,2.99-4.35,3.33-1.31,.19-2.62,.39-3.93,.59-1.09,.17-2.18,.33-3.27,.49-5.07,.74-10.14,1.48-15.29,2.23l-5.5,.8c-.46,.07-.87,.35-1.09,.76-.17,.31-.34,.61-.5,.9-.34,.61-.66,1.18-.95,1.76-3.72,7.5-7.43,15.01-11.14,22.51-.55,1.1-1.21,2.21-2.35,2.86-.8,.45-1.62,.68-2.44,.68-1.85,0-3.48-1.14-4.47-3.12-3.63-7.23-7.45-14.95-11.68-23.58-.91-1.86-2.19-2.81-4.14-3.08-5.33-.73-10.75-1.53-16-2.3-3.27-.48-6.55-.97-9.82-1.44-2.63-.38-4.07-1.45-4.66-3.47-.6-2.04-.02-3.77,1.89-5.6,3.13-3,6.28-6.09,9.33-9.07,2.93-2.87,5.97-5.83,8.97-8.72,1.63-1.56,2.17-3.25,1.77-5.47-1.42-7.79-2.75-15.62-4.2-24.3-.05-.27-.1-.53-.15-.8-.16-.83-.32-1.62-.21-2.35,.38-2.55,2.27-4.26,4.7-4.26,.9,0,1.8,.23,2.69,.68,3.57,1.82,7.17,3.72,10.66,5.56,3.03,1.6,6.16,3.25,9.26,4.84,1.09,.56,1.93,1.03,2.61,1.4,1.56,.87,2.41,1.34,3.49,1.34s1.95-.48,3.53-1.35c.69-.38,1.55-.86,2.66-1.43,4.04-2.07,8.12-4.23,12.06-6.31,2.56-1.35,5.12-2.71,7.68-4.04,.97-.5,1.89-.76,2.75-.76,.97,0,1.87,.32,2.73,.97Zm-34.58,22.67c-3.73-2.03-7.56-4.01-11.26-5.93l-2.94-1.53c-.08-.04-.16-.1-.25-.15-.42-.27-1.06-.67-1.97-.67-.3,0-.6,.04-.91,.13-.73,.21-1.19,.93-1.06,1.68l2.53,14.89c.16,.94,.32,1.89,.51,2.83,.46,2.35-.12,4.19-1.82,5.81-3.4,3.24-6.81,6.59-10.1,9.83l-1.24,1.22c-.07,.07-.16,.14-.24,.22-.52,.45-1.39,1.21-1.53,2.73-.07,.78,.48,1.49,1.26,1.6l2.84,.43c2.02,.31,4.04,.62,6.06,.91,1.35,.2,2.71,.39,4.06,.58,1.72,.24,3.43,.49,5.15,.74,2.04,.31,3.41,1.33,4.33,3.22,2.35,4.81,4.7,9.54,7.11,14.36,.06,.12,.11,.24,.16,.37,.26,.61,.65,1.53,1.68,2.1,.22,.12,.47,.19,.72,.19,.13,0,.27-.02,.39-.05,1.38-.38,1.83-1.52,2.07-2.13,.04-.11,.09-.23,.14-.33l1.26-2.51c1.88-3.75,3.83-7.64,5.66-11.51,1.1-2.34,2.72-3.48,5.41-3.82,4.07-.52,8.18-1.14,12.15-1.74,1.67-.25,3.35-.51,5.01-.75,.63-.09,1.14-.58,1.25-1.21,.32-1.78-.77-2.67-1.3-3.1-.08-.06-.15-.12-.22-.18l-1.98-1.96c-2.95-2.92-6-5.93-9.09-8.81-2.03-1.88-2.66-3.87-2.13-6.65,.77-4.01,1.45-8.13,2.11-12.11,.29-1.72,.57-3.46,.87-5.2,.07-.39-.03-.79-.26-1.12s-.58-.54-.97-.6c-.21-.03-.42-.05-.6-.05h0c-1.01,0-1.7,.42-2.15,.7-.09,.06-.18,.11-.27,.16l-2.69,1.4c-3.78,1.96-7.68,4-11.5,6.05-1.08,.58-2.09,.87-3.1,.87s-2.06-.29-3.17-.9Z" fill="#fff"/></svg>