<?xml version="1.0" encoding="UTF-8"?><svg id="a" xmlns="http://www.w3.org/2000/svg" viewBox="0 0 345 190"><path id="b" d="M345,0V190H0V0H345Z" fill="#008558"/><path id="c" d="M80,0V190H0V0H80Z" fill="#008558"/><path d="M220.33,126.42c-1.25,1.66-2.9,2.25-5.19,1.84-3.47-.61-6.94-1.19-10.4-1.78-4.89-.82-9.95-1.68-14.91-2.59-2.46-.45-4.25,.13-5.98,1.94-3.12,3.26-6.32,6.54-9.43,9.71-2.74,2.81-5.49,5.62-8.21,8.45-1.78,1.85-3.56,2.41-5.61,1.78-1.9-.58-2.99-2.01-3.33-4.35-.19-1.31-.39-2.62-.59-3.93-.17-1.09-.33-2.18-.49-3.27-.74-5.07-1.48-10.14-2.23-15.29l-.8-5.5c-.07-.46-.35-.87-.76-1.09-.31-.17-.61-.34-.9-.5-.61-.34-1.18-.66-1.76-.95-7.5-3.72-15.01-7.43-22.51-11.14-1.1-.55-2.21-1.21-2.86-2.35-.45-.8-.68-1.62-.68-2.44,0-1.85,1.14-3.48,3.12-4.47,7.23-3.63,14.95-7.45,23.58-11.68,1.86-.91,2.81-2.19,3.08-4.14,.73-5.33,1.53-10.75,2.3-16,.48-3.27,.97-6.55,1.44-9.82,.38-2.63,1.45-4.07,3.47-4.66,2.04-.6,3.77-.02,5.6,1.89,3,3.13,6.09,6.28,9.07,9.33,2.87,2.93,5.83,5.97,8.72,8.97,1.56,1.63,3.25,2.17,5.47,1.77,7.79-1.42,15.62-2.75,24.3-4.2,.27-.05,.53-.1,.8-.15,.83-.16,1.62-.32,2.35-.21,2.55,.38,4.26,2.27,4.26,4.7,0,.9-.23,1.8-.68,2.69-1.82,3.57-3.72,7.17-5.56,10.66-1.6,3.03-3.25,6.16-4.84,9.26-.56,1.09-1.03,1.93-1.4,2.61-.87,1.56-1.34,2.41-1.34,3.49s.48,1.95,1.35,3.53c.38,.69,.86,1.55,1.43,2.66,2.07,4.04,4.23,8.12,6.31,12.06,1.35,2.56,2.71,5.12,4.04,7.68,.5,.97,.76,1.89,.76,2.75,0,.97-.32,1.87-.97,2.73Zm-22.67-34.58c2.03-3.73,4.01-7.56,5.93-11.26l1.53-2.94c.04-.08,.1-.16,.15-.25,.27-.42,.67-1.06,.67-1.97,0-.3-.04-.6-.13-.91-.21-.73-.93-1.19-1.68-1.06l-14.89,2.53c-.94,.16-1.89,.32-2.83,.51-2.35,.46-4.19-.12-5.81-1.82-3.24-3.4-6.59-6.81-9.83-10.1l-1.22-1.24c-.07-.07-.14-.16-.22-.24-.45-.52-1.21-1.39-2.73-1.53-.78-.07-1.49,.48-1.6,1.26l-.43,2.84c-.31,2.02-.62,4.04-.91,6.06-.2,1.35-.39,2.71-.58,4.06-.24,1.72-.49,3.43-.74,5.15-.31,2.04-1.33,3.41-3.22,4.33-4.81,2.35-9.54,4.7-14.36,7.11-.12,.06-.24,.11-.37,.16-.61,.26-1.53,.65-2.1,1.68-.12,.22-.19,.47-.19,.72,0,.13,.02,.27,.05,.39,.38,1.38,1.52,1.83,2.13,2.07,.11,.04,.23,.09,.33,.14l2.51,1.26c3.75,1.88,7.64,3.83,11.51,5.66,2.34,1.1,3.48,2.72,3.82,5.41,.52,4.07,1.14,8.18,1.74,12.15,.25,1.67,.51,3.35,.75,5.01,.09,.63,.58,1.14,1.21,1.25,1.78,.32,2.67-.77,3.1-1.3,.06-.08,.12-.15,.18-.22l1.96-1.98c2.92-2.95,5.93-6,8.81-9.09,1.88-2.03,3.87-2.66,6.65-2.13,4.01,.77,8.13,1.45,12.11,2.11,1.72,.29,3.46,.57,5.2,.87,.39,.07,.79-.03,1.12-.26s.54-.58,.6-.97c.03-.21,.05-.42,.05-.6h0c0-1.01-.42-1.7-.7-2.15-.06-.09-.11-.18-.16-.27l-1.4-2.69c-1.96-3.78-4-7.68-6.05-11.5-.58-1.08-.87-2.09-.87-3.1s.29-2.06,.9-3.17Z" fill="#fff"/></svg>