<?xml version="1.0" encoding="UTF-8"?><svg id="a" xmlns="http://www.w3.org/2000/svg" viewBox="0 0 190 345"><path id="b" d="M190,345H0V0H190V345Z" fill="#5632d8"/><path d="M123.69,221.3c-.86,0-1.79-.26-2.75-.76-2.56-1.34-5.12-2.69-7.68-4.04-3.94-2.08-8.02-4.24-12.06-6.31-1.11-.57-1.97-1.04-2.66-1.43-1.58-.87-2.44-1.35-3.53-1.35s-1.94,.48-3.49,1.34c-.68,.38-1.52,.85-2.61,1.4-3.1,1.59-6.23,3.25-9.26,4.84-3.49,1.84-7.09,3.75-10.66,5.56-.89,.45-1.8,.68-2.69,.68-2.43,0-4.32-1.71-4.7-4.26-.11-.72,.05-1.51,.21-2.35,.05-.27,.1-.53,.15-.8,1.46-8.69,2.78-16.51,4.2-24.3,.4-2.22-.14-3.91-1.77-5.47-3.01-2.89-6.04-5.85-8.97-8.72-3.05-2.98-6.2-6.06-9.33-9.07-1.9-1.83-2.49-3.55-1.89-5.6,.59-2.02,2.03-3.09,4.66-3.47,3.28-.47,6.55-.95,9.82-1.44,5.24-.78,10.66-1.58,16-2.3,1.95-.27,3.22-1.21,4.14-3.08,4.23-8.63,8.04-16.35,11.68-23.58,1-1.98,2.63-3.12,4.47-3.12,.82,0,1.65,.23,2.44,.68,1.14,.65,1.8,1.76,2.35,2.86,3.7,7.51,7.42,15.01,11.14,22.51,.29,.58,.61,1.15,.95,1.76,.16,.29,.33,.58,.5,.9,.22,.41,.63,.69,1.09,.76l5.5,.8c5.15,.75,10.22,1.48,15.29,2.23,1.09,.16,2.18,.33,3.27,.49,1.31,.2,2.62,.4,3.93,.59,2.35,.34,3.77,1.43,4.35,3.33,.63,2.06,.07,3.84-1.78,5.61-2.83,2.72-5.64,5.47-8.45,8.21-3.17,3.1-6.46,6.31-9.71,9.43-1.81,1.74-2.4,3.52-1.94,5.98,.91,4.96,1.76,10.02,2.59,14.91,.58,3.47,1.17,6.94,1.78,10.4,.4,2.29-.18,3.94-1.84,5.19-.87,.65-1.76,.97-2.73,.97Zm-28.67-24.53c1.01,0,2.02,.28,3.1,.87,3.82,2.06,7.72,4.09,11.5,6.05l2.69,1.4c.09,.05,.18,.1,.27,.16,.45,.28,1.14,.7,2.15,.7h0c.19,0,.39-.02,.6-.05,.39-.06,.74-.28,.97-.6s.32-.73,.26-1.12c-.3-1.74-.58-3.48-.87-5.2-.66-3.98-1.34-8.1-2.11-12.11-.53-2.78,.11-4.77,2.13-6.65,3.1-2.88,6.15-5.89,9.09-8.81l1.98-1.96c.07-.06,.14-.12,.22-.18,.52-.43,1.62-1.32,1.3-3.1-.11-.63-.62-1.12-1.25-1.21-1.67-.25-3.34-.5-5.01-.75-3.97-.6-8.08-1.22-12.15-1.74-2.69-.34-4.31-1.48-5.41-3.82-1.83-3.87-3.78-7.75-5.66-11.51l-1.26-2.51c-.05-.1-.09-.22-.14-.33-.24-.61-.69-1.75-2.07-2.13-.13-.04-.26-.05-.39-.05-.25,0-.5,.06-.72,.19-1.03,.57-1.42,1.49-1.68,2.1-.05,.12-.1,.25-.16,.37-2.41,4.82-4.76,9.55-7.11,14.36-.92,1.89-2.3,2.91-4.33,3.22-1.71,.26-3.43,.5-5.15,.74-1.35,.19-2.71,.38-4.06,.58-2.02,.3-4.04,.61-6.06,.91l-2.84,.43c-.78,.12-1.33,.82-1.26,1.6,.14,1.52,1.01,2.28,1.53,2.73,.08,.07,.17,.14,.24,.22l1.24,1.22c3.29,3.24,6.7,6.58,10.1,9.83,1.7,1.62,2.28,3.47,1.82,5.81-.18,.94-.34,1.88-.51,2.83l-2.53,14.89c-.13,.75,.33,1.47,1.06,1.68,.31,.09,.61,.13,.91,.13,.92,0,1.55-.4,1.97-.67,.08-.05,.16-.11,.25-.15l2.94-1.53c3.7-1.92,7.53-3.9,11.26-5.93,1.11-.6,2.15-.9,3.17-.9Z" fill="#fff"/><path id="c" d="M190,80H0V0H190V80Z" fill="#5632d8"/></svg>