<?xml version="1.0" encoding="UTF-8"?><svg id="a" xmlns="http://www.w3.org/2000/svg" viewBox="0 0 345 190"><path id="b" d="M0,0V190H345V0H0Z" fill="#e64f00"/><path id="c" d="M265,0V190h80V0h-80Z" fill="#e64f00"/><path d="M123.7,123.69c0-.86,.26-1.79,.76-2.75,1.34-2.56,2.69-5.12,4.04-7.68,2.08-3.94,4.24-8.02,6.31-12.06,.57-1.11,1.04-1.97,1.43-2.66,.87-1.58,1.35-2.44,1.35-3.53s-.48-1.94-1.34-3.49c-.38-.68-.85-1.52-1.4-2.61-1.59-3.1-3.25-6.23-4.84-9.26-1.84-3.49-3.75-7.09-5.56-10.66-.45-.89-.68-1.8-.68-2.69,0-2.43,1.71-4.32,4.26-4.7,.72-.11,1.51,.05,2.35,.21,.27,.05,.53,.1,.8,.15,8.69,1.46,16.51,2.78,24.3,4.2,2.22,.4,3.91-.14,5.47-1.77,2.89-3.01,5.85-6.04,8.72-8.97,2.98-3.05,6.06-6.2,9.07-9.33,1.83-1.9,3.55-2.49,5.6-1.89,2.02,.59,3.09,2.03,3.47,4.66,.47,3.28,.95,6.55,1.44,9.82,.78,5.24,1.58,10.66,2.3,16,.27,1.95,1.21,3.22,3.08,4.14,8.63,4.23,16.35,8.04,23.58,11.68,1.98,1,3.12,2.63,3.12,4.47,0,.82-.23,1.65-.68,2.44-.65,1.14-1.76,1.8-2.86,2.35-7.51,3.7-15.01,7.42-22.51,11.14-.58,.29-1.15,.61-1.76,.95-.29,.16-.58,.33-.9,.5-.41,.22-.69,.63-.76,1.09l-.8,5.5c-.75,5.15-1.48,10.22-2.23,15.29-.16,1.09-.33,2.18-.49,3.27-.2,1.31-.4,2.62-.59,3.93-.34,2.35-1.43,3.77-3.33,4.35-2.06,.63-3.84,.07-5.61-1.78-2.72-2.83-5.47-5.64-8.21-8.45-3.1-3.17-6.31-6.46-9.43-9.71-1.74-1.81-3.52-2.4-5.98-1.94-4.96,.91-10.02,1.76-14.91,2.59-3.47,.58-6.94,1.17-10.4,1.78-2.29,.4-3.94-.18-5.19-1.84-.65-.87-.97-1.76-.97-2.73Zm24.53-28.67c0,1.01-.28,2.02-.87,3.1-2.06,3.82-4.09,7.72-6.05,11.5l-1.4,2.69c-.05,.09-.1,.18-.16,.27-.28,.45-.7,1.14-.7,2.15h0c0,.19,.02,.39,.05,.6,.06,.39,.28,.74,.6,.97s.73,.32,1.12,.26c1.74-.3,3.48-.58,5.2-.87,3.98-.66,8.1-1.34,12.11-2.11,2.78-.53,4.77,.11,6.65,2.13,2.88,3.1,5.89,6.15,8.81,9.09l1.96,1.98c.06,.07,.12,.14,.18,.22,.43,.52,1.32,1.62,3.1,1.3,.63-.11,1.12-.62,1.21-1.25,.25-1.67,.5-3.34,.75-5.01,.6-3.97,1.22-8.08,1.74-12.15,.34-2.69,1.48-4.31,3.82-5.41,3.87-1.83,7.75-3.78,11.51-5.66l2.51-1.26c.1-.05,.22-.09,.33-.14,.61-.24,1.75-.69,2.13-2.07,.04-.13,.05-.26,.05-.39,0-.25-.06-.5-.19-.72-.57-1.03-1.49-1.42-2.1-1.68-.12-.05-.25-.1-.37-.16-4.82-2.41-9.55-4.76-14.36-7.11-1.89-.92-2.91-2.3-3.22-4.33-.26-1.71-.5-3.43-.74-5.15-.19-1.35-.38-2.71-.58-4.06-.3-2.02-.61-4.04-.91-6.06l-.43-2.84c-.12-.78-.82-1.33-1.6-1.26-1.52,.14-2.28,1.01-2.73,1.53-.07,.08-.14,.17-.22,.24l-1.22,1.24c-3.24,3.29-6.58,6.7-9.83,10.1-1.62,1.7-3.47,2.28-5.81,1.82-.94-.18-1.88-.34-2.83-.51l-14.89-2.53c-.75-.13-1.47,.33-1.68,1.06-.09,.31-.13,.61-.13,.91,0,.92,.4,1.55,.67,1.97,.05,.08,.11,.16,.15,.25l1.53,2.94c1.92,3.7,3.9,7.53,5.93,11.26,.6,1.11,.9,2.15,.9,3.17Z" fill="#fff"/></svg>