<?xml version="1.0" encoding="UTF-8"?><svg id="a" xmlns="http://www.w3.org/2000/svg" viewBox="0 0 345 190"><path id="b" d="M345,0V190H0V0H345Z" fill="#e1ffec"/><g><path d="M269.84,98.08c-.36,10.79-8.8,24.38-19.74,27.5-27.5,9.16-50.95-35.44-70.36-50.98-18.04-17.89-46.94,7.32-34.84,29.77,5.2,9.71,19.06,16.73,27.31,10.21,8.52-11.11,19.77,6,19.88,14.05-2.63,18.33-40.1,16.41-50.57,8.13-59.49-40.33,5.66-128.82,57.69-78.02,12.37,12.9,22.27,26.9,34.73,39.66,4.81,5.76,12.25-.7,11.54-4.18-.42-3.51,.2-7.69,2.8-9.39,6.8-3.92,22.07,3.79,21.56,13.23Z" fill="#0c3081"/><path d="M146.34,72.29c-23.76,18.9,3.56,63.52,29.35,45.78,3.37-3.7,5.19-2.03,7.36,1.25,6.74,10.17,5.84,12.9-5.68,16.55-24.46,7.74-47.58-6.46-53.61-32.92-10.46-41.13,44.69-73.16,72.03-40.65,12.17,12.68,22.53,27.23,34.85,39.78,6.78,7.88,20.73,1.76,19.61-8.93-.37-4.76,1.02-5.26,5.01-3.77,10.48,3.91,11.72,6.48,7.52,17.4-4.97,12.92-19.91,19.42-31.34,12.17-26.05-13.7-53.41-79.05-85.1-46.67Z" fill="#008558"/><path d="M314,95.06c-.21,25.31-37.2,24.97-37.04-.39,1.38-24.7,36.34-25.14,37.04,.39Z" fill="#0c3081"/><path d="M295.42,109.24c-18.24-.46-17.42-28.34,.57-28.51,17.35,.65,17.3,28.49-.57,28.51Z" fill="#008558"/></g><g><path d="M68.26,132.93c-1.16,1.21-2.02,2.66-2.02,4.58,0,3.45,2.66,5.72,5.91,5.72s5.91-2.19,5.91-5.74c0-2.05-.76-3.45-2.34-4.93l1.87-2.14c2.04,1.58,3.43,4.09,3.43,7.07,0,5.32-3.75,9.07-8.87,9.07s-8.87-3.82-8.87-9.02c0-2.74,1.26-5.08,2.96-6.63l2.02,2.02Z" fill="#071b3f"/><path d="M73.02,116.42v8.26h7.76v3.33h-17.25v-3.33h6.53v-8.26h-6.53v-3.33h17.25v3.33h-7.76Z" fill="#071b3f"/><path d="M80.78,110.87l-17.25-7.15v-2.46l17.25-7.15v3.52l-3.82,1.58v6.65l3.82,1.58v3.43Zm-6.78-6.24v-4.21l-5.3,2.07,5.3,2.14Z" fill="#071b3f"/><path d="M80.78,76.98v2.46l-11.19,9.17h11.19v3.28h-17.25v-2.46l11.19-9.17h-11.19v-3.28h17.25Z" fill="#071b3f"/><path d="M68.26,60.24c-1.16,1.21-2.02,2.66-2.02,4.58,0,3.45,2.66,5.72,5.91,5.72s5.91-2.19,5.91-5.74c0-2.05-.76-3.45-2.34-4.93l1.87-2.14c2.04,1.58,3.43,4.09,3.43,7.07,0,5.32-3.75,9.07-8.87,9.07s-8.87-3.82-8.87-9.02c0-2.74,1.26-5.08,2.96-6.63l2.02,2.02Z" fill="#071b3f"/><path d="M66.49,51.98h3.57v-5.54h2.96v5.54h4.81v-7.27h2.96v10.6h-17.25v-10.35h2.96v7.02Z" fill="#071b3f"/></g></svg>