<?xml version="1.0" encoding="UTF-8"?><svg id="a" xmlns="http://www.w3.org/2000/svg" viewBox="0 0 345 190"><path id="b" d="M345,0V190H0V0H345Z" fill="#e1ffec"/><path id="c" d="M80,0V190H0V0H80Z" fill="#1f69ff"/><path id="d" d="M80.11,190V0h13V190h-13Z" fill="#0c3081"/><g><path d="M157.01,163.83h7.12v3.37h-17.5v-6.55c0-2.45,.8-3.95,2.05-4.9,.88-.67,1.95-1.05,3.12-1.05s2.27,.38,3.15,1.05c1.25,.95,2.05,2.45,2.05,4.9v3.17Zm-2.95-2.75c0-1.42-.3-2.05-.78-2.45-.4-.35-.9-.55-1.47-.55s-1.05,.2-1.45,.55c-.47,.4-.78,1.03-.78,2.45v2.75h4.47v-2.75Z" fill="#071b3f"/><path d="M164.14,155.3l-17.5-7.25v-2.5l17.5-7.25v3.57l-3.88,1.6v6.75l3.88,1.6v3.47Zm-6.87-6.32v-4.27l-5.38,2.1,5.38,2.17Z" fill="#071b3f"/><path d="M156.19,127.33l7.95-6.02v4.05l-7.75,5.8v1.27h7.75v3.37h-17.5v-6.67c0-2.1,.78-3.5,1.95-4.37,.8-.6,1.8-.95,2.88-.95,2.25,0,4.05,1.3,4.72,3.52Zm-2.67,2.32c0-1.12-.28-1.67-.7-2.02-.35-.28-.8-.45-1.28-.45s-.9,.17-1.25,.45c-.42,.35-.7,.9-.7,2.02v2.77h3.92v-2.77Z" fill="#071b3f"/><path d="M155.66,115.88h8.47v3.37h-17.5v-3.37h7l-7-6.67v-4.32l8.05,7.7,9.45-8.2v4.27l-8.47,7.22Z" fill="#071b3f"/><path d="M157.01,93.15h7.12v3.37h-17.5v-6.55c0-2.45,.8-3.95,2.05-4.9,.88-.67,1.95-1.05,3.12-1.05s2.27,.38,3.15,1.05c1.25,.95,2.05,2.45,2.05,4.9v3.17Zm-2.95-2.75c0-1.42-.3-2.05-.78-2.45-.4-.35-.9-.55-1.47-.55s-1.05,.2-1.45,.55c-.47,.4-.78,1.03-.78,2.45v2.75h4.47v-2.75Z" fill="#071b3f"/><path d="M146.64,81.05v-3.37h14.5v-7.37h3v10.75h-17.5Z" fill="#071b3f"/><path d="M164.14,69.3l-17.5-7.25v-2.5l17.5-7.25v3.57l-3.88,1.6v6.75l3.88,1.6v3.47Zm-6.87-6.32v-4.27l-5.38,2.1,5.38,2.17Z" fill="#071b3f"/><path d="M151.44,37.83c-1.18,1.22-2.05,2.7-2.05,4.65,0,3.5,2.7,5.8,6,5.8s6-2.22,6-5.82c0-2.08-.78-3.5-2.38-5l1.9-2.17c2.07,1.6,3.47,4.15,3.47,7.17,0,5.4-3.8,9.2-9,9.2s-9-3.87-9-9.15c0-2.77,1.28-5.15,3-6.72l2.05,2.05Z" fill="#071b3f"/><path d="M149.64,29.2h3.62v-5.62h3v5.62h4.87v-7.37h3v10.75h-17.5v-10.5h3v7.12Z" fill="#071b3f"/></g></svg>