<?xml version="1.0" encoding="UTF-8"?><svg id="a" xmlns="http://www.w3.org/2000/svg" viewBox="0 0 190 345"><path id="b" d="M190,345H0V0H190V345Z" fill="#e1ffec"/><g><path d="M98.95,76.42c10.79,.36,24.38,8.8,27.5,19.74,9.16,27.5-35.44,50.95-50.98,70.36-17.89,18.04,7.32,46.94,29.77,34.84,9.71-5.2,16.73-19.06,10.21-27.31-11.11-8.52,6-19.77,14.05-19.88,18.33,2.63,16.41,40.1,8.13,50.57-40.33,59.49-128.82-5.66-78.02-57.69,12.9-12.37,26.9-22.27,39.66-34.73,5.76-4.81-.7-12.25-4.18-11.54-3.51,.42-7.69-.2-9.39-2.8-3.92-6.8,3.79-22.07,13.23-21.56Z" fill="#0c3081"/><path d="M73.16,199.92c18.9,23.76,63.52-3.56,45.78-29.35-3.7-3.37-2.03-5.19,1.25-7.36,10.17-6.74,12.9-5.84,16.55,5.68,7.74,24.46-6.46,47.58-32.92,53.61-41.13,10.46-73.16-44.69-40.65-72.03,12.68-12.17,27.23-22.53,39.78-34.85,7.88-6.78,1.76-20.73-8.93-19.61-4.76,.37-5.26-1.02-3.77-5.01,3.91-10.48,6.48-11.72,17.4-7.52,12.92,4.97,19.42,19.91,12.17,31.34-13.7,26.05-79.05,53.41-46.67,85.1Z" fill="#e31e26"/><path d="M95.93,32.27c25.31,.21,24.97,37.2-.39,37.04-24.7-1.38-25.14-36.34,.39-37.04Z" fill="#0c3081"/><path d="M110.11,50.85c-.46,18.24-28.34,17.42-28.51-.57,.65-17.35,28.49-17.3,28.51,.57Z" fill="#e31e26"/></g><g><path d="M133.8,278.01c1.21,1.16,2.66,2.02,4.58,2.02,3.45,0,5.72-2.66,5.72-5.91s-2.19-5.91-5.74-5.91c-2.05,0-3.45,.76-4.93,2.34l-2.14-1.87c1.58-2.04,4.09-3.43,7.07-3.43,5.32,0,9.07,3.75,9.07,8.87s-3.82,8.87-9.02,8.87c-2.74,0-5.08-1.26-6.63-2.96l2.02-2.02Z" fill="#071b3f"/><path d="M117.29,273.25h8.26v-7.76h3.33v17.25h-3.33v-6.53h-8.26v6.53h-3.33v-17.25h3.33v7.76Z" fill="#071b3f"/><path d="M111.74,265.49l-7.15,17.25h-2.46l-7.15-17.25h3.52l1.58,3.82h6.65l1.58-3.82h3.43Zm-6.24,6.78h-4.21l2.07,5.3,2.14-5.3Z" fill="#071b3f"/><path d="M77.85,265.49h2.46l9.17,11.19v-11.19h3.28v17.25h-2.46l-9.17-11.19v11.19h-3.28v-17.25Z" fill="#071b3f"/><path d="M61.11,278.01c1.21,1.16,2.66,2.02,4.58,2.02,3.45,0,5.72-2.66,5.72-5.91s-2.19-5.91-5.74-5.91c-2.05,0-3.45,.76-4.93,2.34l-2.14-1.87c1.58-2.04,4.09-3.43,7.07-3.43,5.32,0,9.07,3.75,9.07,8.87s-3.82,8.87-9.02,8.87c-2.74,0-5.08-1.26-6.63-2.96l2.02-2.02Z" fill="#071b3f"/><path d="M52.85,279.78v-3.57h-5.54v-2.96h5.54v-4.81h-7.27v-2.96h10.6v17.25h-10.35v-2.96h7.02Z" fill="#071b3f"/></g></svg>