<?xml version="1.0" encoding="UTF-8"?><svg id="a" xmlns="http://www.w3.org/2000/svg" viewBox="0 0 342.89 342.89"><rect width="342.41" height="342.89" fill="#156cd3"/><g><path d="M266.64,126.48l-37.09-21.19,17.35,43.96-43.81-17.51,20.87,37.41-14.83,11.63-40.79-80.32,51.1,21.5-20.47-52.13,78.98,42.13-11.31,14.52Zm-62.22,59.36l-11.88,14.74-58.2-58.2,11.88-14.74,58.2,58.2Zm-19.91,27.65l-69.8,1.07,30.57,30.57-11.23,14.6-62.33-62.33,70.06-.66-31.25-31.25,11.64-14.34,62.33,62.33Zm-110.61,21.67l-17.84-.52-.52-17.84,17.84,.52,.52,17.84Zm48.68,34.19l-11.76,15.8-39.57-41.46,10.22-13.09,41.1,38.74Z" fill="#0e4072"/><g><path d="M281.64,127.48l-37.09-21.19,17.35,43.96-43.81-17.51,20.87,37.41-14.83,11.63-40.79-80.32,51.1,21.5-20.47-52.13,78.98,42.13-11.31,14.52Z" fill="#fff"/><path d="M219.42,186.83l-11.88,14.74-58.2-58.2,11.88-14.74,58.2,58.2Z" fill="#fff"/><path d="M199.51,214.49l-69.8,1.07,30.57,30.57-11.23,14.6-62.33-62.33,70.06-.66-31.25-31.25,11.64-14.34,62.33,62.33Z" fill="#fff"/><path d="M88.9,236.16l-17.84-.52-.52-17.84,17.84,.52,.52,17.84Zm48.68,34.19l-11.76,15.8-39.57-41.46,10.22-13.09,41.1,38.74Z" fill="#fff"/></g></g></svg>