<?xml version="1.0" encoding="UTF-8"?><svg id="a" xmlns="http://www.w3.org/2000/svg" viewBox="0 0 190 345"><path id="b" d="M190,345H0V0H190V345Z" fill="#e1ffec"/><g><g><path d="M71.09,219.07s-49.9,9.84-49.9,10.55,.36,1.79,.36,1.79l73.69,18.42,48.11-14.85s.89-1.25,.54-1.79-1.79-2.5-1.79-2.5l-71.01-11.63Z" fill="#fff"/><path d="M95.24,250.5c-.05,0-.11,0-.16-.02l-73.69-18.42c-.22-.06-.4-.22-.47-.44-.04-.12-.39-1.2-.39-2,0-.63,.46-.77,2.65-1.31,1.3-.32,3.21-.76,5.67-1.3,4.14-.91,9.92-2.12,17.16-3.6,12.33-2.52,24.83-4.98,24.95-5.01,.08-.02,.16-.02,.24,0l71.01,11.63c.17,.03,.33,.12,.43,.27,.06,.08,1.44,1.98,1.8,2.53,.55,.83-.2,2.06-.55,2.55-.09,.12-.21,.21-.35,.25l-48.11,14.85c-.06,.02-.13,.03-.2,.03Zm-73.16-19.65l73.14,18.28,47.71-14.72c.21-.34,.38-.72,.38-.89-.31-.45-1.21-1.71-1.58-2.22l-70.61-11.56c-18.33,3.61-45.62,9.15-49.2,10.28,.04,.28,.12,.58,.18,.82Z" fill="#071b3f"/></g><g><polygon points="148.36 238.56 177.51 192.95 171.61 181.33 141.02 230.16 148.36 238.56" fill="#009dcd"/><path d="M148.36,239.23c-.19,0-.38-.08-.51-.23l-7.33-8.41c-.19-.22-.22-.55-.06-.8l30.58-48.83c.13-.2,.35-.32,.6-.31,.24,.01,.46,.15,.57,.37l5.9,11.63c.11,.21,.09,.46-.03,.66l-29.15,45.61c-.11,.18-.3,.29-.52,.31-.02,0-.03,0-.05,0Zm-6.5-9.14l6.42,7.36,28.47-44.53-5.19-10.23-29.69,47.4Z" fill="#071b3f"/></g><g><polygon points="68.59 217.1 93.81 173.64 171.61 181.33 141.02 230.16 68.59 217.1" fill="#fff"/><path d="M141.02,230.83s-.08,0-.12-.01l-72.44-13.06c-.22-.04-.4-.18-.49-.38-.09-.2-.08-.43,.03-.62l25.22-43.46c.13-.23,.38-.36,.65-.33l77.8,7.69c.23,.02,.43,.16,.54,.37,.1,.21,.09,.45-.03,.65l-30.58,48.83c-.12,.2-.34,.31-.57,.31Zm-71.38-14.22l71.05,12.81,29.77-47.53-76.3-7.54-24.52,42.26Z" fill="#071b3f"/></g><g><polygon points="73.59 214.59 95.77 177.03 165.71 184.19 139.59 226.04 73.59 214.59" fill="#fff"/><path d="M139.59,226.71s-.08,0-.11,0l-66-11.45c-.22-.04-.4-.18-.49-.38-.09-.2-.08-.43,.03-.62l22.18-37.56c.13-.23,.39-.35,.65-.33l69.93,7.15c.23,.02,.43,.16,.53,.37,.1,.21,.09,.45-.03,.65l-26.11,41.85c-.12,.2-.34,.32-.57,.32Zm-64.93-12.61l64.6,11.2,25.3-40.56-68.44-7-21.47,36.35Z" fill="#071b3f"/></g><g><polygon points="80.93 215.49 98.63 183.83 161.59 190.99 139.59 226.04 80.93 215.49" fill="#009dcd"/><path d="M139.59,226.71s-.08,0-.12-.01l-58.66-10.55c-.21-.04-.4-.18-.49-.37-.09-.2-.08-.42,.02-.61l17.71-31.66c.13-.24,.39-.37,.66-.34l62.96,7.15c.23,.03,.43,.17,.53,.38,.1,.21,.09,.45-.04,.65l-22,35.06c-.12,.2-.34,.31-.57,.31Zm-57.62-11.72l57.29,10.31,21.19-33.77-61.46-6.98-17.03,30.45Z" fill="#071b3f"/></g><g><polygon points="165.88 190.54 172.68 199.84 176.97 192.68 171.07 182.49 165.88 190.54" fill="#fff"/><path d="M172.68,200.24c-.13,0-.25-.06-.32-.16l-6.8-9.3c-.1-.13-.1-.32-.01-.46l5.19-8.05c.08-.12,.21-.19,.35-.18,.14,0,.27,.08,.34,.2l5.9,10.19c.07,.13,.07,.28,0,.41l-4.29,7.15c-.07,.12-.19,.19-.33,.19h-.02Zm-6.31-9.72l6.28,8.59,3.86-6.43-5.45-9.42-4.68,7.26Z" fill="#071b3f"/></g><circle cx="172.23" cy="191.61" r=".8" fill="#071b3f"/><g><polygon points="141.74 229.44 148.54 238.74 152.83 231.59 146.93 221.39 141.74 229.44" fill="#fff"/><path d="M148.54,239.14c-.13,0-.25-.06-.32-.16l-6.8-9.3c-.1-.13-.1-.32-.01-.46l5.19-8.05c.08-.12,.2-.19,.35-.18,.14,0,.27,.08,.34,.2l5.9,10.19c.07,.13,.07,.28,0,.41l-4.29,7.15c-.07,.12-.19,.19-.33,.19h-.02Zm-6.31-9.72l6.28,8.59,3.86-6.43-5.45-9.42-4.68,7.26Z" fill="#071b3f"/></g><circle cx="147.82" cy="230.24" r=".8" fill="#071b3f"/><g><polygon points="154.88 208.51 161.68 217.81 165.97 210.66 160.07 200.47 154.88 208.51" fill="#fff"/><path d="M161.68,218.22c-.13,0-.25-.06-.32-.16l-6.8-9.3c-.1-.13-.1-.32-.01-.46l5.19-8.05c.08-.12,.2-.19,.35-.18,.14,0,.27,.08,.34,.2l5.9,10.19c.07,.13,.07,.28,0,.41l-4.29,7.15c-.07,.12-.19,.19-.33,.19h-.02Zm-6.31-9.72l6.28,8.59,3.86-6.43-5.45-9.42-4.68,7.26Z" fill="#071b3f"/></g><circle cx="161.23" cy="209.32" r=".8" fill="#071b3f"/><path d="M94.52,246.39s-.1,0-.15-.02c-.16-.04-16.37-3.66-32.42-7.31-9.43-2.14-16.95-3.87-22.37-5.14-10.46-2.45-10.52-2.54-10.73-2.85-.13-.19-.15-.44-.06-.65,.18-.43,.23-.55,7.73-2.06,3.8-.77,9.07-1.79,15.67-3.04,11.24-2.13,22.59-4.21,22.71-4.23,.08-.01,.15-.01,.23,0l64.92,10.37c.31,.05,.54,.31,.56,.62,.02,.31-.18,.6-.48,.69l-45.43,13.59c-.06,.02-.13,.03-.19,.03Zm-62.63-15.69c9.48,2.38,46.99,10.83,62.61,14.33l42.45-12.7-61.91-9.89c-14.91,2.73-36.31,6.74-43.14,8.27Z" fill="#071b3f"/><g><g><path d="M85.94,246.25c-2.5-2.5-4.29-4.29-3.76-8.23,.54-3.93,4.83-11.09,7.33-13.77,2.5-2.68,6.08-5.54,6.08-6.98s-1.25-2.68-2.15-3.22-2.68-1.61-2.5-3.04c.18-1.43,3.22-5.72,6.08-5.72s3.93,.36,5.01,0c1.07-.36,2.86-2.33,4.11-2.33s3.22,1.61,4.65,1.61,4.65-.36,5.72,.36c1.07,.72,3.93,2.68,3.4,4.29s-5.01,5.19-5.01,6.44,1.25,4.11,2.5,4.83c1.25,.72,6.44,4.29,7.33,5.9s3.22,5.37,3.04,6.98c-.18,1.61-.72,6.98-2.32,8.41-1.61,1.43-15.74,9.48-20.39,9.48s-11.63-.72-13.24-1.61-5.9-3.4-5.9-3.4Z" fill="#fff"/><path d="M105.07,251.93c-4.29,0-11.7-.66-13.56-1.69-1.6-.89-5.87-3.38-5.91-3.41-.05-.03-.1-.06-.14-.11-2.53-2.53-4.53-4.53-3.95-8.79,.56-4.07,4.94-11.39,7.51-14.14,.76-.81,1.6-1.63,2.42-2.42,1.47-1.42,3.48-3.37,3.48-4.1,0-1.14-1.09-2.21-1.82-2.64-.99-.6-3.06-1.83-2.82-3.7,.22-1.73,3.5-6.31,6.75-6.31,1.17,0,2.04,.06,2.73,.1,.96,.06,1.54,.1,2.06-.07,.34-.11,.87-.51,1.4-.9,.97-.72,1.97-1.46,2.93-1.46,.76,0,1.59,.4,2.47,.83,.78,.38,1.6,.78,2.18,.78,.3,0,.69-.02,1.15-.04,2.15-.09,4.01-.12,4.95,.51,1.08,.72,4.38,2.92,3.66,5.06-.3,.91-1.46,2.13-2.69,3.43-.83,.88-2.23,2.35-2.28,2.8,0,1.04,1.15,3.66,2.17,4.24,1.21,.69,6.58,4.35,7.59,6.16,.12,.22,.27,.48,.43,.76,1.51,2.64,2.85,5.13,2.69,6.61l-.02,.18c-.36,3.31-.98,7.28-2.53,8.65-.87,.78-4.86,3.17-9.2,5.37-3.84,1.95-8.98,4.28-11.64,4.28Zm-18.72-6.21c.58,.34,4.35,2.53,5.82,3.35,1.36,.76,7.88,1.53,12.91,1.53,1.84,0,5.86-1.51,11.03-4.13,4.39-2.23,8.21-4.56,8.91-5.18,.9-.8,1.6-3.43,2.08-7.8l.02-.18c.13-1.17-1.66-4.3-2.52-5.8-.17-.29-.32-.55-.44-.78-.76-1.37-5.68-4.85-7.08-5.65-1.51-.86-2.84-3.98-2.84-5.41,0-.88,1.01-1.98,2.65-3.72,.97-1.03,2.18-2.31,2.39-2.93,.12-.35,.05-1.4-3.13-3.52-.65-.43-2.84-.34-4.15-.28-.47,.02-.87,.04-1.2,.04-.89,0-1.85-.46-2.77-.91-.7-.34-1.43-.7-1.88-.7-.52,0-1.41,.66-2.13,1.2-.63,.47-1.23,.91-1.77,1.09-.77,.26-1.49,.21-2.57,.14-.68-.05-1.52-.1-2.65-.1-2.46,0-5.27,3.99-5.42,5.14-.12,1,1.43,1.93,2.18,2.38,.92,.55,2.47,1.97,2.47,3.79,0,1.23-1.48,2.72-3.89,5.06-.81,.78-1.64,1.59-2.37,2.37-2.47,2.64-6.65,9.7-7.16,13.4-.49,3.57,1.1,5.19,3.5,7.6Z" fill="#071b3f"/></g><g><path d="M56.96,239.28c.89-2.5,2.5-3.76,3.4-4.65s1.25-2.5,.18-3.58-2.5-1.97-1.43-2.5,3.22-1.61,4.29-1.43,2.68-.89,3.93-.89,2.5,.36,3.76,.18c1.25-.18,2.5-1.79,4.11-1.25s3.4,0,3.76,1.43c.36,1.43,.36,3.22-.54,4.47-.89,1.25-2.33,3.04-1.07,3.93s1.97,1.61,2.15,3.04,.36,1.79,0,3.04-2.5,6.26-5.01,6.44c-2.5,.18-10.19-2.15-12.52-3.4s-5.01-4.83-5.01-4.83Z" fill="#fff"/><path d="M74.22,248.18c-2.88,0-10.22-2.22-12.57-3.49-2.43-1.31-5.11-4.87-5.23-5.02-.14-.18-.17-.42-.1-.63,.82-2.3,2.22-3.63,3.15-4.5,.15-.14,.29-.27,.41-.39,.35-.35,.59-.84,.63-1.32,.04-.35-.01-.87-.46-1.31-.21-.21-.44-.42-.67-.62-.77-.69-1.43-1.29-1.33-2.03,.04-.27,.2-.65,.74-.92,1.65-.83,3.51-1.69,4.7-1.49,.4,.07,1.05-.17,1.68-.39,.71-.25,1.43-.51,2.14-.51,.54,0,1.07,.06,1.58,.12,.73,.08,1.42,.16,2.08,.07,.35-.05,.76-.29,1.2-.54,.86-.5,1.93-1.11,3.22-.68,.48,.16,1,.21,1.5,.26,1.04,.11,2.35,.24,2.7,1.64,.23,.92,.63,3.25-.64,5.02l-.19,.27c-.53,.74-1.34,1.85-1.24,2.44,.01,.08,.05,.18,.2,.29,1.41,1.01,2.22,1.87,2.42,3.5,.03,.27,.07,.49,.1,.7,.13,.91,.21,1.46-.12,2.61-.31,1.1-2.55,6.71-5.61,6.92-.1,0-.2,.01-.32,.01Zm-16.5-9.02c.68,.86,2.77,3.39,4.57,4.35,2.21,1.19,9.83,3.49,12.15,3.32,1.93-.14,4.01-4.57,4.41-5.95,.25-.88,.2-1.19,.08-2.05-.03-.21-.07-.45-.1-.73-.15-1.17-.7-1.74-1.87-2.58-.41-.29-.67-.7-.75-1.17-.19-1.14,.74-2.42,1.48-3.44l.19-.26c.65-.92,.82-2.38,.43-3.92-.11-.43-.42-.52-1.53-.63-.55-.06-1.17-.12-1.79-.33-.72-.24-1.37,.14-2.13,.57-.53,.3-1.08,.62-1.68,.71-.84,.12-1.64,.03-2.42-.06-.5-.06-.96-.11-1.43-.11s-1.09,.22-1.69,.43c-.79,.28-1.61,.58-2.36,.45-.84-.14-2.93,.89-3.81,1.33,.17,.22,.55,.56,.81,.8,.24,.21,.48,.43,.72,.67,1.07,1.07,1.29,3.05-.18,4.53-.13,.13-.28,.27-.43,.42-.83,.79-1.95,1.85-2.68,3.64Z" fill="#071b3f"/></g></g><g><polygon points="139.95 232.12 95.59 245.72 29.42 230.69 23.87 230.33 21.19 229.62 21.19 275.05 93.45 300.27 142.99 278.45 144.78 237.13 147.46 238.02 141.38 231.05 139.95 232.12" fill="#fff"/><path d="M93.45,300.94c-.07,0-.15-.01-.22-.04l-72.26-25.22c-.27-.09-.45-.35-.45-.63v-45.43c0-.21,.1-.4,.26-.53,.17-.13,.38-.17,.58-.12l2.62,.7,5.48,.35s.07,0,.11,.02l66,14.98,44.07-13.51,1.34-1c.28-.21,.68-.17,.91,.1l6.08,6.98c.2,.23,.22,.56,.05,.81-.17,.25-.48,.36-.77,.26l-1.84-.61-1.75,40.43c-.01,.26-.17,.48-.4,.58l-49.54,21.82c-.09,.04-.18,.06-.27,.06Zm-71.59-26.37l71.56,24.97,48.92-21.55,1.77-40.9c0-.21,.12-.4,.29-.52,.17-.12,.39-.15,.59-.08l.35,.12-4.05-4.65-.93,.7c-.06,.05-.13,.08-.21,.1l-44.36,13.59c-.11,.03-.23,.04-.35,.01l-66.12-15.01-5.49-.35s-.09,0-.13-.02l-1.84-.49v44.08Z" fill="#071b3f"/></g><g><polyline points="102.93 247.33 102.39 287.39 136.55 273.08 137.27 237.31" fill="#009dcd"/><path d="M102.39,288.06c-.13,0-.26-.04-.38-.11-.19-.13-.3-.34-.3-.56l.54-40.06,1.34,.02-.52,39.04,32.82-13.74,.71-35.33,1.34,.03-.72,35.77c0,.27-.17,.5-.41,.61l-34.16,14.31c-.08,.03-.17,.05-.26,.05Z" fill="#071b3f"/></g><g><polyline points="87.55 248.04 87.01 259.67 66.44 254.3 66.8 242.85" fill="#009dcd"/><path d="M87.01,260.34c-.06,0-.11,0-.17-.02l-20.57-5.37c-.3-.08-.51-.36-.5-.67l.36-11.45,1.34,.04-.34,10.91,19.25,5.02,.5-10.8,1.34,.06-.54,11.63c0,.2-.11,.39-.27,.51-.12,.09-.26,.13-.4,.13Z" fill="#071b3f"/></g><g><polyline points="50.88 238.92 50.88 249.47 49.81 249.83 28.88 243.93 28.88 233.37" fill="#009dcd"/><path d="M49.81,250.5c-.06,0-.12,0-.18-.03l-20.93-5.9c-.29-.08-.49-.35-.49-.65v-10.55h1.34v10.04l20.24,5.71,.42-.14v-10.07h1.34v10.55c0,.29-.18,.55-.46,.64l-1.07,.36c-.07,.02-.14,.03-.21,.03Z" fill="#071b3f"/></g><g><polygon points="29.06 252.15 28.52 269.68 86.29 289.18 87.01 267.54 29.06 252.15" fill="#009dcd"/><path d="M86.29,289.85c-.07,0-.14-.01-.21-.04l-57.77-19.5c-.28-.09-.46-.36-.46-.66l.54-17.53c0-.2,.11-.39,.27-.52,.16-.12,.38-.16,.57-.11l57.95,15.38c.3,.08,.51,.36,.5,.67l-.72,21.64c0,.21-.11,.41-.29,.53-.11,.08-.25,.12-.38,.12Zm-57.09-20.64l56.44,19.05,.67-20.21-56.62-15.03-.5,16.19Z" fill="#071b3f"/></g><path d="M95.24,250.5c-.05,0-.11,0-.16-.02l-73.69-18.42,.33-1.3,73.51,18.38,47.93-14.79,.4,1.28-48.11,14.85c-.06,.02-.13,.03-.2,.03Z" fill="#071b3f"/><g><path d="M53.74,247.86s-1.07,1.43-.72,1.97c.36,.54-2.15-.36-2.15-.36,0,0-2.86,1.43-3.4,3.04s-1.43,6.26-.54,8.23c.89,1.97,3.04,4.29,5.37,4.29s5.72,.36,7.69-1.79c1.97-2.15,2.15-4.29,2.15-6.26v-1.97" fill="#fff"/><path d="M54.19,265.72c-.35,0-.69,0-1.01-.01-.3,0-.59-.01-.87-.01-2.53,0-4.92-2.36-5.98-4.69-1.04-2.29,.03-7.26,.51-8.72,.61-1.82,3.42-3.27,3.73-3.43,.16-.08,.35-.09,.53-.03,.42,.15,.87,.29,1.21,.38,.12-.64,.56-1.32,.89-1.76l1.07,.8c-.33,.44-.64,1.03-.65,1.26,.19,.34,.1,.65-.05,.85-.27,.34-.62,.53-2.64-.17-1.02,.56-2.51,1.62-2.81,2.52-.59,1.76-1.32,6.08-.56,7.74,.86,1.89,2.82,3.9,4.75,3.9,.28,0,.58,0,.89,.01,2.13,.04,4.78,.08,6.3-1.58,1.82-1.98,1.97-3.96,1.97-5.81v-1.97h1.34v1.97c0,2.02-.18,4.38-2.32,6.71-1.66,1.81-4.19,2.03-6.3,2.03Z" fill="#071b3f"/></g><g><path d="M59.29,243.03c-1.61,.36-4.65,2.15-4.65,3.76s-.36,3.4,.89,3.76c1.25,.36,3.76,.18,3.76,.18l.18-1.61-1.43-1.07-.36-1.07,1.07-1.25,1.79,.18,.18-1.61-1.43-1.25Z" fill="#fff"/><path d="M57.9,251.44c-.83,0-1.85-.05-2.55-.25-1.53-.44-1.46-2.15-1.4-3.53,.01-.29,.02-.59,.02-.87,0-1.2,1.09-2.23,2-2.89,.99-.71,2.24-1.31,3.18-1.52,.21-.05,.43,0,.59,.15l1.43,1.25c.17,.14,.25,.36,.22,.58l-.18,1.61c-.04,.37-.37,.63-.73,.59l-1.44-.14-.6,.7,.17,.51,1.26,.95c.19,.14,.29,.37,.26,.61l-.18,1.61c-.04,.32-.3,.57-.62,.59-.05,0-.67,.05-1.44,.05Zm1.22-7.67c-1.53,.47-3.81,1.99-3.81,3.02,0,.31-.01,.62-.02,.92-.05,1.27-.05,2.05,.43,2.19,.74,.21,2.1,.21,2.97,.18l.07-.66-1.12-.84c-.11-.08-.19-.2-.23-.32l-.36-1.07c-.07-.22-.03-.47,.13-.65l1.07-1.25c.14-.17,.36-.25,.58-.23l1.13,.11,.07-.6-.9-.79Z" fill="#071b3f"/></g><g><path d="M58.21,253.41l.54,1.61h1.79s1.79-.54,2.15-2.15c.36-1.61,.89-3.4,.36-4.47-.54-1.07-2.5-2.5-2.5-2.5l-1.79-.18-1.07,1.25,1.79,2.15-.18,1.61-1.25-.18h-2.5l-.72,.89,.54,1.25,1.79,.54,1.07,.18Z" fill="#fff"/><path d="M60.54,255.69h-1.79c-.29,0-.54-.18-.64-.46l-.41-1.23-.67-.11s-.06-.01-.08-.02l-1.79-.54c-.19-.06-.35-.2-.42-.38l-.54-1.25c-.1-.23-.06-.49,.09-.68l.72-.89c.13-.16,.32-.25,.52-.25h2.5s.06,0,.09,0l.57,.08,.07-.64-1.61-1.93c-.21-.25-.21-.62,0-.87l1.07-1.25c.14-.17,.36-.25,.58-.23l1.79,.18c.12,.01,.23,.06,.33,.12,.21,.16,2.12,1.56,2.71,2.75,.57,1.15,.2,2.74-.16,4.28-.05,.21-.1,.43-.15,.64-.44,1.97-2.52,2.62-2.61,2.64-.06,.02-.13,.03-.19,.03Zm-1.31-1.34h1.19c.3-.12,1.38-.59,1.6-1.62,.05-.21,.1-.43,.15-.65,.29-1.25,.62-2.66,.26-3.38-.35-.7-1.56-1.71-2.16-2.15l-1.26-.13-.48,.56,1.43,1.71c.12,.14,.17,.32,.15,.5l-.18,1.61c-.02,.18-.11,.34-.26,.46-.14,.11-.32,.16-.51,.13l-1.2-.17h-2.13l-.26,.33,.25,.59,1.45,.43,1.03,.17c.24,.04,.45,.21,.53,.45l.38,1.15Z" fill="#071b3f"/></g><path d="M55.55,262.34l-.4-.7c1.91-1.09,2.9-2.28,3.02-3.62,.18-1.92,.18-2.99,.18-3h.8s0,1.11-.18,3.08c-.15,1.63-1.27,3.02-3.42,4.25Z" fill="#071b3f"/><path d="M54.71,267.4c-.46,0-.91-.03-1.34-.11-2.4-.4-5.02-2.52-5.31-2.76-.51-.43-.59-1.19-.16-1.7,.42-.51,1.19-.59,1.7-.16,.65,.54,2.68,1.99,4.17,2.24,1.92,.32,4.36-.38,5.79-1.67,1.42-1.28,1.93-3.69,2.11-5.48,.15-1.53,.02-2.29-.14-3.26l-.03-.18c-.11-.66,.33-1.28,.99-1.39,.66-.11,1.28,.33,1.39,.99l.03,.18c.18,1.05,.34,2.05,.16,3.9-.22,2.22-.9,5.24-2.9,7.04-1.64,1.48-4.15,2.37-6.46,2.37Z" fill="#071b3f"/><path d="M50.7,261.05c-.16,0-.31-.04-.46-.12-.45-.25-.61-.83-.36-1.28l2.5-4.47c.25-.45,.83-.61,1.28-.36,.45,.25,.61,.83,.36,1.28l-2.5,4.47c-.17,.31-.49,.48-.82,.48Z" fill="#071b3f"/><rect x="53.34" y="249.6" width="1.34" height="2.43" transform="translate(-137.18 79.72) rotate(-36.02)" fill="#071b3f"/><g><polyline points="127.79 252.51 127.79 248.58 111.15 254.3 111.51 258.59 115.09 261.1 117.06 262.17 124.57 260.74 127.79 258.06 127.79 252.51" fill="#fff"/><path d="M117.06,262.98c-.13,0-.27-.03-.39-.1l-1.97-1.07s-.05-.03-.08-.05l-3.58-2.5c-.2-.14-.32-.35-.34-.59l-.36-4.29c-.03-.37,.19-.71,.54-.83l16.63-5.72c.25-.08,.52-.05,.73,.11,.21,.15,.34,.4,.34,.66v9.48c0,.24-.11,.47-.29,.62l-3.22,2.68c-.11,.09-.23,.15-.36,.17l-7.51,1.43c-.05,0-.1,.01-.15,.01Zm-1.54-2.56l1.68,.91,7.02-1.34,2.77-2.31v-7.97l-14.97,5.15,.27,3.29,3.23,2.26Z" fill="#071b3f"/></g><g><path d="M124.21,252.87c1.97-.54,5.54-.72,6.26,.18s1.61,3.22,1.07,5.01-1.79,3.04-3.58,4.29c-1.79,1.25-9.3,3.04-11.63,3.58s-5.19,1.07-5.54-1.25c-.36-2.33,.89-4.83,1.43-5.54s1.79-1.97,2.5-2.33,2.5-1.61,3.4-1.61,1.43,.36,1.61,1.25-.54,1.43-1.25,1.79-3.22,.54-3.4,1.79,1.07,2.32,1.97,2.15,4.83-1.07,5.72-1.43,2.68-1.07,3.04-1.61,1.43-1.61,1.61-2.33,.18-.89-.54-.89-1.61,0-2.15,.18-2.15,0-1.97-.89,1.43-2.32,1.43-2.32Z" fill="#fff"/><path d="M113.26,267.06c-.79,0-1.51-.14-2.08-.53-.58-.39-.93-.98-1.05-1.76-.38-2.49,.88-5.15,1.56-6.05,.58-.77,1.9-2.1,2.74-2.52,.17-.08,.42-.23,.71-.4,1.17-.7,2.21-1.28,2.99-1.28,1.58,0,2.1,.97,2.27,1.79,.21,1.04-.33,1.88-1.61,2.52-.26,.13-.63,.22-1.05,.33-.67,.17-1.92,.49-1.99,.95-.05,.37,.1,.77,.42,1.07,.28,.27,.59,.36,.75,.32,1.02-.2,4.8-1.07,5.61-1.4,2.03-.81,2.6-1.19,2.73-1.36,.13-.19,.32-.42,.54-.69,.36-.43,.89-1.08,.98-1.43v-.06c-.61,0-1.41,0-1.82,.14-.58,.19-1.78,.12-2.42-.44-.36-.32-.51-.76-.42-1.22,.21-1.04,1.44-2.48,1.58-2.64,.09-.1,.2-.17,.33-.21,1.6-.44,5.88-.94,6.96,.41,.88,1.1,1.78,3.66,1.19,5.62-.66,2.19-2.31,3.58-3.83,4.65-1.75,1.23-8.18,2.83-11.86,3.68-1.1,.25-2.23,.48-3.23,.48Zm4.87-11.2c-.48,0-1.67,.71-2.31,1.09-.31,.19-.58,.35-.79,.45-.57,.28-1.74,1.43-2.27,2.13-.46,.61-1.63,2.95-1.3,5.04,.08,.53,.31,.74,.48,.85,.92,.62,3.09,.12,4.25-.15,6.01-1.39,10.27-2.68,11.39-3.47,1.92-1.35,2.88-2.49,3.32-3.94,.47-1.55-.36-3.65-.95-4.4-.37-.46-3.25-.53-5.36,0-.45,.54-1.03,1.37-1.14,1.83,.18,.15,.85,.24,1.09,.16,.64-.21,1.59-.21,2.36-.21,.28,0,.8,0,1.11,.4,.31,.4,.19,.89,.08,1.33-.16,.64-.74,1.34-1.25,1.96-.19,.23-.36,.44-.46,.58-.39,.59-1.57,1.15-3.35,1.86-.99,.4-5.11,1.32-5.84,1.47-.64,.13-1.36-.12-1.94-.66-.63-.6-.94-1.43-.83-2.23,.19-1.35,1.81-1.76,2.98-2.06,.32-.08,.65-.16,.78-.23,1.01-.5,.93-.88,.89-1.06-.09-.47-.27-.71-.95-.71Z" fill="#071b3f"/></g><path d="M124.21,257.97c-.36,0-.69-.24-.78-.61-.11-.43,.15-.87,.59-.98l2.15-.54c.43-.11,.87,.15,.98,.59,.11,.43-.15,.87-.59,.98l-2.15,.54c-.07,.02-.13,.02-.2,.02Z" fill="#071b3f"/><path d="M126,255.73s-.03,0-.05,0c-.3-.03-.51-.29-.49-.58l.18-1.97c.03-.3,.29-.51,.58-.49,.3,.03,.51,.29,.49,.58l-.18,1.97c-.03,.28-.26,.49-.53,.49Z" fill="#071b3f"/><path d="M117.41,258.24c-.25,0-.47-.17-.52-.42l-.36-1.61c-.06-.29,.12-.58,.41-.64,.29-.06,.58,.12,.64,.41l.36,1.61c.06,.29-.12,.58-.41,.64-.04,0-.08,.01-.12,.01Z" fill="#071b3f"/><rect x="69.29" y="273.89" width="50.63" height="1.61" transform="translate(-182.34 362.48) rotate(-88.58)" fill="#071b3f"/><path d="M25.93,238.11c0,.64-.44,1.16-.98,1.16s-.98-.52-.98-1.16,.44-1.16,.98-1.16,.98,.52,.98,1.16Z" fill="#071b3f"/><path d="M26.02,248.58c0,.49-.4,.89-.89,.89s-.89-.4-.89-.89,.4-.89,.89-.89,.89,.4,.89,.89Z" fill="#071b3f"/><path d="M25.84,260.11c0,.54-.44,.98-.98,.98s-.98-.44-.98-.98,.44-.98,.98-.98,.98,.44,.98,.98Z" fill="#071b3f"/><path d="M26.56,272.63c0,.54-.52,.98-1.16,.98s-1.16-.44-1.16-.98,.52-.98,1.16-.98,1.16,.44,1.16,.98Z" fill="#071b3f"/><path d="M36.57,276.48c0,.49-.52,.89-1.16,.89s-1.16-.4-1.16-.89,.52-.89,1.16-.89,1.16,.4,1.16,.89Z" fill="#071b3f"/><ellipse cx="46.68" cy="279.7" rx="1.34" ry="1.07" fill="#071b3f"/><path d="M60.36,283.9c0,.64-.56,1.16-1.25,1.16s-1.25-.52-1.25-1.16,.56-1.16,1.25-1.16,1.25,.52,1.25,1.16Z" fill="#071b3f"/><path d="M70.55,287.12c0,.54-.48,.98-1.07,.98s-1.07-.44-1.07-.98,.48-.98,1.07-.98,1.07,.44,1.07,.98Z" fill="#071b3f"/><circle cx="79.32" cy="290.43" r="1.07" fill="#071b3f"/><circle cx="89.51" cy="294.19" r="1.07" fill="#071b3f"/><path d="M91.48,278.63c0,.4-.36,.72-.8,.72s-.8-.32-.8-.72,.36-.72,.8-.72,.8,.32,.8,.72Z" fill="#071b3f"/><ellipse cx="90.76" cy="264.5" rx="1.07" ry=".89" fill="#071b3f"/><path d="M92.55,254.48c0,.4-.32,.72-.72,.72s-.72-.32-.72-.72,.32-.72,.72-.72,.72,.32,.72,.72Z" fill="#071b3f"/><circle cx="77.98" cy="261.54" r=".8" fill="#071b3f"/><path d="M68.77,258.41c0,.49-.48,.89-1.07,.89s-1.07-.4-1.07-.89,.48-.89,1.07-.89,1.07,.4,1.07,.89Z" fill="#071b3f"/><path d="M44.98,252.42c0,.35-.32,.63-.72,.63s-.72-.28-.72-.63,.32-.63,.72-.63,.72,.28,.72,.63Z" fill="#071b3f"/><circle cx="34.78" cy="250.01" r=".89" fill="#071b3f"/><path d="M54.46,241.96c0,.4-.32,.72-.72,.72s-.72-.32-.72-.72,.32-.72,.72-.72,.72,.32,.72,.72Z" fill="#071b3f"/><ellipse cx="64.29" cy="244.37" rx=".54" ry=".63" fill="#071b3f"/><path d="M99.89,254.39c0,.44-.4,.8-.89,.8s-.89-.36-.89-.8,.4-.8,.89-.8,.89,.36,.89,.8Z" fill="#071b3f"/><ellipse cx="98.54" cy="264.67" rx=".8" ry="1.07" fill="#071b3f"/><path d="M97.56,278.45c0,.59,.44,1.07,.98,1.07s.98-.48,.98-1.07-.44-1.07-.98-1.07-.98,.48-.98,1.07Z" fill="#071b3f"/><path d="M99.71,292.67c0,.54-.52,.98-1.16,.98s-1.16-.44-1.16-.98,.52-.98,1.16-.98,1.16,.44,1.16,.98Z" fill="#071b3f"/><path d="M111.33,288.19c0,.44-.52,.8-1.16,.8s-1.16-.36-1.16-.8,.52-.8,1.16-.8,1.16,.36,1.16,.8Z" fill="#071b3f"/><ellipse cx="120.45" cy="283.72" rx="1.07" ry=".8" fill="#071b3f"/><ellipse cx="130.83" cy="279.52" rx="1.07" ry=".72" fill="#071b3f"/><path d="M139.77,276.21c0,.44-.4,.8-.89,.8s-.89-.36-.89-.8,.4-.8,.89-.8,.89,.36,.89,.8Z" fill="#071b3f"/><path d="M140.67,263.69c0,.54-.44,.98-.98,.98s-.98-.44-.98-.98,.44-.98,.98-.98,.98,.44,.98,.98Z" fill="#071b3f"/><path d="M140.84,251.26c0,.49-.4,.89-.89,.89s-.89-.4-.89-.89,.4-.89,.89-.89,.89,.4,.89,.89Z" fill="#071b3f"/><circle cx="140.58" cy="240.98" r=".8" fill="#071b3f"/><path d="M75.38,238.25c-.15,0-.29-.08-.36-.22-.23-.45-.58-.94-.92-1.41-.74-1.03-1.51-2.09-.8-2.81,.68-.68,2.44-3.31,2.45-3.34,.12-.19,.37-.23,.56-.11,.18,.12,.24,.37,.11,.56-.07,.11-1.82,2.72-2.55,3.46-.23,.23,.41,1.12,.88,1.77,.36,.5,.73,1.01,.99,1.52,.1,.2,.02,.44-.18,.54-.06,.03-.12,.04-.18,.04Z" fill="#071b3f"/><path d="M68.16,235.43c-2.1,0-4.43-.1-5.33-.5-.27-.12-.39-.44-.28-.71,.12-.27,.44-.39,.71-.27,1.11,.49,5.81,.45,8.7,.31,.29-.01,.55,.21,.56,.51,.01,.3-.21,.55-.51,.56-.36,.02-2.01,.09-3.85,.09Z" fill="#071b3f"/><path d="M64.47,230.16c-.77,0-1.98-.34-2.11-.38-.28-.08-.45-.38-.37-.66,.08-.28,.38-.45,.66-.37,.33,.09,1.3,.34,1.82,.34,.12,0,.32-.13,.54-.27,.52-.34,1.24-.8,2.5-.8,.98,0,1.83,.24,2.58,.45,.65,.18,1.21,.34,1.62,.27,.44-.07,.92-.35,1.43-.65,.57-.33,1.16-.68,1.79-.78l1.07-.18c.29-.05,.57,.15,.62,.44,.05,.29-.15,.57-.44,.62l-1.07,.18c-.44,.07-.92,.35-1.43,.65-.57,.33-1.16,.68-1.79,.78-.65,.11-1.35-.09-2.09-.3-.69-.19-1.46-.41-2.29-.41-.94,0-1.46,.33-1.92,.63-.35,.23-.69,.44-1.12,.44Z" fill="#071b3f"/><path d="M89.33,244.64s-.05,0-.08,0c-.29-.04-.49-.32-.45-.61,.04-.29,1.08-7.18,1.26-8.07,.06-.29,.34-.48,.63-.42,.29,.06,.48,.34,.42,.63-.17,.87-1.24,7.95-1.25,8.02-.04,.27-.27,.46-.53,.46Z" fill="#071b3f"/><path d="M98.99,245.13s-.07,0-.1,0c-.37-.06-.62-.4-.56-.76l1.25-8.23,1.33,.1v7.69c0,.37-.3,.67-.67,.67-.23,0-.43-.11-.55-.29l-.04,.25c-.05,.33-.34,.57-.66,.57Z" fill="#071b3f"/><path d="M116.7,239.77c-.37,0-.67-.3-.67-.67,0-.19,0-.41,.01-.65,.04-1.53,.11-4.09-1.22-5.29-.28-.25-.3-.67-.05-.95,.25-.28,.67-.3,.95-.05,1.79,1.61,1.71,4.56,1.66,6.32,0,.23-.01,.44-.01,.61,0,.37-.3,.67-.67,.67Z" fill="#071b3f"/><path d="M103.98,222.08c-1.09,0-2.08-.13-2.76-.43-2.01-.91-5.86-3.71-6.02-3.82-.26-.19-.35-.53-.22-.81l.72-1.61c.11-.24,.35-.4,.61-.4,.12,0,2.86,0,4.41,.79,1.26,.63,8.05,1.17,9.17,.85,1.22-.35,4.76-1.59,4.79-1.6,.28-.1,.6,0,.77,.25,.17,.24,.16,.57-.02,.81l-.71,.88c-.17,.22-2.1,2.82-3.78,3.75-1.16,.65-4.37,1.35-6.96,1.35Zm-7.55-5.03c1.07,.76,3.84,2.69,5.34,3.37,1.68,.76,7.01-.03,8.52-.87,.91-.5,1.98-1.68,2.66-2.5-1,.34-2.09,.7-2.69,.87-1.43,.41-8.55-.14-10.14-.94-.89-.44-2.48-.6-3.38-.63l-.31,.7Z" fill="#071b3f"/><path d="M103.28,216.88c-.37,0-.67-.3-.67-.67v-1.43s-.03-1.15-1.02-1.99c-.28-.24-.31-.66-.07-.95,.24-.28,.66-.31,.95-.07,1.47,1.26,1.49,2.94,1.49,3.01v1.43c0,.37-.3,.67-.67,.67Z" fill="#071b3f"/><path d="M110.08,217.95c-.32,0-.61-.23-.66-.56-.05-.3-.07-1.58,1.86-5.25,.17-.33,.58-.46,.91-.28,.33,.17,.45,.58,.28,.91-.9,1.72-1.81,3.9-1.72,4.41,.06,.37-.19,.71-.55,.77-.04,0-.07,0-.11,0Z" fill="#071b3f"/><path d="M97.5,211.41c-.12,0-.22-.02-.3-.04-.61-.18-.93-.84-1.24-1.48-.1-.21-.26-.55-.38-.69-.24,.1-.73,.54-1.06,.98-.22,.3-.64,.36-.94,.13-.3-.22-.36-.64-.13-.94,.4-.54,1.45-1.76,2.49-1.5,.61,.15,.92,.8,1.23,1.43,.1,.2,.24,.51,.36,.68,.18-.19,.32-.5,.46-.81,.27-.59,.6-1.33,1.41-1.49,.75-.15,1.37,.43,1.93,.93,.31,.29,.83,.77,1.03,.7,.25-.08,.78-.75,1.14-1.19,.89-1.11,1.9-2.36,3.17-2.04,.85,.21,1.83,.92,2.78,1.6,.57,.41,1.44,1.03,1.71,1.06,.37,0,1.03-.28,1.61-.53,.53-.23,1.03-.44,1.47-.53,.95-.19,2.4-.19,2.46-.19,.37,0,.67,.3,.67,.67s-.3,.67-.67,.67c-.01,0-1.38,0-2.19,.17-.31,.06-.77,.26-1.21,.45-.73,.31-1.49,.64-2.14,.64s-1.35-.5-2.49-1.31c-.81-.58-1.73-1.24-2.32-1.39-.44-.11-1.29,.95-1.8,1.58-.61,.76-1.14,1.42-1.76,1.62-.95,.32-1.74-.4-2.37-.98-.23-.21-.61-.56-.77-.6-.13,.05-.31,.46-.44,.72-.23,.51-.52,1.15-1.12,1.51-.21,.13-.42,.17-.59,.17Z" fill="#071b3f"/><path d="M111.51,233.78c-.34,0-.63-.25-.67-.59-.03-.26-.72-6.31-.72-7.59,0-.82-.85-3.24-1.38-4.58-.14-.34,.03-.73,.37-.87,.34-.14,.73,.03,.87,.37,.15,.38,1.48,3.74,1.48,5.08,0,.96,.47,5.28,.71,7.44,.04,.37-.22,.7-.59,.74-.03,0-.05,0-.08,0Z" fill="#071b3f"/><path d="M115.8,260.38c-.3,0-.54-.24-.54-.54,0-.01,0-1.16-.32-1.95-.15-.36-.68-.25-1.84,.13-.28,.09-.59-.06-.68-.34s.06-.58,.34-.68c1.11-.37,2.63-.88,3.17,.49,.39,.98,.4,2.29,.4,2.35,0,.3-.24,.54-.54,.54h0Z" fill="#071b3f"/><path d="M83.97,220.85s-.05,0-.08,0l-14.67-2.15c-.29-.04-.5-.32-.45-.61,.04-.29,.31-.5,.61-.45l14.67,2.15c.29,.04,.5,.32,.45,.61-.04,.27-.27,.46-.53,.46Z" fill="#071b3f"/><path d="M140.13,231.77s-.06,0-.09,0l-13.59-2.33c-.29-.05-.49-.33-.44-.62,.05-.29,.33-.49,.62-.44l13.59,2.33c.29,.05,.49,.33,.44,.62-.04,.26-.27,.45-.53,.45Z" fill="#071b3f"/><path d="M144.96,236.95c-.13,0-.25-.04-.36-.14l-1.61-1.43c-.22-.2-.24-.54-.04-.76,.2-.22,.54-.24,.76-.04l1.61,1.43c.22,.2,.24,.54,.04,.76-.11,.12-.25,.18-.4,.18Z" fill="#071b3f"/><path d="M143.35,235.52c-.12,0-.24-.04-.35-.13l-3.4-2.86c-.23-.19-.26-.53-.06-.76,.19-.23,.53-.26,.76-.06l3.4,2.86c.23,.19,.26,.53,.06,.76-.11,.13-.26,.19-.41,.19Z" fill="#071b3f"/><path d="M142.63,234.81c-.21,0-.42-.13-.5-.34l-1.25-3.22c-.11-.28,.03-.59,.31-.69,.28-.11,.59,.03,.69,.31l1.25,3.22c.11,.28-.03,.59-.31,.69-.06,.02-.13,.04-.19,.04Z" fill="#071b3f"/><path d="M141.74,233.02c-.06,0-.11,0-.17-.03l-1.07-.36c-.28-.09-.43-.4-.34-.68,.09-.28,.4-.43,.68-.34l1.07,.36c.28,.09,.43,.4,.34,.68-.07,.22-.28,.37-.51,.37Z" fill="#071b3f"/><polygon points="30.85 230.51 75.03 221.75 89.51 224.25 87.37 227.29 84.86 231.41 82.54 236.24 82.18 239.99 82.36 241.6 82.72 242.32 81.29 242.68 79.14 241.96 79.5 241.07 79.5 238.02 78.07 235.7 76.46 233.91 78.42 231.05 78.96 228.01 78.96 226.58 77.35 225.5 75.2 225.15 73.77 225.33 72.16 226.22 69.84 226.22 66.26 226.4 63.4 227.11 60.72 227.29 59.11 228.55 59.11 229.8 60.54 231.05 61.25 232.66 60.36 234.63 58.93 236.06 58.03 237.13 30.85 230.51" fill="#071b3f"/><polygon points="126.89 230.33 127.79 232.48 127.79 234.45 127.61 235.52 128.86 235.7 139.06 232.12 127.43 229.62 126.89 230.33" fill="#071b3f"/></g><path d="M32.97,73.4l2.17,1.9c-1.6,2.08-4.15,3.47-7.17,3.47-5.4,0-9.2-3.8-9.2-9s3.87-9,9.15-9c2.77,0,5.15,1.28,6.72,3l-2.05,2.05c-1.22-1.17-2.7-2.05-4.65-2.05-3.5,0-5.8,2.7-5.8,6s2.22,6,5.82,6c2.08,0,3.5-.78,5-2.38Zm20.83-3.62c0,5.2-3.87,9-8.9,9s-8.9-3.8-8.9-9,3.87-9,8.9-9,8.9,3.8,8.9,9Zm-3.37,0c0-3.3-2.3-6-5.52-6s-5.52,2.7-5.52,6,2.3,6,5.52,6,5.52-2.7,5.52-6Zm14.92,.23l-6.15-8.97h-2.5v17.5h3.32v-10.75l4.97,7.37h.65l4.97-7.37v10.75h3.32v-17.5h-2.5l-6.1,8.97Zm29.8,8.52v-17.5h-2.5l-6.1,8.97-6.15-8.97h-2.5v17.5h3.32v-10.75l4.97,7.37h.65l4.97-7.37v10.75h3.32Zm17.03-2.25c1.05-1.2,1.62-2.8,1.62-5.07v-10.17h-3.37v10.42c0,1.5-.35,2.35-.95,3-.75,.83-1.87,1.33-3.12,1.33s-2.37-.5-3.12-1.33c-.6-.65-.95-1.5-.95-3v-10.42h-3.37v10.17c0,2.27,.58,3.87,1.62,5.07,1.37,1.57,3.5,2.5,5.82,2.5s4.45-.92,5.82-2.5Zm20.5,2.25v-17.5h-3.32v11.35l-9.3-11.35h-2.5v17.5h3.32v-11.35l9.3,11.35h2.5Zm3.95,0h3.37v-17.5h-3.37v17.5Zm5.8-14.5h4.62v14.5h3.38v-14.5h4.62v-3h-12.62v3Zm25.02-3l-3.87,6.22-3.87-6.22h-3.85l6,9.57v7.92h3.37v-7.92l6-9.57h-3.77Zm-101.9,44.75c-3.6,0-5.82-2.7-5.82-6s2.3-6,5.8-6c1.95,0,3.42,.87,4.65,2.05l2.05-2.05c-1.57-1.72-3.95-3-6.72-3-5.27,0-9.15,3.8-9.15,9s3.8,9,9.2,9c3.02,0,5.57-1.4,7.17-3.47l-2.17-1.9c-1.5,1.6-2.92,2.38-5,2.38Zm21.62-8.12h-8.37v-6.62h-3.37v17.5h3.37v-7.87h8.37v7.87h3.37v-17.5h-3.37v6.62Zm11.2,3h5.62v-3h-5.62v-3.62h7.12v-3h-10.5v17.5h10.75v-3h-7.37v-4.87Zm19.1-1.52c-2.35-1.38-5.42-1.7-5.42-3.47,0-.97,.85-1.87,2.5-1.87,1.22,0,2.35,.47,3.27,1.12l1.67-2.37c-1.47-1.15-3.25-1.75-5.05-1.75-3.07,0-5.77,1.83-5.77,5,0,1.95,1.07,3.25,2.42,4.05,2.33,1.35,5.57,1.6,5.57,3.67,0,1.52-1.35,2.27-2.7,2.27-1.6,0-3.15-.73-4.25-1.7l-1.92,2.12c1.75,1.72,3.8,2.57,6.22,2.57,3.45,0,6.02-2.2,6.02-5.3,0-2.2-1.15-3.52-2.57-4.35Zm4.23-5.1h4.62v14.5h3.37v-14.5h4.62v-3h-12.62v3Z" fill="#071b3f"/></svg>