<?xml version="1.0" encoding="UTF-8"?><svg id="a" xmlns="http://www.w3.org/2000/svg" viewBox="0 0 190 345"><path id="b" d="M190,0H0V345H190V0Z" fill="#e1ffec"/><path id="c" d="M190,265.27H0v-13H190v13Z" fill="#0c3081"/><path id="d" d="M190,265H0v80H190v-80Z" fill="#ce0d0d"/><g><path d="M147.09,214.86h-3.37v-17.5h3.37v17.5Z" fill="#071b3f"/><path d="M124.15,197.37h2.5l9.3,11.35v-11.35h3.32v17.5h-2.5l-9.3-11.35v11.35h-3.32v-17.5Z" fill="#071b3f"/><path d="M113.69,214.86c-2.77,0-4.6-.6-6.02-1.65-2.15-1.6-3.47-4.2-3.47-7.1s1.32-5.5,3.47-7.1c1.42-1.05,3.25-1.65,6.02-1.65h6v17.5h-6Zm-4.85-4.95c.98,1.22,2.4,1.95,4.47,1.95h3v-11.5h-3c-2.08,0-3.5,.72-4.47,1.95-.8,1-1.27,2.35-1.27,3.8s.47,2.8,1.27,3.8Z" fill="#071b3f"/><path d="M100.79,214.86h-3.37v-17.5h3.37v17.5Z" fill="#071b3f"/><path d="M94.92,197.37l-7.25,17.5h-2.5l-7.25-17.5h3.57l1.6,3.87h6.75l1.6-3.87h3.47Zm-6.32,6.87h-4.27l2.1,5.37,2.17-5.37Z" fill="#071b3f"/><path d="M60.3,197.37h2.5l9.3,11.35v-11.35h3.32v17.5h-2.5l-9.3-11.35v11.35h-3.32v-17.5Z" fill="#071b3f"/><path d="M57.79,197.37l-7.25,17.5h-2.5l-7.25-17.5h3.57l1.6,3.87h6.75l1.6-3.87h3.47Zm-6.32,6.87h-4.27l2.1,5.37,2.17-5.37Z" fill="#071b3f"/><path d="M144.93,167.37l-7.25,17.5h-2.5l-7.25-17.5h3.57l1.6,3.87h6.75l1.6-3.87h3.47Zm-6.32,6.87h-4.27l2.1,5.37,2.17-5.37Z" fill="#071b3f"/><path d="M128.83,184.86h-3.5l-4.7-11.92-4.6,11.92h-3.45l6.87-17.5h2.5l6.87,17.5Z" fill="#071b3f"/><path d="M106.61,181.86v-3.62h-5.62v-3h5.62v-4.87h-7.37v-3h10.75v17.5h-10.5v-3h7.12Z" fill="#071b3f"/><path d="M80.63,167.37h2.5l9.3,11.35v-11.35h3.32v17.5h-2.5l-9.3-11.35v11.35h-3.32v-17.5Z" fill="#071b3f"/><path d="M65.81,171.44c-.6,.65-.95,1.5-.95,3v10.42h-3.37v-10.17c0-2.27,.58-3.87,1.62-5.07,1.37-1.57,3.5-2.5,5.82-2.5s4.45,.92,5.82,2.5c1.05,1.2,1.62,2.8,1.62,5.07v10.17h-3.37v-10.42c0-1.5-.35-2.35-.95-3-.75-.83-1.87-1.33-3.12-1.33s-2.37,.5-3.12,1.33Z" fill="#071b3f"/><path d="M53.86,181.86v-3.62h-5.62v-3h5.62v-4.87h-7.37v-3h10.75v17.5h-10.5v-3h7.12Z" fill="#071b3f"/></g></svg>