<?xml version="1.0" encoding="UTF-8"?><svg id="a" xmlns="http://www.w3.org/2000/svg" viewBox="0 0 345 190"><path id="b" d="M0,0V190H345V0H0Z" fill="#e1ffec"/><path id="c" d="M265,0V190h80V0h-80Z" fill="#e64f00"/><path id="d" d="M252.29,190V0h13V190h-13Z" fill="#0c3081"/><g><path d="M191.39,37.76c-.97,1.1-1.7,2.65-1.7,4.25,0,1.35,.75,2.7,2.27,2.7,2.08,0,2.33-3.25,3.67-5.57,.8-1.35,2.1-2.42,4.05-2.42,3.17,0,5,2.7,5,5.77,0,1.8-.6,3.57-1.75,5.05l-2.37-1.67c.65-.92,1.12-2.05,1.12-3.27,0-1.65-.9-2.5-1.87-2.5-1.77,0-2.1,3.07-3.47,5.42-.82,1.42-2.15,2.57-4.35,2.57-3.1,0-5.3-2.57-5.3-6.02,0-2.42,.85-4.47,2.57-6.22l2.12,1.92Z" fill="#071b3f"/><path d="M204.43,62.36h-3v-4.62h-14.5v-3.38h14.5v-4.62h3v12.62Z" fill="#071b3f"/><path d="M190.84,65.41c0,1.17-.9,2.12-2.08,2.12s-2.07-.95-2.07-2.12,.9-2.12,2.07-2.12,2.08,.95,2.08,2.12Z" fill="#071b3f"/><path d="M192.44,85.64c-1.4,0-2.35-.17-3.1-.55-1.67-.85-2.65-2.7-2.65-4.7s1.08-3.95,3.07-5l1.4,2.6c-.72,.45-1.47,1.2-1.47,2.35,0,.62,.25,1.17,.7,1.52,.33,.25,.75,.4,1.67,.4h12.37v3.37h-12Z" fill="#071b3f"/><path d="M186.94,87.59l17.5,7.25v2.5l-17.5,7.25v-3.57l3.87-1.6v-6.75l-3.87-1.6v-3.47Zm6.87,6.32v4.27l5.37-2.1-5.37-2.17Z" fill="#071b3f"/><path d="M195.46,115.73l8.97,6.1v2.5h-17.5v-3.32h10.75l-7.37-4.97v-.65l7.37-4.97h-10.75v-3.32h17.5v2.5l-8.97,6.15Z" fill="#071b3f"/><path d="M201.43,132.16h-3.62v5.62h-3v-5.62h-4.87v7.37h-3v-10.75h17.5v10.5h-3v-7.12Z" fill="#071b3f"/><path d="M191.39,143.51c-.97,1.1-1.7,2.65-1.7,4.25,0,1.35,.75,2.7,2.27,2.7,2.08,0,2.33-3.25,3.67-5.57,.8-1.35,2.1-2.42,4.05-2.42,3.17,0,5,2.7,5,5.77,0,1.8-.6,3.57-1.75,5.05l-2.37-1.67c.65-.92,1.12-2.05,1.12-3.27,0-1.65-.9-2.5-1.87-2.5-1.77,0-2.1,3.07-3.47,5.42-.82,1.42-2.15,2.57-4.35,2.57-3.1,0-5.3-2.57-5.3-6.02,0-2.42,.85-4.47,2.57-6.22l2.12,1.92Z" fill="#071b3f"/><path d="M164.06,61.51h-7.12v-3.37h17.5v6.55c0,2.45-.8,3.95-2.05,4.9-.88,.67-1.95,1.05-3.12,1.05s-2.27-.38-3.15-1.05c-1.25-.95-2.05-2.45-2.05-4.9v-3.17Zm2.95,2.75c0,1.42,.3,2.05,.78,2.45,.4,.35,.9,.55,1.47,.55s1.05-.2,1.45-.55c.47-.4,.78-1.03,.78-2.45v-2.75h-4.47v2.75Z" fill="#071b3f"/><path d="M174.43,73.61v3.37h-14.5v7.37h-3v-10.75h17.5Z" fill="#071b3f"/><path d="M156.94,85.36l17.5,7.25v2.5l-17.5,7.25v-3.57l3.87-1.6v-6.75l-3.87-1.6v-3.47Zm6.87,6.32v4.27l5.37-2.1-5.37-2.17Z" fill="#071b3f"/><path d="M169.63,116.83c1.17-1.22,2.05-2.7,2.05-4.65,0-3.5-2.7-5.8-6-5.8s-6,2.22-6,5.82c0,2.08,.78,3.5,2.38,5l-1.9,2.17c-2.08-1.6-3.47-4.15-3.47-7.17,0-5.4,3.8-9.2,9-9.2s9,3.87,9,9.15c0,2.77-1.28,5.15-3,6.72l-2.05-2.05Z" fill="#071b3f"/><path d="M171.43,125.46h-3.62v5.62h-3v-5.62h-4.87v7.37h-3v-10.75h17.5v10.5h-3v-7.12Z" fill="#071b3f"/></g></svg>