<?xml version="1.0" encoding="UTF-8"?><svg id="a" xmlns="http://www.w3.org/2000/svg" viewBox="0 0 190 345"><path id="b" d="M190,0H0V345H190V0Z" fill="#e1ffec"/><path id="c" d="M190,265.27H0v-13H190v13Z" fill="#0c3081"/><path id="d" d="M190,265H0v80H190v-80Z" fill="#ce0d0d"/><g><path d="M145.16,214.86h-3.37v-17.5h3.37v17.5Z" fill="#071b3f"/><path d="M137.34,214.86h-3.37v-14.5h-7.37v-3h10.75v17.5Z" fill="#071b3f"/><path d="M123.64,214.86h-3.37v-14.5h-7.37v-3h10.75v17.5Z" fill="#071b3f"/><path d="M109.94,214.86h-3.37v-17.5h3.37v17.5Z" fill="#071b3f"/><path d="M86.99,197.37h2.5l9.3,11.35v-11.35h3.32v17.5h-2.5l-9.3-11.35v11.35h-3.32v-17.5Z" fill="#071b3f"/><path d="M74.69,197.12c5.02,0,8.9,3.8,8.9,9s-3.87,9-8.9,9-8.9-3.8-8.9-9,3.87-9,8.9-9Zm0,3c-3.22,0-5.52,2.7-5.52,6s2.3,6,5.52,6,5.52-2.7,5.52-6-2.3-6-5.52-6Z" fill="#071b3f"/><path d="M62.39,214.86h-3.37v-17.5h3.37v17.5Z" fill="#071b3f"/><path d="M54.06,201.81c-1.1-.97-2.65-1.7-4.25-1.7-1.35,0-2.7,.75-2.7,2.27,0,2.08,3.25,2.33,5.57,3.67,1.35,.8,2.42,2.1,2.42,4.05,0,3.17-2.7,5-5.77,5-1.8,0-3.57-.6-5.05-1.75l1.67-2.37c.92,.65,2.05,1.12,3.27,1.12,1.65,0,2.5-.9,2.5-1.87,0-1.77-3.07-2.1-5.42-3.47-1.42-.82-2.57-2.15-2.57-4.35,0-3.1,2.57-5.3,6.02-5.3,2.42,0,4.47,.85,6.22,2.57l-1.92,2.12Z" fill="#071b3f"/><path d="M144.71,167.37l-7.25,17.5h-2.5l-7.25-17.5h3.57l1.6,3.87h6.75l1.6-3.87h3.47Zm-6.32,6.87h-4.27l2.1,5.37,2.17-5.37Z" fill="#071b3f"/><path d="M128.61,184.86h-3.5l-4.7-11.92-4.6,11.92h-3.45l6.87-17.5h2.5l6.87,17.5Z" fill="#071b3f"/><path d="M106.39,181.86v-3.62h-5.62v-3h5.62v-4.87h-7.37v-3h10.75v17.5h-10.5v-3h7.12Z" fill="#071b3f"/><path d="M80.42,167.37h2.5l9.3,11.35v-11.35h3.32v17.5h-2.5l-9.3-11.35v11.35h-3.32v-17.5Z" fill="#071b3f"/><path d="M65.59,171.44c-.6,.65-.95,1.5-.95,3v10.42h-3.37v-10.17c0-2.27,.58-3.87,1.62-5.07,1.37-1.57,3.5-2.5,5.82-2.5s4.45,.92,5.82,2.5c1.05,1.2,1.62,2.8,1.62,5.07v10.17h-3.37v-10.42c0-1.5-.35-2.35-.95-3-.75-.83-1.87-1.33-3.12-1.33s-2.37,.5-3.12,1.33Z" fill="#071b3f"/><path d="M53.64,181.86v-3.62h-5.62v-3h5.62v-4.87h-7.37v-3h10.75v17.5h-10.5v-3h7.12Z" fill="#071b3f"/></g></svg>