<?xml version="1.0" encoding="UTF-8"?><svg id="a" xmlns="http://www.w3.org/2000/svg" viewBox="0 0 342.89 342.89"><rect x=".04" y="-.04" width="342.89" height="342.98" transform="translate(.04 342.94) rotate(-90)" fill="#156cd3"/><g><path d="M74.82,215.76l37.09,21.19-17.35-43.96,43.81,17.51-20.87-37.41,14.83-11.63,40.79,80.32-51.1-21.5,20.47,52.13-78.98-42.13,11.31-14.52Zm62.22-59.36l11.88-14.74,58.2,58.2-11.88,14.74-58.2-58.2Zm19.91-27.65l69.8-1.07-30.57-30.57,11.23-14.6,62.33,62.33-70.06,.66,31.25,31.25-11.64,14.34-62.33-62.33Zm110.61-21.67l17.84,.52,.52,17.84-17.84-.52-.52-17.84Zm-48.68-34.19l11.76-15.8,39.57,41.46-10.22,13.09-41.1-38.74Z" fill="#0e4072"/><g><path d="M59.82,214.76l37.09,21.19-17.35-43.96,43.81,17.51-20.87-37.41,14.83-11.63,40.79,80.32-51.1-21.5,20.47,52.13-78.98-42.13,11.31-14.52Z" fill="#fff"/><path d="M122.04,155.4l11.88-14.74,58.2,58.2-11.88,14.74-58.2-58.2Z" fill="#fff"/><path d="M141.95,127.75l69.8-1.07-30.57-30.57,11.23-14.6,62.33,62.33-70.06,.66,31.25,31.25-11.64,14.34-62.33-62.33Z" fill="#fff"/><path d="M203.88,71.88l11.76-15.8,39.57,41.46-10.22,13.09-41.1-38.74Zm48.68,34.19l17.84,.52,.52,17.84-17.84-.52-.52-17.84Z" fill="#fff"/></g></g></svg>