<svg xmlns="http://www.w3.org/2000/svg" viewBox="0 0 342.89 342.89"><rect width="342.89" height="342.89" style="fill:none"/><path d="M75,78.77l7.33-32,4.27,5a8.6,8.6,0,0,1,2.4,5.8,10.32,10.32,0,0,1-.26,2.26L84.28,78.5l19.38-1.37a8.49,8.49,0,0,1,7.65,3.33l4.27,5L82.72,87.69l-15,64.46L63.35,147a8.68,8.68,0,0,1-2.43-5.81,9,9,0,0,1,.29-2.24l12.2-51.07L50.85,89.32A8.49,8.49,0,0,1,43.19,86l-4-4.63Zm46.49,26.36-8.1-9.43,10.15-1,4.27,5L132,96.12c11.83-10.17,24.08-6.64,31,1.38a20.72,20.72,0,0,1,3.33,5.06l-7.58,4a15.52,15.52,0,0,0-1.82-2.64,12.49,12.49,0,0,0-8-4.5c-3.57-.39-7.22,1-10.85,4.12l-4,3.43,9.66,11.24-6.32,5.43-9.66-11.24L92.17,143l-6.24-7.26Zm29.52,21.56,6.24,7.26-41.92,36-6.23-7.26Zm16.55,19.25,6.23,7.26-5.23,4.5,2.27.26a24.89,24.89,0,0,1,16.26,8.81,21.46,21.46,0,0,1,5.48,14.08c0,6.71-3.33,13.26-9.37,18.46l-24.53,21.08-3.38-3.92a4.44,4.44,0,0,1-1.14-2.88,4.52,4.52,0,0,1,1.7-3.39l19.59-16.83c4.59-4,7-8.43,7-13a15.24,15.24,0,0,0-4-9.88c-4.2-4.89-10.06-7.14-16.95-6.5l-.32,0-29.29,25.17L125.68,182Zm43.26,50.33,6.24,7.26-41.92,36-6.24-7.26Zm22.63,96.52,20.64-46.17,2.93,3.4c1.79,2.09,2.67,3.95,2.67,5.69a5.35,5.35,0,0,1-.48,2.19l-14.77,32.61,36-7.89c2.66-.59,5.05.48,7.51,3.34l3,3.5-84.43,18.38c-2.77.57-5.46-.62-8-3.53l-3-3.49Zm-36.13-32.91c0-5.54,2.68-10.77,7.76-15.14l20.94-18-8-9.28L224.4,212l8,9.28,13.89-11.94,9.41,4.53-17.06,14.67,7.7,9-3.84,8.32L232.3,234l-20.77,17.85c-3.09,2.65-4.65,5.62-4.65,8.82a11.9,11.9,0,0,0,3.16,7.7,26.9,26.9,0,0,0,3.24,3.18l-5,6.81a29,29,0,0,1-5.35-4.94c-3.66-4.26-5.59-8.94-5.59-13.54Z" style="fill:#fff"/></svg>