<?xml version="1.0" encoding="UTF-8"?><svg id="a" xmlns="http://www.w3.org/2000/svg" viewBox="0 0 190 345"><path id="b" d="M190,345H0V0H190V345Z" fill="#fff"/><path id="c" d="M190,93.27H0v-13H190v13Z" fill="#6138f5"/><path id="d" d="M190,80H0V0H190V80Z" fill="#5632d8"/><g><path d="M60.94,138.58c1.97,0,3.07,.48,3.92,1.22,.98,.85,1.62,2.1,1.62,3.52,0,1.15-.55,2.32-1.12,2.92,1.55,.77,2.62,2.52,2.62,4.47,0,1.47-.62,2.82-1.6,3.77-.98,.97-2.33,1.57-4.57,1.57h-6.82v-17.5h5.95Zm1.67,3.57c-.35-.4-.85-.62-1.92-.62h-2.32v3.82h2.32c1.08,0,1.58-.22,1.92-.62,.33-.35,.5-.82,.5-1.3s-.17-.92-.5-1.28Zm-.97,10.97c1.2,0,1.87-.3,2.32-.8,.42-.45,.65-1.05,.65-1.7s-.22-1.23-.65-1.67c-.45-.5-1.12-.8-2.32-.8h-3.27v4.97h3.27Z" fill="#071b3f"/><path d="M68.66,156.08l7.25-17.5h2.5l7.25,17.5h-3.57l-1.6-3.87h-6.75l-1.6,3.87h-3.47Zm6.32-6.87h4.27l-2.1-5.37-2.17,5.37Z" fill="#071b3f"/><path d="M88.16,138.58h3.37v14.5h7.37v3h-10.75v-17.5Z" fill="#071b3f"/><path d="M110.68,138.58v3h-4.62v14.5h-3.38v-14.5h-4.62v-3h12.62Z" fill="#071b3f"/><path d="M113.61,138.58h3.37v17.5h-3.37v-17.5Z" fill="#071b3f"/><path d="M134.21,143.38c-1.22-1.17-2.7-2.05-4.65-2.05-3.5,0-5.8,2.7-5.8,6s2.22,6,5.82,6c2.08,0,3.5-.78,5-2.38l2.17,1.9c-1.6,2.08-4.15,3.47-7.17,3.47-5.4,0-9.2-3.8-9.2-9s3.87-9,9.15-9c2.77,0,5.15,1.28,6.72,3l-2.05,2.05Z" fill="#071b3f"/><path d="M45.29,186.08l7.25-17.5h2.5l7.25,17.5h-3.57l-1.6-3.87h-6.75l-1.6,3.87h-3.47Zm6.32-6.87h4.27l-2.1-5.37-2.17,5.37Z" fill="#071b3f"/><path d="M61.39,168.58h3.5l4.7,11.92,4.6-11.92h3.45l-6.87,17.5h-2.5l-6.87-17.5Z" fill="#071b3f"/><path d="M83.61,171.58v3.62h5.62v3h-5.62v4.87h7.37v3h-10.75v-17.5h10.5v3h-7.12Z" fill="#071b3f"/><path d="M109.58,186.08h-2.5l-9.3-11.35v11.35h-3.32v-17.5h2.5l9.3,11.35v-11.35h3.32v17.5Z" fill="#071b3f"/><path d="M124.41,182c.6-.65,.95-1.5,.95-3v-10.42h3.37v10.17c0,2.27-.58,3.87-1.62,5.07-1.37,1.57-3.5,2.5-5.82,2.5s-4.45-.92-5.82-2.5c-1.05-1.2-1.62-2.8-1.62-5.07v-10.17h3.37v10.42c0,1.5,.35,2.35,.95,3,.75,.83,1.87,1.33,3.12,1.33s2.37-.5,3.12-1.33Z" fill="#071b3f"/><path d="M136.36,171.58v3.62h5.62v3h-5.62v4.87h7.37v3h-10.75v-17.5h10.5v3h-7.12Z" fill="#071b3f"/></g></svg>