<?xml version="1.0" encoding="UTF-8"?><svg id="a" xmlns="http://www.w3.org/2000/svg" viewBox="0 0 190 345"><path id="b" d="M190,0H0V345H190V0Z" fill="#fff"/><path id="c" d="M190,265H0v80H190v-80Z" fill="#fa0"/><path id="d" d="M190,265.27H0v-13H190v13Z" fill="#6138f5"/><g><path d="M133.75,205.89l-6.1,8.97h-2.5v-17.5h3.32v10.75l4.97-7.37h.65l4.97,7.37v-10.75h3.32v17.5h-2.5l-6.15-8.97Z" fill="#071b3f"/><path d="M122.65,197.37l-7.25,17.5h-2.5l-7.25-17.5h3.57l1.6,3.87h6.75l1.6-3.87h3.47Zm-6.32,6.87h-4.27l2.1,5.37,2.17-5.37Z" fill="#071b3f"/><path d="M94.68,205.31l-6.02-7.95h4.05l5.8,7.75h1.27v-7.75h3.37v17.5h-6.67c-2.1,0-3.5-.78-4.37-1.95-.6-.8-.95-1.8-.95-2.87,0-2.25,1.3-4.05,3.52-4.72Zm2.32,2.67c-1.12,0-1.67,.28-2.02,.7-.28,.35-.45,.8-.45,1.27s.17,.9,.45,1.25c.35,.42,.9,.7,2.02,.7h2.77v-3.92h-2.77Z" fill="#071b3f"/><path d="M89.4,214.86h-3.5l-4.7-11.92-4.6,11.92h-3.45l6.87-17.5h2.5l6.87,17.5Z" fill="#071b3f"/><path d="M70.55,214.86h-3.37v-17.5h3.37v17.5Z" fill="#071b3f"/><path d="M47.6,197.37h2.5l9.3,11.35v-11.35h3.32v17.5h-2.5l-9.3-11.35v11.35h-3.32v-17.5Z" fill="#071b3f"/><path d="M139.65,180.06c1.22,1.17,2.7,2.05,4.65,2.05,3.5,0,5.8-2.7,5.8-6s-2.22-6-5.82-6c-1.58,0-2.77,.4-3.92,1.3v3.82h4.62v2.87h-7.87v-7.62c1.6-2.02,4.15-3.37,7.17-3.37,5.4,0,9.2,3.8,9.2,9s-3.87,9-9.15,9c-2.77,0-5.15-1.28-6.72-3l2.05-2.05Z" fill="#071b3f"/><path d="M136.05,167.37l-7.25,17.5h-2.5l-7.25-17.5h3.57l1.6,3.87h6.75l1.6-3.87h3.47Zm-6.32,6.87h-4.27l2.1,5.37,2.17-5.37Z" fill="#071b3f"/><path d="M108.08,175.31l-6.02-7.95h4.05l5.8,7.75h1.27v-7.75h3.37v17.5h-6.67c-2.1,0-3.5-.78-4.37-1.95-.6-.8-.95-1.8-.95-2.87,0-2.25,1.3-4.05,3.52-4.72Zm2.32,2.67c-1.12,0-1.67,.28-2.02,.7-.28,.35-.45,.8-.45,1.27s.17,.9,.45,1.25c.35,.42,.9,.7,2.02,.7h2.77v-3.92h-2.77Z" fill="#071b3f"/><path d="M94,184.86c-2.77,0-4.6-.6-6.02-1.65-2.15-1.6-3.47-4.2-3.47-7.1s1.32-5.5,3.47-7.1c1.42-1.05,3.25-1.65,6.02-1.65h6v17.5h-6Zm-4.85-4.95c.98,1.22,2.4,1.95,4.47,1.95h3v-11.5h-3c-2.08,0-3.5,.72-4.47,1.95-.8,1-1.27,2.35-1.27,3.8s.47,2.8,1.27,3.8Z" fill="#071b3f"/><path d="M77.73,181.86v-3.62h-5.62v-3h5.62v-4.87h-7.37v-3h10.75v17.5h-10.5v-3h7.12Z" fill="#071b3f"/><path d="M51.75,167.37h2.5l9.3,11.35v-11.35h3.32v17.5h-2.5l-9.3-11.35v11.35h-3.32v-17.5Z" fill="#071b3f"/><path d="M46.8,171.81c-1.1-.97-2.65-1.7-4.25-1.7-1.35,0-2.7,.75-2.7,2.27,0,2.08,3.25,2.33,5.57,3.67,1.35,.8,2.42,2.1,2.42,4.05,0,3.17-2.7,5-5.77,5-1.8,0-3.57-.6-5.05-1.75l1.67-2.37c.92,.65,2.05,1.12,3.27,1.12,1.65,0,2.5-.9,2.5-1.87,0-1.77-3.07-2.1-5.42-3.47-1.42-.82-2.57-2.15-2.57-4.35,0-3.1,2.57-5.3,6.02-5.3,2.42,0,4.47,.85,6.22,2.57l-1.92,2.12Z" fill="#071b3f"/></g></svg>